<svg width="298" height="254" viewBox="0 0 298 254" fill="none" xmlns="http://www.w3.org/2000/svg">
<g clip-path="url(#clip0)">
<rect x="0.5" y="0.5" width="297" height="253" rx="28.5" fill="#F2F2F2"/>
<path d="M65.1641 84H63.6641L68.4062 72.8281H70.0078L74.7734 84H73.1719L71.7266 80.4844H68.0312L68.4297 79.3125H71.2422L69.1562 74.25L65.1641 84ZM76.0625 83.6094V82.3594C77.026 82.6719 78 82.8281 78.9844 82.8281C80.2917 82.8281 80.9453 82.4375 80.9453 81.6562C80.9453 80.9271 80.4896 80.5625 79.5781 80.5625H78.4062C76.6354 80.5625 75.75 79.7552 75.75 78.1406C75.75 76.5781 76.888 75.7969 79.1641 75.7969C80.1432 75.7969 81.1146 75.9271 82.0781 76.1875V77.4375C81.1146 77.125 80.1432 76.9688 79.1641 76.9688C77.7995 76.9688 77.1172 77.3594 77.1172 78.1406C77.1172 78.8698 77.5469 79.2344 78.4062 79.2344H79.5781C81.4531 79.2344 82.3906 80.0417 82.3906 81.6562C82.3906 83.2188 81.2552 84 78.9844 84C78 84 77.026 83.8698 76.0625 83.6094ZM84.3438 84V75.7969H85.3203L85.5625 76.8281C86.349 76.1406 87.2057 75.7969 88.1328 75.7969C89.3203 75.7969 90.1302 76.1719 90.5625 76.9219C91.4531 76.1719 92.3568 75.7969 93.2734 75.7969C95.1589 75.7969 96.1016 76.8359 96.1016 78.9141V84H94.6562V78.8359C94.6562 77.612 94.1406 77 93.1094 77C92.3385 77 91.6172 77.3542 90.9453 78.0625V84H89.5V78.8594C89.5 77.6198 88.9896 77 87.9688 77C87.1562 77 86.4297 77.3542 85.7891 78.0625V84H84.3438ZM98.0625 81.5234C98.0625 79.8411 99.1719 79 101.391 79C102.104 79 102.818 79.0521 103.531 79.1562V78.3828C103.531 77.4401 102.794 76.9688 101.32 76.9688C100.477 76.9688 99.612 77.099 98.7266 77.3594V76.1875C99.612 75.9271 100.477 75.7969 101.32 75.7969C103.758 75.7969 104.977 76.6458 104.977 78.3438V84H104.164L103.664 83.1875C102.846 83.7292 101.956 84 100.992 84C99.0391 84 98.0625 83.1745 98.0625 81.5234ZM101.391 80.1719C100.135 80.1719 99.5078 80.6146 99.5078 81.5C99.5078 82.3854 100.003 82.8281 100.992 82.8281C101.992 82.8281 102.839 82.5625 103.531 82.0312V80.3281C102.818 80.224 102.104 80.1719 101.391 80.1719ZM110.711 75.7969C113.044 75.7969 114.211 76.9505 114.211 79.2578C114.211 79.5859 114.188 79.9375 114.141 80.3125H108.383C108.383 81.9896 109.362 82.8281 111.32 82.8281C112.253 82.8281 113.081 82.724 113.805 82.5156V83.6875C113.081 83.8958 112.201 84 111.164 84C108.346 84 106.938 82.6016 106.938 79.8047C106.938 77.1328 108.195 75.7969 110.711 75.7969ZM108.383 79.1094H112.82C112.789 77.6719 112.086 76.9531 110.711 76.9531C109.253 76.9531 108.477 77.6719 108.383 79.1094ZM127.523 72.8281V74H121.664V77.75H127.25V78.9219H121.664V82.8281H127.641V84H120.219V72.8281H127.523ZM131.273 72.8281V82.8281H137.117V84H129.828V72.8281H131.273ZM142.75 84V72.8281H144.586L148.688 82.1484L152.711 72.8281H154.469V84H153.18V74.8359L149.211 84H148.07L144.039 74.8359V84H142.75ZM157.492 84H155.992L160.734 72.8281H162.336L167.102 84H165.5L164.055 80.4844H160.359L160.758 79.3125H163.57L161.484 74.25L157.492 84ZM167.492 72.8281H169.094L172.312 78.6641L175.578 72.8281H177.258L172.992 80.0938V84H171.547V80.0938L167.492 72.8281ZM178.781 84V72.8281H180.617L184.719 82.1484L188.742 72.8281H190.5V84H189.211V74.8359L185.242 84H184.102L180.07 74.8359V84H178.781ZM194.289 78.3828C194.289 81.3984 195.651 82.9062 198.375 82.9062C201.042 82.9062 202.375 81.3984 202.375 78.3828C202.375 75.4089 201.042 73.9219 198.375 73.9219C195.651 73.9219 194.289 75.4089 194.289 78.3828ZM192.766 78.4297C192.766 74.6432 194.635 72.75 198.375 72.75C202.057 72.75 203.898 74.6432 203.898 78.4297C203.898 82.1953 202.057 84.0781 198.375 84.0781C194.635 84.0781 192.766 82.1953 192.766 78.4297ZM206.094 79.6875V72.8281H207.539V79.6875C207.539 81.8333 208.607 82.9062 210.742 82.9062C212.878 82.9062 213.945 81.8333 213.945 79.6875V72.8281H215.391V79.6875C215.391 82.6146 213.841 84.0781 210.742 84.0781C207.643 84.0781 206.094 82.6146 206.094 79.6875ZM217.969 84V72.8281H219.414L226.25 81.8281V72.8281H227.617V84H226.172L219.336 74.9219V84H217.969ZM231.961 72.8281V84H230.516V72.8281H231.961Z" fill="black"/>
<path d="M32.8047 99.5234C32.8047 97.8411 33.9141 97 36.1328 97C36.8464 97 37.5599 97.0521 38.2734 97.1562V96.3828C38.2734 95.4401 37.5365 94.9688 36.0625 94.9688C35.2188 94.9688 34.3542 95.099 33.4688 95.3594V94.1875C34.3542 93.9271 35.2188 93.7969 36.0625 93.7969C38.5 93.7969 39.7188 94.6458 39.7188 96.3438V102H38.9062L38.4062 101.188C37.5885 101.729 36.6979 102 35.7344 102C33.7812 102 32.8047 101.174 32.8047 99.5234ZM36.1328 98.1719C34.8776 98.1719 34.25 98.6146 34.25 99.5C34.25 100.385 34.7448 100.828 35.7344 100.828C36.7344 100.828 37.5807 100.562 38.2734 100.031V98.3281C37.5599 98.224 36.8464 98.1719 36.1328 98.1719ZM41.9922 101.609V100.359C42.9557 100.672 43.9297 100.828 44.9141 100.828C46.2214 100.828 46.875 100.438 46.875 99.6562C46.875 98.9271 46.4193 98.5625 45.5078 98.5625H44.3359C42.5651 98.5625 41.6797 97.7552 41.6797 96.1406C41.6797 94.5781 42.8177 93.7969 45.0938 93.7969C46.0729 93.7969 47.0443 93.9271 48.0078 94.1875V95.4375C47.0443 95.125 46.0729 94.9688 45.0938 94.9688C43.7292 94.9688 43.0469 95.3594 43.0469 96.1406C43.0469 96.8698 43.4766 97.2344 44.3359 97.2344H45.5078C47.3828 97.2344 48.3203 98.0417 48.3203 99.6562C48.3203 101.219 47.1849 102 44.9141 102C43.9297 102 42.9557 101.87 41.9922 101.609ZM50.2734 102V93.7969H51.25L51.4922 94.8281C52.2786 94.1406 53.1354 93.7969 54.0625 93.7969C55.25 93.7969 56.0599 94.1719 56.4922 94.9219C57.3828 94.1719 58.2865 93.7969 59.2031 93.7969C61.0885 93.7969 62.0312 94.8359 62.0312 96.9141V102H60.5859V96.8359C60.5859 95.612 60.0703 95 59.0391 95C58.2682 95 57.5469 95.3542 56.875 96.0625V102H55.4297V96.8594C55.4297 95.6198 54.9193 95 53.8984 95C53.0859 95 52.3594 95.3542 51.7188 96.0625V102H50.2734ZM63.9922 99.5234C63.9922 97.8411 65.1016 97 67.3203 97C68.0339 97 68.7474 97.0521 69.4609 97.1562V96.3828C69.4609 95.4401 68.724 94.9688 67.25 94.9688C66.4062 94.9688 65.5417 95.099 64.6562 95.3594V94.1875C65.5417 93.9271 66.4062 93.7969 67.25 93.7969C69.6875 93.7969 70.9062 94.6458 70.9062 96.3438V102H70.0938L69.5938 101.188C68.776 101.729 67.8854 102 66.9219 102C64.9688 102 63.9922 101.174 63.9922 99.5234ZM67.3203 98.1719C66.0651 98.1719 65.4375 98.6146 65.4375 99.5C65.4375 100.385 65.9323 100.828 66.9219 100.828C67.9219 100.828 68.7682 100.562 69.4609 100.031V98.3281C68.7474 98.224 68.0339 98.1719 67.3203 98.1719ZM76.6406 93.7969C78.974 93.7969 80.1406 94.9505 80.1406 97.2578C80.1406 97.5859 80.1172 97.9375 80.0703 98.3125H74.3125C74.3125 99.9896 75.2917 100.828 77.25 100.828C78.1823 100.828 79.0104 100.724 79.7344 100.516V101.688C79.0104 101.896 78.1302 102 77.0938 102C74.276 102 72.8672 100.602 72.8672 97.8047C72.8672 95.1328 74.125 93.7969 76.6406 93.7969ZM74.3125 97.1094H78.75C78.7188 95.6719 78.0156 94.9531 76.6406 94.9531C75.1823 94.9531 74.4062 95.6719 74.3125 97.1094ZM83.1406 100.555V102H81.6953V100.555H83.1406ZM88.4844 93.7969C90.8177 93.7969 91.9844 94.9505 91.9844 97.2578C91.9844 97.5859 91.9609 97.9375 91.9141 98.3125H86.1562C86.1562 99.9896 87.1354 100.828 89.0938 100.828C90.026 100.828 90.8542 100.724 91.5781 100.516V101.688C90.8542 101.896 89.974 102 88.9375 102C86.1198 102 84.7109 100.602 84.7109 97.8047C84.7109 95.1328 85.9688 93.7969 88.4844 93.7969ZM86.1562 97.1094H90.5938C90.5625 95.6719 89.8594 94.9531 88.4844 94.9531C87.026 94.9531 86.25 95.6719 86.1562 97.1094ZM95.4531 90.8281V102H94.0078V90.8281H95.4531ZM97.8828 102V93.7969H98.8594L99.1016 94.8281C99.888 94.1406 100.745 93.7969 101.672 93.7969C102.859 93.7969 103.669 94.1719 104.102 94.9219C104.992 94.1719 105.896 93.7969 106.812 93.7969C108.698 93.7969 109.641 94.8359 109.641 96.9141V102H108.195V96.8359C108.195 95.612 107.68 95 106.648 95C105.878 95 105.156 95.3542 104.484 96.0625V102H103.039V96.8594C103.039 95.6198 102.529 95 101.508 95C100.695 95 99.9688 95.3542 99.3281 96.0625V102H97.8828ZM111.602 99.5234C111.602 97.8411 112.711 97 114.93 97C115.643 97 116.357 97.0521 117.07 97.1562V96.3828C117.07 95.4401 116.333 94.9688 114.859 94.9688C114.016 94.9688 113.151 95.099 112.266 95.3594V94.1875C113.151 93.9271 114.016 93.7969 114.859 93.7969C117.297 93.7969 118.516 94.6458 118.516 96.3438V102H117.703L117.203 101.188C116.385 101.729 115.495 102 114.531 102C112.578 102 111.602 101.174 111.602 99.5234ZM114.93 98.1719C113.674 98.1719 113.047 98.6146 113.047 99.5C113.047 100.385 113.542 100.828 114.531 100.828C115.531 100.828 116.378 100.562 117.07 100.031V98.3281C116.357 98.224 115.643 98.1719 114.93 98.1719ZM119.891 93.7969H121.461L123.781 100.203L126.18 93.7969H127.711L124.305 102.242C123.701 103.732 122.794 104.661 121.586 105.031L121.031 104.008C121.948 103.607 122.615 102.953 123.031 102.047L119.891 93.7969ZM129.07 102V93.7969H130.047L130.289 94.8281C131.076 94.1406 131.932 93.7969 132.859 93.7969C134.047 93.7969 134.857 94.1719 135.289 94.9219C136.18 94.1719 137.083 93.7969 138 93.7969C139.885 93.7969 140.828 94.8359 140.828 96.9141V102H139.383V96.8359C139.383 95.612 138.867 95 137.836 95C137.065 95 136.344 95.3542 135.672 96.0625V102H134.227V96.8594C134.227 95.6198 133.716 95 132.695 95C131.883 95 131.156 95.3542 130.516 96.0625V102H129.07ZM144.234 97.8672C144.234 99.8411 145.055 100.828 146.695 100.828C148.336 100.828 149.156 99.8411 149.156 97.8672C149.156 95.9349 148.336 94.9688 146.695 94.9688C145.055 94.9688 144.234 95.9349 144.234 97.8672ZM142.789 97.8984C142.789 95.1641 144.091 93.7969 146.695 93.7969C149.299 93.7969 150.602 95.1641 150.602 97.8984C150.602 100.628 149.299 101.992 146.695 101.992C144.102 101.992 142.799 100.628 142.789 97.8984ZM159.625 93.7969V102H158.633L158.383 100.953C157.388 101.651 156.388 102 155.383 102C153.497 102 152.555 100.982 152.555 98.9453V93.7969H154V98.9688C154 100.188 154.604 100.797 155.812 100.797C156.641 100.797 157.43 100.451 158.18 99.7578V93.7969H159.625ZM161.977 102V93.7969H162.953L163.211 94.8438C164.049 94.1458 164.971 93.7969 165.977 93.7969C168.023 93.7969 169.047 94.8151 169.047 96.8516V102H167.602V96.8281C167.602 95.6094 166.995 95 165.781 95C164.953 95 164.167 95.3464 163.422 96.0391V102H161.977ZM173 93.7969V102H171.555V93.7969H173ZM173 90.8281V92.1953H171.555V90.8281H173ZM179.219 99.5234C179.219 97.8411 180.328 97 182.547 97C183.365 97 184.078 97.0521 184.688 97.1562V96.3047C184.688 95.4141 183.951 94.9688 182.477 94.9688C181.633 94.9688 180.768 95.099 179.883 95.3594V94.1875C180.768 93.9271 181.633 93.7969 182.477 93.7969C184.914 93.7969 186.133 94.6719 186.133 96.4219V101.312C186.133 101.771 186.393 102 186.914 102C187.982 102 188.516 100.594 188.516 97.7812C188.516 93.875 186.625 91.9219 182.844 91.9219C178.917 91.9219 176.953 93.875 176.953 97.7812C176.953 101.792 178.737 103.797 182.305 103.797V104.969C177.773 104.969 175.508 102.573 175.508 97.7812C175.508 93.0938 177.914 90.75 182.727 90.75C187.549 90.75 189.961 93.0938 189.961 97.7812C189.961 101.375 188.849 103.172 186.625 103.172C185.37 103.172 184.742 102.536 184.742 101.266C183.977 101.755 183.112 102 182.148 102C180.195 102 179.219 101.174 179.219 99.5234ZM184.688 98.3281C184.115 98.224 183.401 98.1719 182.547 98.1719C181.292 98.1719 180.664 98.6146 180.664 99.5C180.664 100.385 181.159 100.828 182.148 100.828C183.148 100.828 183.995 100.562 184.688 100.031V98.3281ZM197.789 95.1875C197.294 95.0625 196.682 95 195.953 95C194.208 95 193.336 95.9453 193.336 97.8359C193.336 99.7786 194.161 100.75 195.812 100.75C196.562 100.75 197.221 100.609 197.789 100.328V95.1875ZM199.234 102C199.234 103.979 197.977 104.969 195.461 104.969C194.451 104.969 193.555 104.839 192.773 104.578V103.406C193.57 103.667 194.471 103.797 195.477 103.797C197.018 103.797 197.789 103.198 197.789 102V101.609C197.174 101.87 196.513 102 195.805 102C193.211 102 191.914 100.617 191.914 97.8516C191.914 95.1484 193.281 93.7969 196.016 93.7969C197.125 93.7969 198.198 93.9089 199.234 94.1328V102ZM201.586 102V93.7969H202.562L202.805 94.8281C203.591 94.1406 204.448 93.7969 205.375 93.7969C206.562 93.7969 207.372 94.1719 207.805 94.9219C208.695 94.1719 209.599 93.7969 210.516 93.7969C212.401 93.7969 213.344 94.8359 213.344 96.9141V102H211.898V96.8359C211.898 95.612 211.383 95 210.352 95C209.581 95 208.859 95.3542 208.188 96.0625V102H206.742V96.8594C206.742 95.6198 206.232 95 205.211 95C204.398 95 203.672 95.3542 203.031 96.0625V102H201.586ZM215.305 99.5234C215.305 97.8411 216.414 97 218.633 97C219.346 97 220.06 97.0521 220.773 97.1562V96.3828C220.773 95.4401 220.036 94.9688 218.562 94.9688C217.719 94.9688 216.854 95.099 215.969 95.3594V94.1875C216.854 93.9271 217.719 93.7969 218.562 93.7969C221 93.7969 222.219 94.6458 222.219 96.3438V102H221.406L220.906 101.188C220.089 101.729 219.198 102 218.234 102C216.281 102 215.305 101.174 215.305 99.5234ZM218.633 98.1719C217.378 98.1719 216.75 98.6146 216.75 99.5C216.75 100.385 217.245 100.828 218.234 100.828C219.234 100.828 220.081 100.562 220.773 100.031V98.3281C220.06 98.224 219.346 98.1719 218.633 98.1719ZM226.172 93.7969V102H224.727V93.7969H226.172ZM226.172 90.8281V92.1953H224.727V90.8281H226.172ZM230.203 90.8281V102H228.758V90.8281H230.203ZM233.688 100.555V102H232.242V100.555H233.688ZM241.82 101.766C241.143 101.922 240.414 102 239.633 102C236.716 102 235.258 100.581 235.258 97.7422C235.258 95.112 236.716 93.7969 239.633 93.7969C240.414 93.7969 241.143 93.875 241.82 94.0312V95.2031C241.143 95.0469 240.388 94.9688 239.555 94.9688C237.654 94.9688 236.703 95.8932 236.703 97.7422C236.703 99.7995 237.654 100.828 239.555 100.828C240.388 100.828 241.143 100.75 241.82 100.594V101.766ZM244.719 97.8672C244.719 99.8411 245.539 100.828 247.18 100.828C248.82 100.828 249.641 99.8411 249.641 97.8672C249.641 95.9349 248.82 94.9688 247.18 94.9688C245.539 94.9688 244.719 95.9349 244.719 97.8672ZM243.273 97.8984C243.273 95.1641 244.576 93.7969 247.18 93.7969C249.784 93.7969 251.086 95.1641 251.086 97.8984C251.086 100.628 249.784 101.992 247.18 101.992C244.586 101.992 243.284 100.628 243.273 97.8984ZM253.039 102V93.7969H254.016L254.258 94.8281C255.044 94.1406 255.901 93.7969 256.828 93.7969C258.016 93.7969 258.826 94.1719 259.258 94.9219C260.148 94.1719 261.052 93.7969 261.969 93.7969C263.854 93.7969 264.797 94.8359 264.797 96.9141V102H263.352V96.8359C263.352 95.612 262.836 95 261.805 95C261.034 95 260.312 95.3542 259.641 96.0625V102H258.195V96.8594C258.195 95.6198 257.685 95 256.664 95C255.852 95 255.125 95.3542 254.484 96.0625V102H253.039Z" fill="#828282"/>
<line x1="346.006" y1="117.885" x2="4.99441" y2="117.885" stroke="#BDBDBD"/>
<circle cx="149" cy="37" r="30" fill="#27AE60"/>
<path d="M140.039 42H138.18L142.329 32.2246H144.277L148.516 42H146.567L145.453 39.334H142.206L142.828 37.7617H144.797L143.259 34.0908L140.039 42ZM149.712 42V32.2246H151.592L154.907 39.6416L158.154 32.2246H159.966V42H158.291V35.1914L155.639 42H154.094L151.387 35.1914V42H149.712Z" fill="black"/>
<path d="M172.247 53.6074C171.994 53.3333 171.644 53.1713 171.247 53.1713H169.248V53.1464C169.248 52.8348 169.128 52.5358 168.923 52.3364C168.718 52.1246 168.441 52 168.14 52H164.528C164.215 52 163.938 52.1246 163.733 52.3364C163.528 52.5483 163.408 52.8348 163.408 53.1464V53.1713H161.421C161.024 53.1713 160.674 53.3333 160.421 53.6074C160.169 53.8691 160 54.2429 160 54.6416V60.8469C160 61.2581 160.157 61.6194 160.421 61.8811C160.674 62.1428 161.036 62.3172 161.421 62.3172H171.247C171.644 62.3172 171.994 62.1552 172.247 61.8811C172.499 61.6194 172.668 61.2456 172.668 60.8469V54.6416C172.668 54.2304 172.511 53.8691 172.247 53.6074ZM172.042 60.8469H172.03C172.03 61.0712 171.945 61.2705 171.801 61.4201C171.656 61.5696 171.464 61.6568 171.247 61.6568H161.421C161.204 61.6568 161.012 61.5696 160.867 61.4201C160.723 61.2705 160.638 61.0712 160.638 60.8469V54.6416C160.638 54.4173 160.723 54.218 160.867 54.0684C161.012 53.9189 161.204 53.8317 161.421 53.8317H163.745C163.926 53.8317 164.07 53.6822 164.07 53.4952V53.1339C164.07 52.9968 164.118 52.8722 164.203 52.785C164.287 52.6978 164.407 52.6479 164.54 52.6479H168.14C168.273 52.6479 168.393 52.6978 168.477 52.785C168.562 52.8722 168.61 52.9968 168.61 53.1339V53.4952C168.61 53.6822 168.754 53.8317 168.935 53.8317H171.259C171.476 53.8317 171.669 53.9189 171.813 54.0684C171.958 54.218 172.042 54.4173 172.042 54.6416V60.8469Z" fill="black"/>
<path d="M166.334 54.679C165.515 54.679 164.769 55.0278 164.239 55.5761C163.697 56.1368 163.372 56.8969 163.372 57.7442C163.372 58.5915 163.709 59.3641 164.239 59.9123C164.781 60.473 165.515 60.8095 166.334 60.8095C167.153 60.8095 167.899 60.4606 168.429 59.9123C168.971 59.3516 169.296 58.5915 169.296 57.7442C169.296 56.8969 168.959 56.1244 168.429 55.5761C167.899 55.0278 167.153 54.679 166.334 54.679ZM167.972 59.4513C167.55 59.8749 166.972 60.1491 166.334 60.1491C165.696 60.1491 165.118 59.8749 164.696 59.4513C164.275 59.0152 164.022 58.4171 164.022 57.7567C164.022 57.0963 164.287 56.4982 164.696 56.0621C165.118 55.6259 165.696 55.3643 166.334 55.3643C166.972 55.3643 167.55 55.6384 167.972 56.0621C168.393 56.4982 168.646 57.0963 168.646 57.7567C168.658 58.4171 168.393 59.0152 167.972 59.4513Z" fill="black"/>
<path d="M174.698 68.5307C175.024 68.5307 175.288 68.2573 175.288 67.9201C175.288 67.5829 175.024 67.3096 174.698 67.3096C174.373 67.3096 174.108 67.5829 174.108 67.9201C174.108 68.2573 174.373 68.5307 174.698 68.5307Z" fill="black"/>
<path d="M53.4102 181.658V180.496C54.4355 180.861 55.543 181.043 56.7324 181.043C58.4141 181.043 59.2549 180.428 59.2549 179.197C59.2549 178.149 58.6351 177.625 57.3955 177.625H56.1377C54.0915 177.625 53.0684 176.736 53.0684 174.959C53.0684 173.09 54.3786 172.156 56.999 172.156C58.1383 172.156 59.1979 172.293 60.1777 172.566V173.729C59.1979 173.364 58.1383 173.182 56.999 173.182C55.2217 173.182 54.333 173.774 54.333 174.959C54.333 176.007 54.9346 176.531 56.1377 176.531H57.3955C59.4782 176.531 60.5195 177.42 60.5195 179.197C60.5195 181.111 59.2572 182.068 56.7324 182.068C55.543 182.068 54.4355 181.932 53.4102 181.658ZM65.1885 174.822C67.2301 174.822 68.251 175.832 68.251 177.851C68.251 178.138 68.2305 178.445 68.1895 178.773H63.1514C63.1514 180.241 64.0081 180.975 65.7217 180.975C66.5374 180.975 67.262 180.883 67.8955 180.701V181.727C67.262 181.909 66.4919 182 65.585 182C63.1195 182 61.8867 180.776 61.8867 178.329C61.8867 175.991 62.9873 174.822 65.1885 174.822ZM63.1514 177.721H67.0342C67.0068 176.463 66.3916 175.834 65.1885 175.834C63.9124 175.834 63.2334 176.463 63.1514 177.721ZM78.1904 176.285C77.68 176.039 77.0967 175.916 76.4404 175.916C74.9958 175.916 74.2734 176.684 74.2734 178.22C74.2734 180.038 74.9958 180.947 76.4404 180.947C77.0967 180.947 77.68 180.858 78.1904 180.681V176.285ZM79.4551 181.569C78.5846 181.856 77.5114 182 76.2354 182C74.098 182 73.0293 180.756 73.0293 178.268C73.0293 175.971 74.1641 174.822 76.4336 174.822C77.0534 174.822 77.639 174.936 78.1904 175.164V172.225H79.4551V181.569ZM84.4658 174.822C86.5075 174.822 87.5283 175.832 87.5283 177.851C87.5283 178.138 87.5078 178.445 87.4668 178.773H82.4287C82.4287 180.241 83.2855 180.975 84.999 180.975C85.8148 180.975 86.5394 180.883 87.1729 180.701V181.727C86.5394 181.909 85.7692 182 84.8623 182C82.3968 182 81.1641 180.776 81.1641 178.329C81.1641 175.991 82.2646 174.822 84.4658 174.822ZM82.4287 177.721H86.3115C86.2842 176.463 85.6689 175.834 84.4658 175.834C83.1898 175.834 82.5107 176.463 82.4287 177.721ZM94.6309 181.795C94.0384 181.932 93.4004 182 92.7168 182C90.1647 182 88.8887 180.758 88.8887 178.274C88.8887 175.973 90.1647 174.822 92.7168 174.822C93.4004 174.822 94.0384 174.891 94.6309 175.027V176.053C94.0384 175.916 93.3776 175.848 92.6484 175.848C90.985 175.848 90.1533 176.657 90.1533 178.274C90.1533 180.075 90.985 180.975 92.6484 180.975C93.3776 180.975 94.0384 180.906 94.6309 180.77V181.795ZM97.167 178.384C97.167 180.111 97.8848 180.975 99.3203 180.975C100.756 180.975 101.474 180.111 101.474 178.384C101.474 176.693 100.756 175.848 99.3203 175.848C97.8848 175.848 97.167 176.693 97.167 178.384ZM95.9023 178.411C95.9023 176.019 97.0417 174.822 99.3203 174.822C101.599 174.822 102.738 176.019 102.738 178.411C102.738 180.799 101.599 181.993 99.3203 181.993C97.0508 181.993 95.9115 180.799 95.9023 178.411ZM104.447 182V174.822H105.302L105.527 175.738C106.261 175.128 107.068 174.822 107.947 174.822C109.738 174.822 110.634 175.713 110.634 177.495V182H109.369V177.475C109.369 176.408 108.838 175.875 107.776 175.875C107.052 175.875 106.364 176.178 105.712 176.784V182H104.447ZM112.691 182V174.822H113.546L113.771 175.738C114.505 175.128 115.312 174.822 116.191 174.822C117.982 174.822 118.878 175.713 118.878 177.495V182H117.613V177.475C117.613 176.408 117.082 175.875 116.021 175.875C115.296 175.875 114.608 176.178 113.956 176.784V182H112.691ZM123.896 174.822C125.937 174.822 126.958 175.832 126.958 177.851C126.958 178.138 126.938 178.445 126.896 178.773H121.858C121.858 180.241 122.715 180.975 124.429 180.975C125.244 180.975 125.969 180.883 126.603 180.701V181.727C125.969 181.909 125.199 182 124.292 182C121.826 182 120.594 180.776 120.594 178.329C120.594 175.991 121.694 174.822 123.896 174.822ZM121.858 177.721H125.741C125.714 176.463 125.099 175.834 123.896 175.834C122.619 175.834 121.94 176.463 121.858 177.721ZM134.061 181.795C133.468 181.932 132.83 182 132.146 182C129.594 182 128.318 180.758 128.318 178.274C128.318 175.973 129.594 174.822 132.146 174.822C132.83 174.822 133.468 174.891 134.061 175.027V176.053C133.468 175.916 132.807 175.848 132.078 175.848C130.415 175.848 129.583 176.657 129.583 178.274C129.583 180.075 130.415 180.975 132.078 180.975C132.807 180.975 133.468 180.906 134.061 180.77V181.795ZM135.674 173.66H136.467L136.74 174.822H138.682V175.848H136.938V179.97C136.938 180.64 137.228 180.975 137.807 180.975H138.682V182H137.479C136.275 182 135.674 181.355 135.674 180.065V173.66ZM143.255 174.822C145.297 174.822 146.317 175.832 146.317 177.851C146.317 178.138 146.297 178.445 146.256 178.773H141.218C141.218 180.241 142.075 180.975 143.788 180.975C144.604 180.975 145.328 180.883 145.962 180.701V181.727C145.328 181.909 144.558 182 143.651 182C141.186 182 139.953 180.776 139.953 178.329C139.953 175.991 141.054 174.822 143.255 174.822ZM141.218 177.721H145.101C145.073 176.463 144.458 175.834 143.255 175.834C141.979 175.834 141.3 176.463 141.218 177.721ZM148.02 182V174.822H148.874L149.1 175.738C149.729 175.128 150.485 174.822 151.369 174.822V175.875C150.512 175.875 149.817 176.178 149.284 176.784V182H148.02Z" fill="#333333"/>
<g clip-path="url(#clip1)">
<path d="M38.3479 179.652H25.7391C25.3791 179.652 25.0869 179.36 25.0869 179C25.0869 178.64 25.3791 178.348 25.7391 178.348H38.3479C38.7079 178.348 39.0001 178.64 39.0001 179C39.0001 179.36 38.7079 179.652 38.3479 179.652Z" fill="black"/>
<path d="M29.2174 183.13C29.0504 183.13 28.8835 183.067 28.7565 182.939L25.2783 179.461C25.0235 179.206 25.0235 178.793 25.2783 178.538L28.7565 175.06C29.0112 174.805 29.4243 174.805 29.6792 175.06C29.9339 175.315 29.9339 175.728 29.6792 175.983L26.6618 179L29.6792 182.017C29.9339 182.272 29.9339 182.685 29.6792 182.94C29.5513 183.067 29.3843 183.13 29.2174 183.13Z" fill="black"/>
<path d="M28.5653 188.565C23.2914 188.565 19 184.274 19 179C19 173.726 23.2914 169.435 28.5653 169.435C32.5226 169.435 36.0165 171.816 37.4679 175.501C37.6 175.836 37.4347 176.214 37.1 176.347C36.7652 176.477 36.3869 176.315 36.2539 175.978C35.0009 172.796 31.9827 170.739 28.5653 170.739C24.0104 170.739 20.3043 174.445 20.3043 179C20.3043 183.555 24.0104 187.261 28.5653 187.261C31.9827 187.261 35.0009 185.204 36.2539 182.023C36.3861 181.686 36.7644 181.523 37.1 181.654C37.4347 181.786 37.6 182.165 37.4679 182.5C36.0165 186.184 32.5226 188.565 28.5653 188.565Z" fill="black"/>
</g>
<path d="M53.5566 144V134.225H55.1631L58.752 142.38L62.2725 134.225H63.8105V144H62.6826V135.981L59.21 144H58.2119L54.6846 135.981V144H53.5566ZM68.958 136.822C70.9997 136.822 72.0205 137.832 72.0205 139.851C72.0205 140.138 72 140.445 71.959 140.773H66.9209C66.9209 142.241 67.7777 142.975 69.4912 142.975C70.307 142.975 71.0316 142.883 71.665 142.701V143.727C71.0316 143.909 70.2614 144 69.3545 144C66.889 144 65.6562 142.776 65.6562 140.329C65.6562 137.991 66.7568 136.822 68.958 136.822ZM66.9209 139.721H70.8037C70.7764 138.463 70.1611 137.834 68.958 137.834C67.682 137.834 67.0029 138.463 66.9209 139.721ZM73.6543 143.658V142.564C74.4974 142.838 75.3496 142.975 76.2109 142.975C77.3548 142.975 77.9268 142.633 77.9268 141.949C77.9268 141.311 77.528 140.992 76.7305 140.992H75.7051C74.1556 140.992 73.3809 140.286 73.3809 138.873C73.3809 137.506 74.3766 136.822 76.3682 136.822C77.2249 136.822 78.0749 136.936 78.918 137.164V138.258C78.0749 137.984 77.2249 137.848 76.3682 137.848C75.1742 137.848 74.5771 138.189 74.5771 138.873C74.5771 139.511 74.9531 139.83 75.7051 139.83H76.7305C78.3711 139.83 79.1914 140.536 79.1914 141.949C79.1914 143.316 78.1979 144 76.2109 144C75.3496 144 74.4974 143.886 73.6543 143.658ZM84.3184 144V136.822H85.1729L85.3984 137.738C86.0273 137.128 86.7839 136.822 87.668 136.822V137.875C86.8112 137.875 86.1162 138.178 85.583 138.784V144H84.3184ZM91.8994 136.822C93.9411 136.822 94.9619 137.832 94.9619 139.851C94.9619 140.138 94.9414 140.445 94.9004 140.773H89.8623C89.8623 142.241 90.7191 142.975 92.4326 142.975C93.2484 142.975 93.973 142.883 94.6064 142.701V143.727C93.973 143.909 93.2028 144 92.2959 144C89.8304 144 88.5977 142.776 88.5977 140.329C88.5977 137.991 89.6982 136.822 91.8994 136.822ZM89.8623 139.721H93.7451C93.7178 138.463 93.1025 137.834 91.8994 137.834C90.6234 137.834 89.9443 138.463 89.8623 139.721ZM96.5957 143.658V142.564C97.4388 142.838 98.291 142.975 99.1523 142.975C100.296 142.975 100.868 142.633 100.868 141.949C100.868 141.311 100.469 140.992 99.6719 140.992H98.6465C97.097 140.992 96.3223 140.286 96.3223 138.873C96.3223 137.506 97.318 136.822 99.3096 136.822C100.166 136.822 101.016 136.936 101.859 137.164V138.258C101.016 137.984 100.166 137.848 99.3096 137.848C98.1156 137.848 97.5186 138.189 97.5186 138.873C97.5186 139.511 97.8945 139.83 98.6465 139.83H99.6719C101.312 139.83 102.133 140.536 102.133 141.949C102.133 143.316 101.139 144 99.1523 144C98.291 144 97.4388 143.886 96.5957 143.658ZM106.802 136.822C108.843 136.822 109.864 137.832 109.864 139.851C109.864 140.138 109.844 140.445 109.803 140.773H104.765C104.765 142.241 105.621 142.975 107.335 142.975C108.151 142.975 108.875 142.883 109.509 142.701V143.727C108.875 143.909 108.105 144 107.198 144C104.733 144 103.5 142.776 103.5 140.329C103.5 137.991 104.601 136.822 106.802 136.822ZM104.765 139.721H108.647C108.62 138.463 108.005 137.834 106.802 137.834C105.526 137.834 104.847 138.463 104.765 139.721ZM111.566 144V136.822H112.421L112.646 137.738C113.275 137.128 114.032 136.822 114.916 136.822V137.875C114.059 137.875 113.364 138.178 112.831 138.784V144H111.566ZM115.162 136.822H116.529L118.587 142.448L120.631 136.822H121.998L119.079 144H117.903L115.162 136.822ZM122.682 141.833C122.682 140.361 123.652 139.625 125.594 139.625C126.218 139.625 126.842 139.671 127.467 139.762V139.085C127.467 138.26 126.822 137.848 125.532 137.848C124.794 137.848 124.037 137.962 123.263 138.189V137.164C124.037 136.936 124.794 136.822 125.532 136.822C127.665 136.822 128.731 137.565 128.731 139.051V144H128.021L127.583 143.289C126.868 143.763 126.088 144 125.245 144C123.536 144 122.682 143.278 122.682 141.833ZM125.594 140.65C124.495 140.65 123.946 141.038 123.946 141.812C123.946 142.587 124.379 142.975 125.245 142.975C126.12 142.975 126.861 142.742 127.467 142.277V140.787C126.842 140.696 126.218 140.65 125.594 140.65ZM130.789 135.66H131.582L131.855 136.822H133.797V137.848H132.054V141.97C132.054 142.64 132.343 142.975 132.922 142.975H133.797V144H132.594C131.391 144 130.789 143.355 130.789 142.065V135.66ZM136.812 136.822V144H135.547V136.822H136.812ZM136.812 134.225V135.421H135.547V134.225H136.812ZM139.929 140.384C139.929 142.111 140.646 142.975 142.082 142.975C143.518 142.975 144.235 142.111 144.235 140.384C144.235 138.693 143.518 137.848 142.082 137.848C140.646 137.848 139.929 138.693 139.929 140.384ZM138.664 140.411C138.664 138.019 139.803 136.822 142.082 136.822C144.361 136.822 145.5 138.019 145.5 140.411C145.5 142.799 144.361 143.993 142.082 143.993C139.812 143.993 138.673 142.799 138.664 140.411ZM147.209 144V136.822H148.063L148.289 137.738C149.023 137.128 149.829 136.822 150.709 136.822C152.5 136.822 153.396 137.713 153.396 139.495V144H152.131V139.475C152.131 138.408 151.6 137.875 150.538 137.875C149.813 137.875 149.125 138.178 148.474 138.784V144H147.209ZM155.385 143.658V142.564C156.228 142.838 157.08 142.975 157.941 142.975C159.085 142.975 159.657 142.633 159.657 141.949C159.657 141.311 159.258 140.992 158.461 140.992H157.436C155.886 140.992 155.111 140.286 155.111 138.873C155.111 137.506 156.107 136.822 158.099 136.822C158.955 136.822 159.805 136.936 160.648 137.164V138.258C159.805 137.984 158.955 137.848 158.099 137.848C156.905 137.848 156.308 138.189 156.308 138.873C156.308 139.511 156.684 139.83 157.436 139.83H158.461C160.102 139.83 160.922 140.536 160.922 141.949C160.922 143.316 159.928 144 157.941 144C157.08 144 156.228 143.886 155.385 143.658Z" fill="#333333"/>
<path d="M35.625 128.938H26.25C25.6286 128.938 25.0329 129.185 24.5935 129.625C24.1541 130.064 23.9069 130.66 23.9062 131.281V132.688C22.663 132.688 21.4708 133.181 20.5917 134.06C19.7126 134.94 19.2188 136.132 19.2188 137.375C19.2188 138.618 19.7126 139.81 20.5917 140.69C21.4708 141.569 22.663 142.062 23.9062 142.062V150.969C23.9069 151.59 24.1541 152.186 24.5935 152.625C25.0329 153.065 25.6286 153.312 26.25 153.312H32.8018L32.8125 153.331V156.594C32.8125 156.718 32.8619 156.837 32.9498 156.925C33.0377 157.013 33.1569 157.062 33.2812 157.062H40.3125C40.4368 157.062 40.556 157.013 40.644 156.925C40.7319 156.837 40.7812 156.718 40.7812 156.594V153.412L41.6906 150.912C41.7092 150.86 41.7187 150.806 41.7188 150.751V144.875C41.7188 144.65 41.6648 144.428 41.5614 144.229C41.458 144.029 41.3081 143.857 41.1244 143.727C40.9407 143.597 40.7286 143.513 40.5057 143.482C40.2829 143.451 40.0559 143.474 39.8438 143.549V143.469C39.8439 143.244 39.79 143.022 39.6867 142.822C39.5833 142.622 39.4334 142.45 39.2497 142.32C39.0659 142.19 38.8537 142.106 38.6308 142.076C38.4079 142.045 38.1808 142.068 37.9688 142.143V131.281C37.9681 130.66 37.7209 130.064 37.2815 129.625C36.8421 129.185 36.2464 128.938 35.625 128.938ZM26.25 129.875H35.625C35.9157 129.875 36.1991 129.966 36.4365 130.134C36.6738 130.301 36.8534 130.539 36.9506 130.812H24.9244C25.0216 130.539 25.2012 130.301 25.4385 130.134C25.6759 129.966 25.9593 129.875 26.25 129.875ZM24.8438 131.75H37.0312V141.675C36.7281 141.567 36.3971 141.567 36.0938 141.674V135.031C36.0938 134.907 36.0444 134.788 35.9565 134.7C35.8685 134.612 35.7493 134.562 35.625 134.562H27.6537C26.9657 133.646 25.9663 133.013 24.8438 132.782V131.75ZM33.75 136.438H31.875C31.7507 136.438 31.6315 136.487 31.5435 136.575C31.4556 136.663 31.4062 136.782 31.4062 136.906V138.781C31.4062 138.906 31.4556 139.025 31.5435 139.113C31.6315 139.201 31.7507 139.25 31.875 139.25H33.3619C33.3085 139.401 33.2812 139.559 33.2812 139.719V140.188H31.875C31.7507 140.188 31.6315 140.237 31.5435 140.325C31.4556 140.413 31.4062 140.532 31.4062 140.656V142.531C31.4062 142.656 31.4556 142.775 31.5435 142.863C31.6315 142.951 31.7507 143 31.875 143H33.2812V145.167C33.1203 145.197 32.963 145.244 32.8125 145.308V144.406C32.8125 144.282 32.7631 144.163 32.6752 144.075C32.5873 143.987 32.4681 143.938 32.3438 143.938H29.5312C29.4069 143.938 29.2877 143.987 29.1998 144.075C29.1119 144.163 29.0625 144.282 29.0625 144.406V146.75H26.7188V141.122C27.3654 140.636 27.8759 139.991 28.2012 139.25H30C30.1243 139.25 30.2435 139.201 30.3315 139.113C30.4194 139.025 30.4688 138.906 30.4688 138.781V136.906C30.4688 136.782 30.4194 136.663 30.3315 136.575C30.2435 136.487 30.1243 136.438 30 136.438H28.4994C28.4335 136.115 28.3335 135.801 28.2012 135.5H35.1562V138.393C34.853 138.286 34.522 138.286 34.2188 138.393V136.906C34.2188 136.782 34.1694 136.663 34.0815 136.575C33.9935 136.487 33.8743 136.438 33.75 136.438ZM33.2812 137.375V138.312H32.3438V137.375H33.2812ZM33.2812 141.125V142.062H32.3438V141.125H33.2812ZM31.875 144.875V146.113C31.749 146.312 31.6494 146.526 31.5788 146.75H30V144.875H31.875ZM28.5938 138.312V137.375H29.5312V138.312H28.5938ZM23.9062 141.125C23.1646 141.125 22.4395 140.905 21.8229 140.493C21.2062 140.081 20.7255 139.495 20.4417 138.81C20.1579 138.125 20.0836 137.371 20.2283 136.643C20.373 135.916 20.7302 135.248 21.2546 134.723C21.779 134.199 22.4472 133.842 23.1747 133.697C23.9021 133.552 24.6561 133.627 25.3413 133.91C26.0265 134.194 26.6122 134.675 27.0243 135.292C27.4363 135.908 27.6562 136.633 27.6562 137.375C27.6551 138.369 27.2597 139.322 26.5567 140.025C25.8536 140.728 24.9005 141.124 23.9062 141.125ZM24.8438 141.968C25.1659 141.902 25.4802 141.802 25.7812 141.67V147.219C25.7812 147.343 25.8306 147.462 25.9185 147.55C26.0065 147.638 26.1257 147.688 26.25 147.688H31.4134C31.4089 147.77 31.4062 147.853 31.4062 147.939V150.5H24.8438V141.968ZM26.25 152.375C25.9593 152.375 25.6759 152.284 25.4385 152.116C25.2012 151.949 25.0216 151.711 24.9244 151.438H31.7279L32.2648 152.375H26.25ZM38.4375 143C38.5618 143 38.6809 143.05 38.7688 143.137C38.8567 143.225 38.9061 143.344 38.9062 143.469V147.688C38.9062 147.812 38.9556 147.931 39.0435 148.019C39.1315 148.107 39.2507 148.156 39.375 148.156C39.4993 148.156 39.6185 148.107 39.7065 148.019C39.7944 147.931 39.8438 147.812 39.8438 147.688V144.875C39.8438 144.751 39.8931 144.631 39.981 144.544C40.069 144.456 40.1882 144.406 40.3125 144.406C40.4368 144.406 40.556 144.456 40.644 144.544C40.7319 144.631 40.7812 144.751 40.7812 144.875V150.669L39.8719 153.169C39.8533 153.22 39.8438 153.275 39.8438 153.329V156.125H33.75V153.206C33.75 153.125 33.7286 153.044 33.688 152.974L32.3438 150.626V147.939C32.3438 147.454 32.4458 146.417 33.2812 146.136V147.688C33.2812 147.812 33.3306 147.931 33.4185 148.019C33.5065 148.107 33.6257 148.156 33.75 148.156C33.8743 148.156 33.9935 148.107 34.0815 148.019C34.1694 147.931 34.2188 147.812 34.2188 147.688V145.812C34.2186 145.776 34.2142 145.739 34.2056 145.704C34.2142 145.668 34.2186 145.632 34.2188 145.595V139.719C34.2188 139.594 34.2681 139.475 34.356 139.387C34.444 139.299 34.5632 139.25 34.6875 139.25C34.8118 139.25 34.931 139.299 35.019 139.387C35.1069 139.475 35.1562 139.594 35.1562 139.719V146.108C35.1562 146.233 35.2056 146.352 35.2935 146.44C35.3815 146.528 35.5007 146.577 35.625 146.577C35.7493 146.577 35.8685 146.528 35.9565 146.44C36.0444 146.352 36.0938 146.233 36.0938 146.108V143C36.0938 142.876 36.1431 142.756 36.231 142.669C36.319 142.581 36.4382 142.531 36.5625 142.531C36.6868 142.531 36.806 142.581 36.894 142.669C36.9819 142.756 37.0312 142.876 37.0312 143V146.75C37.0312 146.874 37.0806 146.994 37.1685 147.081C37.2565 147.169 37.3757 147.219 37.5 147.219C37.6243 147.219 37.7435 147.169 37.8315 147.081C37.9194 146.994 37.9688 146.874 37.9688 146.75V143.469C37.9689 143.344 38.0183 143.225 38.1062 143.137C38.1941 143.05 38.3132 143 38.4375 143Z" fill="black"/>
<path d="M30 140.188H28.125C28.0007 140.188 27.8815 140.237 27.7935 140.325C27.7056 140.413 27.6562 140.532 27.6562 140.656V142.531C27.6562 142.656 27.7056 142.775 27.7935 142.863C27.8815 142.951 28.0007 143 28.125 143H30C30.1243 143 30.2435 142.951 30.3315 142.863C30.4194 142.775 30.4688 142.656 30.4688 142.531V140.656C30.4688 140.532 30.4194 140.413 30.3315 140.325C30.2435 140.237 30.1243 140.188 30 140.188ZM29.5312 142.062H28.5938V141.125H29.5312V142.062Z" fill="black"/>
<path d="M25.4498 135.637L22.9688 138.118L22.3627 137.512C22.2748 137.424 22.1556 137.375 22.0313 137.375C21.9069 137.375 21.7877 137.424 21.6998 137.512C21.6119 137.6 21.5625 137.719 21.5625 137.844C21.5625 137.968 21.6119 138.087 21.6998 138.175L22.6373 139.113C22.6808 139.156 22.7325 139.191 22.7894 139.214C22.8462 139.238 22.9072 139.25 22.9688 139.25C23.0303 139.25 23.0913 139.238 23.1482 139.214C23.205 139.191 23.2567 139.156 23.3002 139.113L26.1127 136.3C26.2006 136.212 26.25 136.093 26.25 135.969C26.25 135.844 26.2006 135.725 26.1127 135.637C26.0248 135.549 25.9056 135.5 25.7813 135.5C25.6569 135.5 25.5377 135.549 25.4498 135.637Z" fill="black"/>
<path d="M30 133.625H35.625C35.7493 133.625 35.8685 133.576 35.9565 133.488C36.0444 133.4 36.0938 133.281 36.0938 133.156C36.0938 133.032 36.0444 132.913 35.9565 132.825C35.8685 132.737 35.7493 132.688 35.625 132.688H30C29.8757 132.688 29.7565 132.737 29.6685 132.825C29.5806 132.913 29.5312 133.032 29.5312 133.156C29.5312 133.281 29.5806 133.4 29.6685 133.488C29.7565 133.576 29.8757 133.625 30 133.625Z" fill="black"/>
<path d="M28.125 133.625C28.3839 133.625 28.5938 133.415 28.5938 133.156C28.5938 132.897 28.3839 132.688 28.125 132.688C27.8661 132.688 27.6562 132.897 27.6562 133.156C27.6562 133.415 27.8661 133.625 28.125 133.625Z" fill="black"/>
<path d="M28.125 148.625H26.25C26.1257 148.625 26.0065 148.674 25.9185 148.762C25.8306 148.85 25.7812 148.969 25.7812 149.094C25.7812 149.218 25.8306 149.337 25.9185 149.425C26.0065 149.513 26.1257 149.562 26.25 149.562H28.125C28.2493 149.562 28.3685 149.513 28.4565 149.425C28.5444 149.337 28.5938 149.218 28.5938 149.094C28.5938 148.969 28.5444 148.85 28.4565 148.762C28.3685 148.674 28.2493 148.625 28.125 148.625Z" fill="black"/>
<rect x="-2.5" y="197.5" width="300" height="56" fill="#F2F2F2" stroke="#BDBDBD"/>
<path d="M53.0869 225.658V224.496C54.1123 224.861 55.2197 225.043 56.4092 225.043C58.0908 225.043 58.9316 224.428 58.9316 223.197C58.9316 222.149 58.3118 221.625 57.0723 221.625H55.8145C53.7682 221.625 52.7451 220.736 52.7451 218.959C52.7451 217.09 54.0553 216.156 56.6758 216.156C57.8151 216.156 58.8747 216.293 59.8545 216.566V217.729C58.8747 217.364 57.8151 217.182 56.6758 217.182C54.8984 217.182 54.0098 217.774 54.0098 218.959C54.0098 220.007 54.6113 220.531 55.8145 220.531H57.0723C59.1549 220.531 60.1963 221.42 60.1963 223.197C60.1963 225.111 58.9339 226.068 56.4092 226.068C55.2197 226.068 54.1123 225.932 53.0869 225.658ZM64.8652 218.822C66.9069 218.822 67.9277 219.832 67.9277 221.851C67.9277 222.138 67.9072 222.445 67.8662 222.773H62.8281C62.8281 224.241 63.6849 224.975 65.3984 224.975C66.2142 224.975 66.9388 224.883 67.5723 224.701V225.727C66.9388 225.909 66.1686 226 65.2617 226C62.7962 226 61.5635 224.776 61.5635 222.329C61.5635 219.991 62.6641 218.822 64.8652 218.822ZM62.8281 221.721H66.7109C66.6836 220.463 66.0684 219.834 64.8652 219.834C63.5892 219.834 62.9102 220.463 62.8281 221.721ZM78.4482 225.795C77.8558 225.932 77.2178 226 76.5342 226C73.9821 226 72.7061 224.758 72.7061 222.274C72.7061 219.973 73.9821 218.822 76.5342 218.822C77.2178 218.822 77.8558 218.891 78.4482 219.027V220.053C77.8558 219.916 77.195 219.848 76.4658 219.848C74.8024 219.848 73.9707 220.657 73.9707 222.274C73.9707 224.075 74.8024 224.975 76.4658 224.975C77.195 224.975 77.8558 224.906 78.4482 224.77V225.795ZM80.9844 222.384C80.9844 224.111 81.7021 224.975 83.1377 224.975C84.5732 224.975 85.291 224.111 85.291 222.384C85.291 220.693 84.5732 219.848 83.1377 219.848C81.7021 219.848 80.9844 220.693 80.9844 222.384ZM79.7197 222.411C79.7197 220.019 80.859 218.822 83.1377 218.822C85.4163 218.822 86.5557 220.019 86.5557 222.411C86.5557 224.799 85.4163 225.993 83.1377 225.993C80.8682 225.993 79.7288 224.799 79.7197 222.411ZM88.2646 226V218.822H89.1191L89.3447 219.738C90.0785 219.128 90.8851 218.822 91.7646 218.822C93.5557 218.822 94.4512 219.713 94.4512 221.495V226H93.1865V221.475C93.1865 220.408 92.6556 219.875 91.5938 219.875C90.8691 219.875 90.181 220.178 89.5293 220.784V226H88.2646ZM96.5088 226V218.822H97.3633L97.5889 219.738C98.3226 219.128 99.1292 218.822 100.009 218.822C101.8 218.822 102.695 219.713 102.695 221.495V226H101.431V221.475C101.431 220.408 100.9 219.875 99.8379 219.875C99.1133 219.875 98.4251 220.178 97.7734 220.784V226H96.5088ZM107.713 218.822C109.755 218.822 110.775 219.832 110.775 221.851C110.775 222.138 110.755 222.445 110.714 222.773H105.676C105.676 224.241 106.533 224.975 108.246 224.975C109.062 224.975 109.786 224.883 110.42 224.701V225.727C109.786 225.909 109.016 226 108.109 226C105.644 226 104.411 224.776 104.411 222.329C104.411 219.991 105.512 218.822 107.713 218.822ZM105.676 221.721H109.559C109.531 220.463 108.916 219.834 107.713 219.834C106.437 219.834 105.758 220.463 105.676 221.721ZM117.878 225.795C117.285 225.932 116.647 226 115.964 226C113.412 226 112.136 224.758 112.136 222.274C112.136 219.973 113.412 218.822 115.964 218.822C116.647 218.822 117.285 218.891 117.878 219.027V220.053C117.285 219.916 116.625 219.848 115.896 219.848C114.232 219.848 113.4 220.657 113.4 222.274C113.4 224.075 114.232 224.975 115.896 224.975C116.625 224.975 117.285 224.906 117.878 224.77V225.795ZM119.491 217.66H120.284L120.558 218.822H122.499V219.848H120.756V223.97C120.756 224.64 121.045 224.975 121.624 224.975H122.499V226H121.296C120.093 226 119.491 225.355 119.491 224.065V217.66ZM127.072 218.822C129.114 218.822 130.135 219.832 130.135 221.851C130.135 222.138 130.114 222.445 130.073 222.773H125.035C125.035 224.241 125.892 224.975 127.605 224.975C128.421 224.975 129.146 224.883 129.779 224.701V225.727C129.146 225.909 128.376 226 127.469 226C125.003 226 123.771 224.776 123.771 222.329C123.771 219.991 124.871 218.822 127.072 218.822ZM125.035 221.721H128.918C128.891 220.463 128.275 219.834 127.072 219.834C125.796 219.834 125.117 220.463 125.035 221.721ZM131.837 226V218.822H132.691L132.917 219.738C133.546 219.128 134.302 218.822 135.187 218.822V219.875C134.33 219.875 133.635 220.178 133.102 220.784V226H131.837ZM139.534 223.833C139.534 222.361 140.505 221.625 142.446 221.625C143.071 221.625 143.695 221.671 144.319 221.762V221.085C144.319 220.26 143.674 219.848 142.385 219.848C141.646 219.848 140.89 219.962 140.115 220.189V219.164C140.89 218.936 141.646 218.822 142.385 218.822C144.518 218.822 145.584 219.565 145.584 221.051V226H144.873L144.436 225.289C143.72 225.763 142.941 226 142.098 226C140.389 226 139.534 225.278 139.534 223.833ZM142.446 222.65C141.348 222.65 140.799 223.038 140.799 223.812C140.799 224.587 141.232 224.975 142.098 224.975C142.973 224.975 143.713 224.742 144.319 224.277V222.787C143.695 222.696 143.071 222.65 142.446 222.65ZM146.616 218.822H147.983L150.041 224.448L152.085 218.822H153.452L150.533 226H149.357L146.616 218.822ZM157.438 218.822C159.479 218.822 160.5 219.832 160.5 221.851C160.5 222.138 160.479 222.445 160.438 222.773H155.4C155.4 224.241 156.257 224.975 157.971 224.975C158.786 224.975 159.511 224.883 160.145 224.701V225.727C159.511 225.909 158.741 226 157.834 226C155.368 226 154.136 224.776 154.136 222.329C154.136 219.991 155.236 218.822 157.438 218.822ZM155.4 221.721H159.283C159.256 220.463 158.641 219.834 157.438 219.834C156.161 219.834 155.482 220.463 155.4 221.721ZM167.603 225.795C167.01 225.932 166.372 226 165.688 226C163.136 226 161.86 224.758 161.86 222.274C161.86 219.973 163.136 218.822 165.688 218.822C166.372 218.822 167.01 218.891 167.603 219.027V220.053C167.01 219.916 166.349 219.848 165.62 219.848C163.957 219.848 163.125 220.657 163.125 222.274C163.125 224.075 163.957 224.975 165.62 224.975C166.349 224.975 167.01 224.906 167.603 224.77V225.795ZM178.82 218.822V226H177.952L177.733 225.084C176.863 225.695 175.988 226 175.108 226C173.459 226 172.634 225.109 172.634 223.327V218.822H173.898V223.348C173.898 224.414 174.427 224.947 175.484 224.947C176.209 224.947 176.899 224.644 177.556 224.038V218.822H178.82ZM180.878 226V218.822H181.732L181.958 219.738C182.692 219.128 183.498 218.822 184.378 218.822C186.169 218.822 187.064 219.713 187.064 221.495V226H185.8V221.475C185.8 220.408 185.269 219.875 184.207 219.875C183.482 219.875 182.794 220.178 182.143 220.784V226H180.878ZM192.198 223.833C192.198 222.361 193.169 221.625 195.11 221.625C195.735 221.625 196.359 221.671 196.983 221.762V221.085C196.983 220.26 196.339 219.848 195.049 219.848C194.311 219.848 193.554 219.962 192.779 220.189V219.164C193.554 218.936 194.311 218.822 195.049 218.822C197.182 218.822 198.248 219.565 198.248 221.051V226H197.537L197.1 225.289C196.384 225.763 195.605 226 194.762 226C193.053 226 192.198 225.278 192.198 223.833ZM195.11 222.65C194.012 222.65 193.463 223.038 193.463 223.812C193.463 224.587 193.896 224.975 194.762 224.975C195.637 224.975 196.377 224.742 196.983 224.277V222.787C196.359 222.696 195.735 222.65 195.11 222.65ZM206.492 218.822V226H205.624L205.405 225.084C204.535 225.695 203.66 226 202.78 226C201.131 226 200.306 225.109 200.306 223.327V218.822H201.57V223.348C201.57 224.414 202.099 224.947 203.156 224.947C203.881 224.947 204.571 224.644 205.228 224.038V218.822H206.492ZM208.55 217.66H209.343L209.616 218.822H211.558V219.848H209.814V223.97C209.814 224.64 210.104 224.975 210.683 224.975H211.558V226H210.354C209.151 226 208.55 225.355 208.55 224.065V217.66ZM213.171 226V218.822H214.025L214.251 219.738C214.88 219.128 215.636 218.822 216.521 218.822V219.875C215.664 219.875 214.969 220.178 214.436 220.784V226H213.171ZM220.752 218.822C222.794 218.822 223.814 219.832 223.814 221.851C223.814 222.138 223.794 222.445 223.753 222.773H218.715C218.715 224.241 219.572 224.975 221.285 224.975C222.101 224.975 222.826 224.883 223.459 224.701V225.727C222.826 225.909 222.055 226 221.148 226C218.683 226 217.45 224.776 217.45 222.329C217.45 219.991 218.551 218.822 220.752 218.822ZM218.715 221.721H222.598C222.57 220.463 221.955 219.834 220.752 219.834C219.476 219.834 218.797 220.463 218.715 221.721ZM234.335 225.795C233.743 225.932 233.104 226 232.421 226C229.869 226 228.593 224.758 228.593 222.274C228.593 219.973 229.869 218.822 232.421 218.822C233.104 218.822 233.743 218.891 234.335 219.027V220.053C233.743 219.916 233.082 219.848 232.353 219.848C230.689 219.848 229.857 220.657 229.857 222.274C229.857 224.075 230.689 224.975 232.353 224.975C233.082 224.975 233.743 224.906 234.335 224.77V225.795ZM236.871 222.384C236.871 224.111 237.589 224.975 239.024 224.975C240.46 224.975 241.178 224.111 241.178 222.384C241.178 220.693 240.46 219.848 239.024 219.848C237.589 219.848 236.871 220.693 236.871 222.384ZM235.606 222.411C235.606 220.019 236.746 218.822 239.024 218.822C241.303 218.822 242.442 220.019 242.442 222.411C242.442 224.799 241.303 225.993 239.024 225.993C236.755 225.993 235.616 224.799 235.606 222.411ZM244.151 226V218.822H245.006L245.218 219.725C245.906 219.123 246.656 218.822 247.467 218.822C248.506 218.822 249.215 219.15 249.593 219.807C250.372 219.15 251.163 218.822 251.965 218.822C253.615 218.822 254.439 219.731 254.439 221.55V226H253.175V221.481C253.175 220.41 252.724 219.875 251.821 219.875C251.147 219.875 250.516 220.185 249.928 220.805V226H248.663V221.502C248.663 220.417 248.216 219.875 247.323 219.875C246.612 219.875 245.977 220.185 245.416 220.805V226H244.151ZM257.762 224.537C258.258 224.783 258.812 224.906 259.423 224.906C260.913 224.906 261.658 224.011 261.658 222.22C261.658 220.657 260.918 219.875 259.437 219.875C258.799 219.875 258.24 219.93 257.762 220.039V224.537ZM256.497 219.116C257.45 218.92 258.434 218.822 259.45 218.822C261.752 218.822 262.902 219.959 262.902 222.233C262.902 224.744 261.745 226 259.43 226C258.855 226 258.299 225.886 257.762 225.658V228.598H256.497V219.116ZM264.618 217.66H265.411L265.685 218.822H267.626V219.848H265.883V223.97C265.883 224.64 266.172 224.975 266.751 224.975H267.626V226H266.423C265.22 226 264.618 225.355 264.618 224.065V217.66ZM272.199 218.822C274.241 218.822 275.262 219.832 275.262 221.851C275.262 222.138 275.241 222.445 275.2 222.773H270.162C270.162 224.241 271.019 224.975 272.732 224.975C273.548 224.975 274.273 224.883 274.906 224.701V225.727C274.273 225.909 273.503 226 272.596 226C270.13 226 268.897 224.776 268.897 222.329C268.897 219.991 269.998 218.822 272.199 218.822ZM270.162 221.721H274.045C274.018 220.463 273.402 219.834 272.199 219.834C270.923 219.834 270.244 220.463 270.162 221.721Z" fill="black"/>
<g clip-path="url(#clip2)">
<path d="M28.4762 225.435C27.8649 225.009 27.2116 224.661 26.5284 224.396C27.4373 223.57 28.0402 222.413 28.1451 221.117C29.5233 219.774 31.33 219.038 33.2667 219.038C34.7786 219.038 36.2303 219.493 37.4651 220.354C37.9077 220.663 38.5161 220.555 38.8247 220.112C39.1331 219.67 39.0248 219.061 38.5825 218.753C37.9712 218.326 37.3177 217.979 36.6345 217.713C37.6374 216.802 38.268 215.487 38.268 214.029C38.268 211.283 36.0341 209.049 33.288 209.049C30.5422 209.049 28.3083 211.283 28.3083 214.029C28.3083 215.482 28.9338 216.791 29.9298 217.702C29.7934 217.755 29.6578 217.81 29.5235 217.869C28.9124 218.138 28.3379 218.469 27.8037 218.857C27.0668 217.027 25.273 215.731 23.182 215.731C20.4361 215.731 18.2021 217.965 18.2021 220.711C18.2021 222.16 18.824 223.466 19.8147 224.377C17.166 225.369 15.0183 227.501 14.144 230.219C13.8541 231.12 14.0076 232.076 14.5653 232.842C15.123 233.607 15.9859 234.046 16.9327 234.046H25.4279C25.9671 234.046 26.4042 233.609 26.4042 233.069C26.4042 232.53 25.9671 232.093 25.4279 232.093H16.9327C16.6171 232.093 16.3294 231.947 16.1435 231.691C15.9575 231.436 15.9064 231.117 16.0029 230.817C16.968 227.816 19.9114 225.721 23.1606 225.721C24.6724 225.721 26.1242 226.176 27.3591 227.037C27.8014 227.346 28.41 227.237 28.7186 226.795C29.027 226.352 28.9187 225.744 28.4762 225.435ZM33.288 211.002C34.9572 211.002 36.315 212.36 36.315 214.029C36.315 215.698 34.9572 217.056 33.288 217.056C31.6191 217.056 30.2611 215.698 30.2611 214.029C30.2611 212.36 31.6191 211.002 33.288 211.002ZM23.182 217.684C24.8511 217.684 26.2089 219.042 26.2089 220.711C26.2089 222.38 24.8511 223.738 23.182 223.738C21.5128 223.738 20.155 222.38 20.155 220.711C20.155 219.042 21.5128 217.684 23.182 217.684ZM39.0004 229.408C39.0004 229.947 38.5632 230.384 38.0238 230.384H35.3386V233.069C35.3386 233.609 34.9015 234.046 34.3623 234.046C33.8229 234.046 33.3857 233.609 33.3857 233.069V230.384H30.7005C30.1613 230.384 29.7242 229.947 29.7242 229.408C29.7242 228.868 30.1613 228.431 30.7005 228.431H33.3857V225.746C33.3857 225.207 33.8229 224.77 34.3623 224.77C34.9015 224.77 35.3386 225.207 35.3386 225.746V228.431H38.0238C38.5632 228.431 39.0004 228.868 39.0004 229.408Z" fill="black"/>
</g>
</g>
<rect x="0.5" y="0.5" width="297" height="253" rx="28.5" stroke="#BDBDBD"/>
<defs>
<clipPath id="clip0">
</clipPath>
<clipPath id="clip1">
<rect width="20" height="20" fill="white" transform="translate(19 169)"/>
</clipPath>
<clipPath id="clip2">
<rect width="25" height="25" fill="white" transform="translate(14 209)"/>
</clipPath>
</defs>
</svg>
