<svg width="86" height="43" viewBox="0 0 86 43" fill="none" xmlns="http://www.w3.org/2000/svg">
<rect width="86" height="43" fill="#4F4F4F"/>
<path d="M20.84 17.008C21.072 17 21.512 16.996 22.16 16.996C22.816 16.996 23.26 17 23.492 17.008C24.316 17.024 24.964 17.244 25.436 17.668C25.908 18.092 26.144 18.68 26.144 19.432C26.144 19.968 26.024 20.444 25.784 20.86C25.544 21.268 25.204 21.584 24.764 21.808C24.332 22.032 23.84 22.144 23.288 22.144H22.508V25H20.84V17.008ZM23.216 20.728C23.608 20.728 23.912 20.616 24.128 20.392C24.352 20.168 24.464 19.864 24.464 19.48C24.464 18.776 24.076 18.424 23.3 18.424H22.508V20.728H23.216ZM27.4025 17.008H29.1425V23.488H32.0225V25H27.4025V17.008ZM35.6331 17.008H37.7211L40.6851 25H38.8851L38.2371 23.176H35.0931L34.4811 25H32.7051L35.6331 17.008ZM37.7211 21.688L36.6411 18.628L35.5971 21.688H37.7211ZM41.6056 17.008H43.3456V23.488H46.2256V25H41.6056V17.008ZM50.7372 25.156C49.9532 25.156 49.2612 24.984 48.6612 24.64C48.0612 24.296 47.5932 23.812 47.2572 23.188C46.9292 22.564 46.7652 21.848 46.7652 21.04C46.7652 20.224 46.9292 19.504 47.2572 18.88C47.5852 18.256 48.0492 17.772 48.6492 17.428C49.2492 17.084 49.9452 16.912 50.7372 16.912C51.5212 16.912 52.2132 17.084 52.8132 17.428C53.4132 17.764 53.8772 18.24 54.2052 18.856C54.5332 19.472 54.6972 20.184 54.6972 20.992C54.6972 21.816 54.5332 22.544 54.2052 23.176C53.8772 23.8 53.4132 24.288 52.8132 24.64C52.2132 24.984 51.5212 25.156 50.7372 25.156ZM50.7372 23.632C51.3932 23.632 51.9172 23.396 52.3092 22.924C52.7092 22.452 52.9092 21.824 52.9092 21.04C52.9092 20.528 52.8172 20.076 52.6332 19.684C52.4572 19.284 52.2012 18.98 51.8652 18.772C51.5372 18.556 51.1612 18.448 50.7372 18.448C50.3132 18.448 49.9332 18.556 49.5972 18.772C49.2692 18.98 49.0132 19.284 48.8292 19.684C48.6532 20.076 48.5652 20.528 48.5652 21.04C48.5652 21.552 48.6532 22.004 48.8292 22.396C49.0132 22.788 49.2692 23.092 49.5972 23.308C49.9252 23.524 50.3052 23.632 50.7372 23.632ZM60.1915 25.18C59.3035 25.18 58.5355 25.024 57.8875 24.712C57.2475 24.392 56.7555 23.936 56.4115 23.344C56.0675 22.752 55.8955 22.048 55.8955 21.232C55.8955 20.376 56.0755 19.62 56.4355 18.964C56.8035 18.308 57.3155 17.8 57.9715 17.44C58.6355 17.08 59.3995 16.9 60.2635 16.9C60.7595 16.9 61.2275 16.956 61.6675 17.068C62.1155 17.18 62.5115 17.34 62.8555 17.548L62.4355 18.988C62.1235 18.796 61.7755 18.648 61.3915 18.544C61.0075 18.432 60.6315 18.376 60.2635 18.376C59.7355 18.376 59.2675 18.492 58.8595 18.724C58.4595 18.948 58.1475 19.268 57.9235 19.684C57.7075 20.092 57.5995 20.568 57.5995 21.112C57.5995 21.912 57.8395 22.544 58.3195 23.008C58.8075 23.464 59.4715 23.692 60.3115 23.692C60.6475 23.692 60.9595 23.668 61.2475 23.62V21.964H60.2395V20.56H62.8435V24.712C62.0195 25.024 61.1355 25.18 60.1915 25.18Z" fill="white"/>
</svg>
