<svg width="82" height="42" viewBox="0 0 82 42" fill="none" xmlns="http://www.w3.org/2000/svg">
<g filter="url(#filter0_d)">
<rect x="4" width="74" height="34" rx="17" fill="#F8ECE0"/>
</g>
<path d="M21.8789 23V21.2422C26.0684 18.3301 28.1631 15.9277 28.1631 14.0352C28.1631 12.9219 27.4014 12.3652 25.8779 12.3652C24.5889 12.3652 23.373 12.6875 22.2305 13.332V11.2227C23.373 10.6367 24.5889 10.3438 25.8779 10.3438C28.9541 10.3438 30.4922 11.5742 30.4922 14.0352C30.4922 16.2031 28.8135 18.5176 25.4561 20.9785H30.4922V23H21.8789ZM34.5791 16.6807C34.5791 19.6045 35.6426 21.0664 37.7695 21.0664C39.832 21.0664 40.8633 19.6045 40.8633 16.6807C40.8633 13.8037 39.832 12.3652 37.7695 12.3652C35.6426 12.3652 34.5791 13.8037 34.5791 16.6807ZM32.1621 16.7334C32.1621 12.4736 34.0312 10.3438 37.7695 10.3438C41.4434 10.3438 43.2803 12.4736 43.2803 16.7334C43.2803 20.9697 41.4434 23.0879 37.7695 23.0879C34.0312 23.0879 32.1621 20.9697 32.1621 16.7334ZM44.959 23V21.2422C49.1484 18.3301 51.2432 15.9277 51.2432 14.0352C51.2432 12.9219 50.4814 12.3652 48.958 12.3652C47.6689 12.3652 46.4531 12.6875 45.3105 13.332V11.2227C46.4531 10.6367 47.6689 10.3438 48.958 10.3438C52.0342 10.3438 53.5723 11.5742 53.5723 14.0352C53.5723 16.2031 51.8936 18.5176 48.5361 20.9785H53.5723V23H44.959ZM56.6484 23V12.3564H55.3301V11.3984L58.9775 10.168V23H56.6484Z" fill="#424242"/>
<defs>
<filter id="filter0_d" x="0" y="0" width="82" height="42" filterUnits="userSpaceOnUse" color-interpolation-filters="sRGB">
<feFlood flood-opacity="0" result="BackgroundImageFix"/>
<feColorMatrix in="SourceAlpha" type="matrix" values="0 0 0 0 0 0 0 0 0 0 0 0 0 0 0 0 0 0 127 0"/>
<feOffset dy="4"/>
<feGaussianBlur stdDeviation="2"/>
<feColorMatrix type="matrix" values="0 0 0 0 0 0 0 0 0 0 0 0 0 0 0 0 0 0 0.25 0"/>
<feBlend mode="normal" in2="BackgroundImageFix" result="effect1_dropShadow"/>
<feBlend mode="normal" in="SourceGraphic" in2="effect1_dropShadow" result="shape"/>
</filter>
</defs>
</svg>
