<svg width="287" height="287" viewBox="0 0 287 287" fill="none" xmlns="http://www.w3.org/2000/svg">
<g clip-path="url(#clip0)">
<path d="M143.027 0C64.04 0 0 64.04 0 143.027C0 222.023 64.04 286.054 143.027 286.054C222.014 286.054 286.054 222.023 286.054 143.027C286.054 64.04 222.014 0 143.027 0ZM143.027 259.236C78.844 259.236 26.818 207.21 26.818 143.027C26.818 78.844 78.844 26.818 143.027 26.818C207.21 26.818 259.236 78.844 259.236 143.027C259.236 207.21 207.21 259.236 143.027 259.236ZM175.065 155.122H170.023V102.515C170.023 86.925 161.629 80.578 151.09 80.578C141.641 80.578 136.555 83.671 132.559 90.518L91.859 160.083C90.768 161.79 89.311 163.855 89.311 167.628C89.311 172.08 93.128 177.738 102.031 177.738H145.824V192.3C145.824 201.391 147.674 205.664 156.944 205.664C166.214 205.664 170.022 201.382 170.022 192.3V177.738H175.064C182.153 177.738 187.784 173.286 187.784 166.421C187.785 159.573 182.154 155.122 175.065 155.122ZM146.379 155.122H121.483L146.012 107.306H146.379V155.122Z" fill="#535353"/>
</g>
<defs>
<clipPath id="clip0">
<rect width="286.054" height="286.054" fill="white"/>
</clipPath>
</defs>
</svg>
