<svg width="32" height="32" viewBox="0 0 32 32" fill="none" xmlns="http://www.w3.org/2000/svg">
<g clip-path="url(#clip0)">
<path d="M5.04178 9.58698C7.17691 9.58698 8.90778 7.85611 8.90778 5.72098C8.90778 3.58585 7.17691 1.85498 5.04178 1.85498C2.90665 1.85498 1.17578 3.58585 1.17578 5.72098C1.17578 7.85611 2.90665 9.58698 5.04178 9.58698Z" fill="black"/>
<path d="M30.779 6.78017H21.433V5.72217H18.954V6.78017H10.077H9.446V8.05517H10.077V10.8612L8.625 10.1692H6.449L4.975 11.8782L3.549 10.1692L0.416 10.7512L0.216 17.7002H1.544L1.616 19.1432H1.818V20.0222V20.6712V27.5552H1.551L0 27.8932V29.3232H1.321L2.863 29.0722L2.877 29.3232H4.585V27.7302V27.5572V20.6742H5.558V27.5572V27.7302V29.3232H7.266L7.28 29.0722L8.822 29.3232H10.143V27.8932L8.59 27.5572H8.325V20.6742V20.0242V19.1452H8.57L8.886 12.7452L10.077 13.2842V20.6392H19.213V22.9822L14.171 28.6702H15.983L19.387 24.8262V28.6702H20.428V24.8302L23.827 28.6702H25.668L20.598 22.9822V20.6392H30.78V8.05617H31.178V6.78017H30.779ZM29.887 19.7002H20.596H19.213H10.97V13.6872L14.687 15.3692L14.673 13.0522L10.97 11.2872V8.05617H29.887V19.7002V19.7002Z" fill="black"/>
<path d="M18.396 13.728V16.643C18.396 16.643 19.454 16.276 20.486 16.631C21.517 16.987 23.263 18.037 23.263 18.037C23.263 18.037 23.795 17.17 24.419 16.768C25.042 16.367 25.523 16.059 25.523 16.059V13.805L23.601 15.503L18.396 13.728Z" fill="black"/>
<path d="M16.4042 15.1742H16.0272V16.7702H17.3482V15.1742H16.9502V12.9592L23.5352 15.0692L27.7272 11.3302L20.9122 9.36621L15.5552 12.5122L16.4042 12.7852V15.1742Z" fill="black"/>
</g>
<defs>
<clipPath id="clip0">
<rect width="31.178" height="31.178" fill="white"/>
</clipPath>
</defs>
</svg>
