<svg width="386" height="279" viewBox="0 0 386 279" fill="none" xmlns="http://www.w3.org/2000/svg">
<path d="M380.165 185.203L359.362 181.556C357.622 177.53 355.313 173.633 352.469 169.929L363.508 157.033C365.076 155.203 364.665 152.859 362.513 151.35L341.808 136.816C339.654 135.306 336.31 135.02 333.7 136.119L315.304 143.858C312.916 142.961 310.46 142.132 307.959 141.379C304.927 140.477 301.827 139.691 298.672 139.026L293.47 124.441C292.735 122.369 290.082 120.916 287.036 120.916H257.772C254.727 120.916 252.074 122.369 251.335 124.441L246.136 139.026C240.39 140.245 234.834 141.864 229.551 143.858L211.155 136.119C208.543 135.02 205.2 135.306 203.046 136.816L182.314 151.332C180.161 152.841 179.752 155.185 181.32 157.015L192.36 169.911C189.512 173.615 187.206 177.509 185.467 181.538L164.66 185.182C161.705 185.7 159.632 187.56 159.632 189.694V210.223C159.632 212.357 161.705 214.217 164.66 214.732L185.467 218.38C187.206 222.406 189.512 226.3 192.36 230.006L181.32 242.902C179.752 244.732 180.161 247.076 182.314 248.586L203.02 263.101C205.175 264.609 208.517 264.897 211.126 263.798L229.522 256.059C234.808 258.052 240.364 259.672 246.107 260.891L251.309 275.474C252.048 277.545 254.701 278.998 257.746 279.001H287.03C290.075 278.998 292.728 277.545 293.463 275.474L298.666 260.891C304.409 259.672 309.965 258.052 315.251 256.059L333.648 263.798C336.259 264.897 339.601 264.609 341.756 263.101L362.459 248.586C364.613 247.076 365.024 244.732 363.457 242.902L352.416 230.006C355.261 226.3 357.57 222.406 359.31 218.38L380.113 214.732C383.067 214.217 385.141 212.357 385.141 210.223V189.713C385.147 187.589 383.1 185.732 380.165 185.203ZM371.928 206.607L352.404 210.032C350.029 210.445 348.176 211.737 347.574 213.4C345.747 218.438 342.893 223.266 339.093 227.73C337.842 229.202 337.842 231.035 339.093 232.504L349.456 244.596L336.103 253.995L318.853 246.73C316.758 245.852 314.144 245.852 312.047 246.73C305.676 249.392 298.789 251.395 291.601 252.673C289.229 253.096 287.386 254.397 286.797 256.059L281.873 269.736H262.952L258.07 256.05C257.481 254.388 255.634 253.086 253.266 252.664C246.078 251.383 239.191 249.383 232.82 246.719C230.723 245.843 228.109 245.843 226.014 246.719L208.763 253.983L195.356 244.623L205.719 232.531C206.973 231.062 206.973 229.229 205.719 227.76C201.923 223.293 199.065 218.466 197.241 213.427C196.639 211.767 194.783 210.472 192.411 210.059L172.901 206.607V193.346L192.425 189.922C194.796 189.508 196.651 188.216 197.255 186.554C199.078 181.515 201.935 176.687 205.731 172.223C206.985 170.752 206.985 168.919 205.731 167.45L195.369 155.358L208.725 145.958L225.975 153.223C228.07 154.102 230.685 154.102 232.78 153.223C239.153 150.562 246.039 148.559 253.227 147.28C255.595 146.858 257.441 145.557 258.031 143.894L262.952 130.217H281.873L286.758 143.904C287.347 145.566 289.191 146.867 291.559 147.289C298.747 148.566 305.634 150.566 311.999 153.23C314.098 154.109 316.715 154.109 318.815 153.23L336.061 145.965L349.468 155.33L339.106 167.422C337.856 168.892 337.856 170.724 339.106 172.193C342.906 176.66 345.76 181.488 347.586 186.526C348.189 188.186 350.042 189.481 352.416 189.894L371.928 193.346V206.607Z" fill="#D0D0D0"/>
<path d="M272.413 162.772C243.101 162.772 219.34 179.428 219.34 199.977C219.34 220.525 243.101 237.181 272.413 237.181C301.723 237.181 325.488 220.525 325.488 199.977C325.455 179.44 301.711 162.794 272.413 162.772ZM272.413 227.88C250.428 227.88 232.608 215.386 232.608 199.977C232.608 184.567 250.428 172.073 272.413 172.073C294.396 172.073 312.219 184.567 312.219 199.977C312.197 215.382 294.387 227.864 272.413 227.88Z" fill="#D0D0D0"/>
<path d="M305.585 55.8074H318.853V130.217H305.585V55.8074Z" fill="#D0D0D0"/>
<path d="M26.948 237.181V255.784C26.948 258.352 29.9185 260.435 33.5822 260.435H172.901V251.133H40.2164V237.181H119.827C120.854 237.188 121.868 237.029 122.791 236.716L149.328 227.415C151.579 226.629 153.004 225.017 153.004 223.252C153.004 221.49 151.579 219.878 149.328 219.09L122.791 209.789C121.875 209.46 120.857 209.285 119.827 209.278H40.2164V51.1568H292.317C306.971 51.1568 318.854 42.8275 318.854 32.5544V23.2531C318.854 20.6848 315.883 18.6025 312.219 18.6025H292.317V27.9037H305.585V32.5544C305.585 37.6909 299.644 41.8556 292.317 41.8556C284.989 41.8556 279.048 37.6909 279.048 32.5544V18.6025C279.048 13.4659 284.989 9.30124 292.317 9.30124H318.854C326.181 9.30124 332.122 13.4659 332.122 18.6025V125.567H345.39V18.6025C345.39 8.32934 333.509 0 318.854 0H26.948C12.2899 0 0.411133 8.32934 0.411133 18.6025V32.5544C0.411133 42.8275 12.2899 51.1568 26.948 51.1568V209.278H20.3138C9.32265 209.278 0.411133 215.525 0.411133 223.23C0.411133 230.935 9.32265 237.181 20.3138 237.181H26.948ZM13.6795 32.5544V18.6025C13.6795 13.4659 19.6205 9.30124 26.948 9.30124H269.466C267.079 12.117 265.806 15.328 265.78 18.6025V32.5544C265.806 35.8288 267.079 39.0398 269.466 41.8556H26.948C19.6205 41.8556 13.6795 37.6909 13.6795 32.5544ZM131.527 223.23L118.259 227.881H113.193V218.579H118.259L131.527 223.23ZM13.6795 223.23C13.6795 220.662 16.6501 218.579 20.3138 218.579H99.9241V227.881H20.3138C16.6501 227.881 13.6795 225.798 13.6795 223.23Z" fill="#D0D0D0"/>
<path d="M0.411133 69.7593H13.6795V162.772H0.411133V69.7593Z" fill="#D0D0D0"/>
<path d="M259.146 74.4096V65.1082H172.9C171.141 65.1082 169.454 65.5992 168.21 66.4712L156.089 74.9682C127.109 60.0787 86.9637 62.2518 61.5895 80.0845C59.0013 81.8989 59.0013 84.8438 61.5895 86.6582L108.502 119.544C109.743 120.418 111.43 120.913 113.193 120.916H179.535C183.198 120.916 186.169 118.833 186.169 116.265C186.162 103.174 178.971 90.5869 166.078 81.1155L175.647 74.4096H259.146ZM172.528 111.614H115.94L75.9204 83.5613C96.3155 72.1141 124.977 71.333 146.581 81.6333L128.405 94.3747L137.786 100.951L156.733 87.6688C165.557 94.2431 171.1 102.645 172.528 111.614Z" fill="#D0D0D0"/>
<path d="M272.414 65.1084H285.683V74.4098H272.414V65.1084Z" fill="#D0D0D0"/>
<path d="M73.3874 134.868H86.6555V144.169H73.3874V134.868Z" fill="#D0D0D0"/>
<path d="M99.9241 134.868H166.266V144.169H99.9241V134.868Z" fill="#D0D0D0"/>
<path d="M60.1189 153.47H166.266V162.772H60.1189V153.47Z" fill="#D0D0D0"/>
<path d="M206.072 83.7109H219.34V93.0123H206.072V83.7109Z" fill="#D0D0D0"/>
<path d="M232.608 83.7109H285.682V93.0123H232.608V83.7109Z" fill="#D0D0D0"/>
<path d="M206.072 102.314H285.682V111.615H206.072V102.314Z" fill="#D0D0D0"/>
<path d="M60.1189 172.073H146.364V181.374H60.1189V172.073Z" fill="#D0D0D0"/>
</svg>
