<svg width="479" height="479" viewBox="0 0 479 479" fill="none" xmlns="http://www.w3.org/2000/svg">
<g clip-path="url(#clip0)">
<path d="M465.96 317.965L440.923 311.703C438.829 304.791 436.05 298.101 432.627 291.742L445.913 269.602C447.8 266.46 447.305 262.436 444.716 259.844L419.796 234.892C417.204 232.3 413.18 231.809 410.038 233.696L387.898 246.982C385.024 245.442 382.069 244.019 379.059 242.725C375.41 241.177 371.679 239.828 367.882 238.686L361.621 213.645C360.736 210.089 357.543 207.594 353.878 207.594H318.658C314.993 207.594 311.8 210.089 310.911 213.645L304.654 238.686C297.738 240.779 291.052 243.559 284.693 246.982L262.553 233.696C259.41 231.809 255.387 232.3 252.794 234.892L227.843 259.813C225.251 262.405 224.759 266.428 226.646 269.571L239.933 291.711C236.506 298.07 233.73 304.756 231.637 311.672L206.596 317.929C203.04 318.818 200.545 322.011 200.545 325.676V360.92C200.545 364.584 203.04 367.777 206.596 368.662L231.637 374.924C233.73 381.836 236.506 388.522 239.933 394.884L226.646 417.025C224.759 420.167 225.251 424.191 227.843 426.783L252.763 451.703C255.356 454.292 259.379 454.787 262.518 452.9L284.658 439.613C291.02 443.036 297.707 445.816 304.619 447.91L310.88 472.947C311.769 476.502 314.962 478.997 318.627 479.001H353.87C357.535 478.997 360.728 476.502 361.613 472.947L367.874 447.91C374.786 445.816 381.473 443.036 387.835 439.613L409.976 452.9C413.118 454.787 417.141 454.292 419.734 451.703L444.65 426.783C447.243 424.191 447.738 420.167 445.851 417.025L432.564 394.884C435.987 388.522 438.767 381.836 440.86 374.924L465.897 368.662C469.453 367.777 471.948 364.584 471.948 360.92V325.707C471.956 322.062 469.492 318.873 465.96 317.965ZM456.046 354.713L432.549 360.592C429.691 361.302 427.461 363.52 426.736 366.374C424.537 375.025 421.102 383.313 416.529 390.978C415.024 393.504 415.024 396.651 416.529 399.173L429.001 419.933L412.931 436.07L392.17 423.598C389.648 422.089 386.502 422.089 383.979 423.598C376.311 428.167 368.022 431.606 359.371 433.801C356.517 434.526 354.299 436.76 353.59 439.613L347.664 463.095H324.892L319.017 439.598C318.307 436.744 316.085 434.51 313.235 433.785C304.584 431.586 296.295 428.152 288.627 423.578C286.104 422.074 282.958 422.074 280.436 423.578L259.675 436.05L243.539 419.98L256.011 399.22C257.52 396.697 257.52 393.551 256.011 391.029C251.442 383.36 248.003 375.072 245.808 366.421C245.083 363.571 242.849 361.348 239.995 360.639L216.514 354.713V331.945L240.011 326.066C242.865 325.356 245.098 323.138 245.824 320.284C248.019 311.633 251.457 303.345 256.026 295.68C257.535 293.154 257.535 290.007 256.026 287.485L243.555 266.725L259.629 250.588L280.389 263.06C282.911 264.569 286.058 264.569 288.58 263.06C296.249 258.491 304.537 255.052 313.188 252.857C316.038 252.132 318.26 249.898 318.97 247.044L324.892 223.563H347.664L353.543 247.06C354.252 249.914 356.471 252.148 359.321 252.873C367.972 255.064 376.26 258.499 383.921 263.072C386.447 264.581 389.597 264.581 392.124 263.072L412.88 250.6L429.016 266.678L416.545 287.438C415.04 289.961 415.04 293.107 416.545 295.629C421.118 303.298 424.553 311.586 426.751 320.237C427.476 323.087 429.706 325.31 432.564 326.019L456.046 331.945V354.713Z" fill="black"/>
<path d="M336.279 279.454C301.001 279.454 272.404 308.05 272.404 343.329C272.404 378.608 301.001 407.204 336.279 407.204C371.554 407.204 400.155 378.608 400.155 343.329C400.116 308.07 371.539 279.493 336.279 279.454ZM336.279 391.235C309.819 391.235 288.373 369.785 288.373 343.329C288.373 316.873 309.819 295.423 336.279 295.423C362.736 295.423 384.186 316.873 384.186 343.329C384.159 369.777 362.724 391.208 336.279 391.235Z" fill="black"/>
<path d="M376.202 95.8127H392.17V223.563H376.202V95.8127Z" fill="black"/>
<path d="M40.857 407.204V439.142C40.857 443.551 44.4321 447.126 48.8414 447.126H216.514V431.157H56.8258V407.204H152.639C153.874 407.216 155.095 406.943 156.206 406.405L188.143 390.436C190.853 389.087 192.568 386.319 192.568 383.29C192.568 380.265 190.853 377.497 188.143 376.144L156.206 360.175C155.103 359.61 153.878 359.31 152.639 359.298H56.8258V87.8284H360.233C377.87 87.8284 392.171 73.5282 392.171 55.8908V39.922C392.171 35.5126 388.595 31.9376 384.186 31.9376H360.233V47.9064H376.202V55.8908C376.202 64.7095 369.052 71.8596 360.233 71.8596C351.414 71.8596 344.264 64.7095 344.264 55.8908V31.9376C344.264 23.1189 351.414 15.9688 360.233 15.9688H392.171C400.989 15.9688 408.139 23.1189 408.139 31.9376V215.579H424.108V31.9376C424.108 14.3002 409.808 0 392.171 0H40.857C23.2157 0 8.91943 14.3002 8.91943 31.9376V55.8908C8.91943 73.5282 23.2157 87.8284 40.857 87.8284V359.298H32.8726C19.6446 359.298 8.91943 370.023 8.91943 383.251C8.91943 396.479 19.6446 407.204 32.8726 407.204H40.857ZM24.8882 55.8908V31.9376C24.8882 23.1189 32.0383 15.9688 40.857 15.9688H332.732C329.859 20.8031 328.327 26.3158 328.295 31.9376V55.8908C328.327 61.5126 329.859 67.0253 332.732 71.8596H40.857C32.0383 71.8596 24.8882 64.7095 24.8882 55.8908ZM166.72 383.251L150.752 391.236H144.654V375.267H150.752L166.72 383.251ZM24.8882 383.251C24.8882 378.842 28.4633 375.267 32.8726 375.267H128.685V391.236H32.8726C28.4633 391.236 24.8882 387.66 24.8882 383.251Z" fill="black"/>
<path d="M8.91943 119.766H24.8882V279.454H8.91943V119.766Z" fill="black"/>
<path d="M320.311 127.75V111.781H216.513C214.396 111.781 212.365 112.624 210.868 114.121L196.28 128.709C161.402 103.146 113.087 106.877 82.5487 137.493C79.4337 140.608 79.4337 145.664 82.5487 148.779L139.009 205.239C140.502 206.74 142.533 207.59 144.654 207.594H224.498C228.907 207.594 232.482 204.019 232.482 199.61C232.474 177.134 223.819 155.524 208.303 139.263L219.819 127.75H320.311ZM216.065 191.625H147.96L99.7962 143.462C124.342 123.809 158.837 122.468 184.837 140.152L162.962 162.027L174.252 173.317L197.055 150.514C207.675 161.801 214.346 176.226 216.065 191.625Z" fill="black"/>
<path d="M336.28 111.781H352.249V127.75H336.28V111.781Z" fill="black"/>
<path d="M96.7476 231.548H112.716V247.516H96.7476V231.548Z" fill="black"/>
<path d="M128.685 231.548H208.529V247.516H128.685V231.548Z" fill="black"/>
<path d="M80.7788 263.485H208.529V279.454H80.7788V263.485Z" fill="black"/>
<path d="M256.436 143.719H272.404V159.688H256.436V143.719Z" fill="black"/>
<path d="M288.373 143.719H352.248V159.688H288.373V143.719Z" fill="black"/>
<path d="M256.436 175.657H352.248V191.626H256.436V175.657Z" fill="black"/>
<path d="M80.7788 295.423H184.576V311.392H80.7788V295.423Z" fill="black"/>
</g>
<defs>
<clipPath id="clip0">
<rect width="479" height="479" fill="white"/>
</clipPath>
</defs>
</svg>
