<svg width="156" height="25" viewBox="0 0 156 25" fill="none" xmlns="http://www.w3.org/2000/svg">
<g filter="url(#filter0_d)">
<path d="M16.1636 13.7984L13.4975 14.2027C13.3104 13.605 13.1233 13.0132 12.9362 12.4273C12.7492 11.8296 12.5679 11.232 12.3925 10.6343L8.07779 10.7925L7.53399 13.1304H4.83289C4.99669 11.1382 5.16618 9.1577 5.34158 7.189C5.51698 5.2202 5.68649 3.2456 5.85019 1.2651C6.69209 1.1245 7.52818 1.0073 8.35838 0.913596C9.20028 0.819796 10.0481 0.772996 10.9016 0.772996C11.9423 0.772996 12.983 0.790496 14.0238 0.825696C14.2108 2.0444 14.392 3.2632 14.5675 4.482C14.7546 5.689 14.9474 6.9019 15.1463 8.1206C15.2866 9.0816 15.4385 10.0308 15.6023 10.9683C15.7777 11.9058 15.9648 12.8491 16.1636 13.7984ZM11.7787 8.2437C11.7669 8.1382 11.7377 7.9449 11.691 7.6636C11.6442 7.3706 11.5916 7.0659 11.5331 6.7495C11.4746 6.4214 11.4045 6.1284 11.3226 5.8706C11.2524 5.6011 11.1823 5.4429 11.1121 5.396C11.0887 5.3843 11.0303 5.3726 10.9367 5.3609C10.8549 5.3491 10.7613 5.3374 10.6561 5.3257C10.5625 5.314 10.4691 5.3081 10.3755 5.3081C10.282 5.3081 10.2176 5.3081 10.1825 5.3081C10.124 5.3081 10.0422 5.3081 9.93699 5.3081C9.84339 5.3081 9.73819 5.314 9.62119 5.3257C9.51599 5.3257 9.41078 5.3374 9.30548 5.3609C9.21198 5.3843 9.14768 5.4136 9.11258 5.4488C9.08918 5.4605 9.05988 5.5366 9.02488 5.6773C8.98978 5.8179 8.94309 5.9937 8.88459 6.2046C8.83779 6.4038 8.78518 6.6206 8.72678 6.855C8.67998 7.0894 8.63318 7.312 8.58638 7.523C8.53968 7.7339 8.49868 7.9156 8.46358 8.0679C8.44028 8.2202 8.42268 8.3081 8.41108 8.3316L11.7787 8.2437ZM24.0038 8.2613H17.251L17.3211 6.8374C18.3852 6.8023 19.4727 6.7847 20.5836 6.7847H23.8635L24.0038 8.2613ZM35.6851 3.146C34.5392 3.2046 33.3991 3.269 32.2649 3.3394C31.1424 3.398 30.0082 3.4741 28.8622 3.5679L28.8272 4.9566L33.3523 4.6929C33.4108 5.0913 33.4518 5.4839 33.4752 5.8706C33.5103 6.2573 33.5278 6.6499 33.5278 7.0484C33.5278 7.2124 33.522 7.3823 33.5103 7.5581C33.5103 7.7339 33.5103 7.9038 33.5103 8.0679L29.3007 8.8238L29.5639 11.0034C30.4525 10.9449 31.3354 10.8628 32.2123 10.7573C33.101 10.6402 33.9955 10.5406 34.8959 10.4585C34.9778 11.0445 35.0596 11.6363 35.1414 12.2339C35.2232 12.8199 35.3402 13.3941 35.4923 13.9566C33.8318 13.9449 32.1831 13.9449 30.546 13.9566C28.909 13.98 27.2603 13.9917 25.5999 13.9917C25.635 12.6206 25.6759 11.2554 25.7227 9.896C25.7694 8.5366 25.7928 7.1656 25.7928 5.7827V5.4488C25.7928 4.6519 25.7812 3.8609 25.7577 3.0757C25.7344 2.2788 25.7109 1.4761 25.6876 0.667496C26.6113 0.679196 27.5292 0.685096 28.4413 0.685096C29.3651 0.673296 30.2947 0.667496 31.2301 0.667496C31.9433 0.667496 32.6508 0.685096 33.3523 0.720196C34.0657 0.743696 34.7789 0.772996 35.4923 0.808096L35.6851 3.146ZM40.6664 0.333496C40.5729 1.4702 40.4793 2.6011 40.3858 3.7261C40.3039 4.8511 40.2338 5.982 40.1753 7.1187C40.1168 8.1499 40.0526 9.1753 39.9824 10.1949C39.9239 11.2027 39.8655 12.2222 39.807 13.2534L37.1234 13.3941C37.1234 12.3277 37.1234 11.273 37.1234 10.23C37.1351 9.1753 37.1293 8.1148 37.1059 7.0484C37.0825 5.982 37.0358 4.9273 36.9655 3.8843C36.8954 2.8296 36.8252 1.769 36.7551 0.702596L40.6664 0.333496ZM58.855 9.4038C58.855 9.896 58.8433 10.3823 58.82 10.8628C58.8083 11.3316 58.7791 11.8062 58.7323 12.2866C58.2411 12.3101 57.7676 12.3394 57.3116 12.3745C56.8673 12.398 56.3995 12.4566 55.9084 12.5503C56.0487 11.7066 56.1189 10.857 56.1189 10.0015C56.1189 9.8491 56.1071 9.5913 56.0838 9.2281C56.0604 8.8531 56.0253 8.4663 55.9785 8.0679C55.9435 7.6577 55.8908 7.2827 55.8207 6.9429C55.7622 6.6031 55.692 6.3804 55.6102 6.2749C55.5517 6.2046 55.464 6.1519 55.3471 6.1167C55.2302 6.0816 55.1074 6.0581 54.9788 6.0464C54.8502 6.023 54.7216 6.0113 54.593 6.0113C54.4643 5.9995 54.3591 5.9937 54.2771 5.9937C54.1368 5.9937 53.9673 5.9995 53.7686 6.0113C53.5815 6.023 53.3885 6.0464 53.1897 6.0816C52.991 6.105 52.798 6.146 52.6109 6.2046C52.4355 6.2632 52.2894 6.3335 52.1725 6.4156C52.114 6.4624 52.0613 6.5855 52.0146 6.7847C51.9795 6.9839 51.9502 7.2241 51.9269 7.5054C51.9034 7.7866 51.8801 8.0913 51.8568 8.4195C51.8451 8.7476 51.8333 9.0581 51.8216 9.3511C51.81 9.6323 51.8041 9.8843 51.8041 10.107C51.8041 10.3179 51.8041 10.4527 51.8041 10.5113C51.8041 11.2847 51.8216 12.0581 51.8568 12.8316C51.5176 12.8433 51.1843 12.855 50.8569 12.8667C50.5412 12.8784 50.2139 12.8843 49.8747 12.8843C49.8397 12.8843 49.7929 12.8843 49.7344 12.8843C49.6759 12.8843 49.6175 12.8784 49.559 12.8667C49.4888 12.8667 49.4187 12.8609 49.3486 12.8491V11.5659C49.3486 11.2027 49.3427 10.8277 49.331 10.4409C49.3193 10.0542 49.3076 9.7144 49.296 9.4214C49.2842 9.2222 49.2667 8.9644 49.2433 8.648C49.2199 8.3316 49.1674 8.0269 49.0854 7.7339C49.0036 7.4292 48.8808 7.1714 48.7171 6.9605C48.5651 6.7378 48.3488 6.6265 48.0682 6.6265C47.9395 6.6265 47.7641 6.6499 47.5419 6.6968C47.3315 6.732 47.1094 6.7847 46.8755 6.855C46.6533 6.9136 46.4428 6.9898 46.2441 7.0835C46.057 7.1656 45.9225 7.2534 45.8407 7.3472C45.8172 7.3706 45.788 7.5054 45.7529 7.7515C45.7295 7.9859 45.7061 8.2788 45.6828 8.6304C45.6593 8.9702 45.6301 9.3452 45.5951 9.7554C45.5716 10.1538 45.5483 10.5288 45.5249 10.8804C45.5132 11.232 45.4957 11.5366 45.4723 11.7945C45.4606 12.0406 45.4548 12.187 45.4548 12.2339C45.2209 12.2573 44.9811 12.2808 44.7357 12.3042C44.5018 12.3159 44.2679 12.3218 44.034 12.3218C43.8119 12.3218 43.5897 12.3159 43.3676 12.3042C43.1454 12.2925 42.929 12.2749 42.7186 12.2515C42.6601 10.7632 42.5724 9.2925 42.4555 7.8394C42.3502 6.3863 42.2333 4.9156 42.1046 3.4272C42.4321 3.3921 42.7536 3.3628 43.0693 3.3394C43.3968 3.3042 43.7242 3.2866 44.0516 3.2866C44.3673 3.2866 44.683 3.2925 44.9987 3.3042C45.3144 3.3159 45.636 3.3276 45.9634 3.3394L45.7354 4.8511C46.2733 4.4175 46.7878 4.0952 47.2789 3.8843C47.7817 3.6733 48.378 3.5679 49.0679 3.5679C49.3369 3.5679 49.5708 3.603 49.7695 3.6733C49.98 3.7319 50.1671 3.8198 50.3308 3.937C50.5062 4.0425 50.6757 4.1714 50.8394 4.3238C51.0031 4.4761 51.1785 4.6402 51.3656 4.8159C51.5761 4.4878 51.8158 4.23 52.0848 4.0425C52.3653 3.8433 52.6636 3.6909 52.9793 3.5855C53.295 3.48 53.6283 3.4155 53.979 3.3921C54.3298 3.3569 54.6806 3.3394 55.0314 3.3394C55.3121 3.3394 55.6043 3.3511 55.9084 3.3745C56.2241 3.3862 56.5222 3.4331 56.8029 3.5151C57.0953 3.5972 57.3583 3.7202 57.5922 3.8843C57.8261 4.0484 58.0073 4.271 58.1359 4.5523C58.2879 4.8921 58.4107 5.2671 58.5043 5.6773C58.5978 6.0874 58.6679 6.5093 58.7147 6.9429C58.7732 7.3765 58.8083 7.8042 58.82 8.2261C58.8433 8.648 58.855 9.0406 58.855 9.4038ZM73.184 5.9234C73.184 6.9077 73.15 7.8863 73.08 8.8589C73.01 9.8316 72.939 10.8042 72.869 11.7769C71.56 11.8941 70.256 11.9937 68.958 12.0757C67.66 12.1577 66.356 12.1988 65.047 12.1988C64.93 12.1988 64.713 12.1988 64.398 12.1988C64.082 12.187 63.749 12.1753 63.398 12.1636C63.047 12.1402 62.7137 12.1167 62.398 12.0933C62.0823 12.0581 61.8719 12.0113 61.7666 11.9527C61.3808 11.7417 61.1118 11.4781 60.9598 11.1616C60.8078 10.8335 60.7318 10.4644 60.7318 10.0542C60.7318 9.9136 60.7377 9.7261 60.7493 9.4917C60.761 9.2573 60.7844 9.0113 60.8195 8.7534C60.8545 8.4956 60.9013 8.2554 60.9598 8.0327C61.0183 7.8101 61.0884 7.646 61.1703 7.5406C61.2755 7.3999 61.5153 7.2827 61.8894 7.189C62.2636 7.0835 62.7079 7.0015 63.222 6.9429C63.749 6.8843 64.31 6.8374 64.906 6.8023C65.514 6.7671 66.093 6.7437 66.643 6.732C67.192 6.7085 67.683 6.6968 68.116 6.6968C68.549 6.6968 68.859 6.6968 69.046 6.6968C69.08 6.439 69.098 6.187 69.098 5.9409C69.098 5.9175 69.098 5.8589 69.098 5.7652C69.098 5.6597 69.092 5.5952 69.08 5.5718C69.046 5.5015 68.935 5.4429 68.747 5.396C68.561 5.3491 68.326 5.314 68.046 5.2906C67.777 5.2671 67.479 5.2495 67.151 5.2378C66.836 5.2144 66.526 5.2027 66.222 5.2027C65.918 5.2027 65.649 5.2027 65.415 5.2027C65.181 5.2027 65.011 5.2027 64.906 5.2027C64.17 5.2027 63.433 5.2202 62.6963 5.2554C61.9596 5.2788 61.2229 5.3023 60.4862 5.3257C60.533 4.8804 60.568 4.4292 60.5915 3.9722C60.6265 3.5151 60.6324 3.064 60.6091 2.6187C61.4626 2.4663 62.3162 2.3608 63.17 2.3022C64.035 2.2319 64.906 2.1968 65.783 2.1968C66.099 2.1968 66.444 2.2026 66.818 2.2144C67.192 2.2144 67.566 2.2261 67.941 2.2495C68.315 2.2612 68.683 2.2847 69.046 2.3198C69.42 2.355 69.765 2.4019 70.08 2.4605C70.408 2.519 70.73 2.6245 71.045 2.7769C71.372 2.9292 71.677 3.1167 71.957 3.3394C72.238 3.562 72.483 3.8198 72.694 4.1128C72.904 4.3941 73.057 4.6988 73.15 5.0269C73.162 5.062 73.167 5.1206 73.167 5.2027C73.179 5.2847 73.184 5.3784 73.184 5.4839C73.184 5.5777 73.184 5.6656 73.184 5.7476C73.184 5.8296 73.184 5.8882 73.184 5.9234ZM69.274 10.0542V7.8042C68.935 7.7925 68.596 7.7866 68.256 7.7866C67.917 7.7749 67.578 7.7691 67.239 7.7691C67.169 7.7691 66.97 7.7749 66.643 7.7866C66.327 7.7866 65.982 7.7984 65.608 7.8218C65.245 7.8452 64.912 7.8745 64.608 7.9097C64.304 7.9449 64.129 7.9976 64.082 8.0679C64.023 8.1616 63.982 8.2613 63.959 8.3667C63.947 8.4605 63.942 8.5601 63.942 8.6656C63.942 8.7476 63.947 8.8589 63.959 8.9995C63.971 9.1402 63.988 9.2866 64.012 9.439C64.047 9.5913 64.082 9.732 64.117 9.8609C64.152 9.9898 64.199 10.0835 64.257 10.1421C64.304 10.2007 64.38 10.2476 64.485 10.2827C64.602 10.3062 64.725 10.3296 64.854 10.3531C64.982 10.3648 65.111 10.3765 65.239 10.3882C65.368 10.3882 65.467 10.3882 65.538 10.3882C65.818 10.3882 66.116 10.3765 66.432 10.3531C66.76 10.3296 67.087 10.3062 67.414 10.2827C67.753 10.2476 68.081 10.2124 68.397 10.1773C68.712 10.1304 69.005 10.0894 69.274 10.0542ZM87.076 10.3882C87.076 10.5171 87.076 10.7046 87.076 10.9507C87.076 11.1968 87.07 11.4781 87.059 11.7945C87.047 12.0991 87.029 12.4214 87.006 12.7613C86.994 13.0894 86.977 13.4058 86.953 13.7105C86.93 14.0034 86.895 14.2613 86.848 14.4839C86.814 14.7183 86.773 14.8823 86.726 14.9761C86.527 15.2925 86.34 15.5327 86.164 15.6968C86 15.8726 85.82 15.9956 85.62 16.0659C85.422 16.1363 85.194 16.1714 84.937 16.1714C84.691 16.1831 84.399 16.189 84.06 16.189C82.937 16.189 81.821 16.1421 80.709 16.0484C79.598 15.9663 78.488 15.8667 77.377 15.7495V13.3413C77.482 13.3413 77.711 13.3413 78.061 13.3413C78.423 13.3296 78.844 13.3179 79.324 13.3062C79.803 13.2945 80.312 13.2769 80.85 13.2534C81.387 13.23 81.89 13.2007 82.358 13.1656C82.826 13.1304 83.229 13.0894 83.569 13.0425C83.908 12.9956 84.117 12.937 84.2 12.8667C84.305 12.7847 84.387 12.6616 84.446 12.4976C84.516 12.3218 84.562 12.1402 84.585 11.9527C84.62 11.7652 84.644 11.5777 84.656 11.3902C84.667 11.2027 84.673 11.0503 84.673 10.9331C84.673 10.8159 84.673 10.7046 84.673 10.5991C84.673 10.4937 84.667 10.3765 84.656 10.2476C84.481 10.646 84.246 10.9449 83.954 11.1441C83.661 11.3433 83.334 11.4839 82.972 11.5659C82.61 11.648 82.23 11.6949 81.831 11.7066C81.434 11.7066 81.054 11.7066 80.692 11.7066C79.932 11.7066 79.195 11.6773 78.482 11.6187C77.78 11.5484 77.155 11.3784 76.605 11.1089C76.067 10.8394 75.629 10.4351 75.29 9.896C74.963 9.3452 74.799 8.5894 74.799 7.6284C74.799 6.6792 74.863 5.7359 74.991 4.7984C75.12 3.8491 75.284 2.9116 75.482 1.9858L79.183 2.021C78.985 2.7593 78.809 3.5093 78.657 4.271C78.506 5.0327 78.429 5.8003 78.429 6.5738C78.429 6.9839 78.459 7.3179 78.517 7.5757C78.576 7.8335 78.68 8.0445 78.833 8.2085C78.985 8.3609 79.195 8.4663 79.464 8.5249C79.733 8.5835 80.072 8.6128 80.481 8.6128C80.645 8.6128 80.844 8.6011 81.078 8.5777C81.324 8.5542 81.569 8.5249 81.815 8.4898C82.072 8.4429 82.311 8.3843 82.534 8.314C82.767 8.2437 82.949 8.1558 83.078 8.0503C83.124 8.0152 83.165 7.898 83.2 7.6988C83.235 7.4995 83.264 7.2652 83.287 6.9956C83.311 6.7144 83.328 6.4156 83.34 6.0991C83.352 5.7827 83.358 5.4839 83.358 5.2027C83.369 4.9214 83.375 4.6812 83.375 4.482C83.375 4.271 83.375 4.1363 83.375 4.0777C83.375 3.6792 83.375 3.2866 83.375 2.8999C83.375 2.5015 83.364 2.103 83.34 1.7046C83.913 1.7632 84.475 1.8159 85.024 1.8628C85.585 1.898 86.153 1.9272 86.726 1.9507C86.773 3.0874 86.82 4.2124 86.865 5.3257C86.924 6.439 86.983 7.564 87.041 8.7007C87.065 8.982 87.076 9.2691 87.076 9.562C87.076 9.8433 87.076 10.1187 87.076 10.3882ZM105.633 9.4038C105.633 9.896 105.621 10.3823 105.598 10.8628C105.586 11.3316 105.557 11.8062 105.511 12.2866C105.02 12.3101 104.546 12.3394 104.09 12.3745C103.646 12.398 103.178 12.4566 102.687 12.5503C102.826 11.7066 102.897 10.857 102.897 10.0015C102.897 9.8491 102.885 9.5913 102.862 9.2281C102.838 8.8531 102.803 8.4663 102.757 8.0679C102.722 7.6577 102.669 7.2827 102.599 6.9429C102.54 6.6031 102.47 6.3804 102.388 6.2749C102.33 6.2046 102.243 6.1519 102.125 6.1167C102.008 6.0816 101.886 6.0581 101.757 6.0464C101.628 6.023 101.499 6.0113 101.372 6.0113C101.243 5.9995 101.137 5.9937 101.055 5.9937C100.915 5.9937 100.746 5.9995 100.546 6.0113C100.36 6.023 100.166 6.0464 99.968 6.0816C99.769 6.105 99.577 6.146 99.389 6.2046C99.213 6.2632 99.068 6.3335 98.951 6.4156C98.892 6.4624 98.839 6.5855 98.793 6.7847C98.757 6.9839 98.728 7.2241 98.705 7.5054C98.682 7.7866 98.659 8.0913 98.635 8.4195C98.624 8.7476 98.612 9.0581 98.6 9.3511C98.588 9.6323 98.583 9.8843 98.583 10.107C98.583 10.3179 98.583 10.4527 98.583 10.5113C98.583 11.2847 98.6 12.0581 98.635 12.8316C98.295 12.8433 97.963 12.855 97.635 12.8667C97.32 12.8784 96.992 12.8843 96.653 12.8843C96.618 12.8843 96.571 12.8843 96.512 12.8843C96.454 12.8843 96.396 12.8784 96.338 12.8667C96.267 12.8667 96.197 12.8609 96.127 12.8491V11.5659C96.127 11.2027 96.121 10.8277 96.109 10.4409C96.097 10.0542 96.086 9.7144 96.074 9.4214C96.062 9.2222 96.045 8.9644 96.021 8.648C95.998 8.3316 95.946 8.0269 95.864 7.7339C95.782 7.4292 95.659 7.1714 95.496 6.9605C95.343 6.7378 95.127 6.6265 94.846 6.6265C94.718 6.6265 94.543 6.6499 94.32 6.6968C94.11 6.732 93.888 6.7847 93.654 6.855C93.431 6.9136 93.222 6.9898 93.022 7.0835C92.835 7.1656 92.701 7.2534 92.619 7.3472C92.596 7.3706 92.566 7.5054 92.531 7.7515C92.508 7.9859 92.484 8.2788 92.461 8.6304C92.437 8.9702 92.408 9.3452 92.373 9.7554C92.349 10.1538 92.326 10.5288 92.304 10.8804C92.292 11.232 92.274 11.5366 92.251 11.7945C92.239 12.0406 92.233 12.187 92.233 12.2339C91.999 12.2573 91.76 12.2808 91.514 12.3042C91.28 12.3159 91.046 12.3218 90.812 12.3218C90.59 12.3218 90.368 12.3159 90.146 12.3042C89.924 12.2925 89.707 12.2749 89.497 12.2515C89.439 10.7632 89.351 9.2925 89.233 7.8394C89.128 6.3863 89.012 4.9156 88.883 3.4272C89.21 3.3921 89.532 3.3628 89.848 3.3394C90.175 3.3042 90.502 3.2866 90.83 3.2866C91.145 3.2866 91.461 3.2925 91.777 3.3042C92.093 3.3159 92.414 3.3276 92.742 3.3394L92.514 4.8511C93.052 4.4175 93.566 4.0952 94.057 3.8843C94.56 3.6733 95.156 3.5679 95.846 3.5679C96.115 3.5679 96.349 3.603 96.548 3.6733C96.758 3.7319 96.945 3.8198 97.109 3.937C97.285 4.0425 97.454 4.1714 97.618 4.3238C97.781 4.4761 97.957 4.6402 98.144 4.8159C98.354 4.4878 98.594 4.23 98.863 4.0425C99.144 3.8433 99.442 3.6909 99.757 3.5855C100.073 3.48 100.407 3.4155 100.757 3.3921C101.108 3.3569 101.458 3.3394 101.81 3.3394C102.09 3.3394 102.382 3.3511 102.687 3.3745C103.002 3.3862 103.3 3.4331 103.581 3.5151C103.873 3.5972 104.137 3.7202 104.37 3.8843C104.605 4.0484 104.785 4.271 104.914 4.5523C105.067 4.8921 105.189 5.2671 105.282 5.6773C105.376 6.0874 105.447 6.5093 105.493 6.9429C105.551 7.3765 105.586 7.8042 105.598 8.2261C105.621 8.648 105.633 9.0406 105.633 9.4038ZM120.472 6.8902C120.472 6.9839 120.472 7.0777 120.472 7.1714C120.472 7.2534 120.466 7.3413 120.455 7.4351C120.443 7.5991 120.414 7.8687 120.367 8.2437C120.32 8.6187 120.255 9.0113 120.173 9.4214C120.092 9.8199 119.993 10.189 119.875 10.5288C119.758 10.8687 119.63 11.0855 119.49 11.1792C119.419 11.2261 119.18 11.2671 118.77 11.3023C118.373 11.3374 117.881 11.3726 117.297 11.4077C116.724 11.4429 116.098 11.4722 115.421 11.4956C114.742 11.5191 114.094 11.5425 113.473 11.5659C112.865 11.5777 112.328 11.5894 111.86 11.6011C111.404 11.6128 111.1 11.6187 110.948 11.6187C110.878 11.6187 110.755 11.6187 110.579 11.6187C110.416 11.6187 110.24 11.6187 110.054 11.6187C109.866 11.607 109.69 11.5952 109.527 11.5835C109.363 11.5718 109.246 11.5542 109.176 11.5308C109.013 11.4722 108.849 11.3784 108.686 11.2495C108.522 11.1089 108.369 10.9566 108.23 10.7925C108.089 10.6167 107.96 10.4409 107.843 10.2652C107.738 10.0777 107.662 9.9019 107.615 9.7378C107.58 9.6089 107.551 9.4156 107.527 9.1577C107.504 8.8882 107.486 8.6128 107.475 8.3316C107.463 8.0386 107.451 7.7573 107.44 7.4878C107.44 7.2183 107.44 7.0132 107.44 6.8726C107.44 6.6499 107.445 6.3452 107.457 5.9585C107.469 5.5601 107.504 5.1558 107.563 4.7456C107.621 4.3355 107.703 3.9546 107.808 3.603C107.925 3.2397 108.089 2.9878 108.299 2.8472C108.393 2.7886 108.568 2.7358 108.825 2.689C109.083 2.6421 109.387 2.6011 109.737 2.5659C110.089 2.5308 110.463 2.5073 110.86 2.4956C111.258 2.4722 111.643 2.4605 112.017 2.4605C112.403 2.4487 112.761 2.4429 113.088 2.4429C113.415 2.4429 113.679 2.4487 113.877 2.4605C114.052 2.4722 114.303 2.4839 114.632 2.4956C114.959 2.4956 115.321 2.5015 115.718 2.5132C116.128 2.5249 116.548 2.5483 116.981 2.5835C117.414 2.6069 117.818 2.6421 118.192 2.689C118.566 2.7358 118.893 2.8003 119.174 2.8823C119.466 2.9526 119.659 3.0405 119.752 3.146C119.905 3.3101 120.028 3.5562 120.121 3.8843C120.214 4.2124 120.285 4.564 120.331 4.939C120.39 5.3023 120.425 5.6656 120.437 6.0288C120.46 6.3804 120.472 6.6675 120.472 6.8902ZM116.754 7.2593C116.754 7.1187 116.748 6.9546 116.736 6.7671C116.724 6.5796 116.707 6.3921 116.683 6.2046C116.66 6.0054 116.625 5.8179 116.578 5.6421C116.531 5.4546 116.472 5.3023 116.403 5.1851C116.309 5.0327 116.128 4.9156 115.859 4.8335C115.59 4.7515 115.292 4.6929 114.965 4.6577C114.649 4.6109 114.333 4.5816 114.017 4.5699C113.714 4.5581 113.485 4.5523 113.333 4.5523C113.252 4.5523 113.105 4.5581 112.894 4.5699C112.684 4.5699 112.462 4.5757 112.228 4.5874C112.006 4.5991 111.796 4.6226 111.597 4.6577C111.398 4.6812 111.269 4.7105 111.211 4.7456C111.105 4.8159 111.023 4.9273 110.966 5.0796C110.907 5.2202 110.86 5.3784 110.825 5.5542C110.802 5.73 110.784 5.9058 110.772 6.0816C110.772 6.2456 110.772 6.3804 110.772 6.4859C110.772 6.5913 110.778 6.7847 110.79 7.0659C110.813 7.3355 110.837 7.6284 110.86 7.9449C110.895 8.2495 110.936 8.5308 110.983 8.7886C111.029 9.0464 111.088 9.2105 111.158 9.2808C111.24 9.3745 111.392 9.4507 111.614 9.5093C111.849 9.5679 112.094 9.6206 112.351 9.6675C112.62 9.7027 112.877 9.732 113.123 9.7554C113.368 9.7671 113.544 9.773 113.649 9.773C113.836 9.773 114.058 9.7671 114.315 9.7554C114.573 9.7437 114.83 9.7144 115.088 9.6675C115.356 9.6206 115.607 9.5562 115.841 9.4741C116.075 9.3921 116.262 9.2808 116.403 9.1402C116.484 9.0581 116.548 8.9351 116.595 8.771C116.642 8.607 116.677 8.4312 116.701 8.2437C116.724 8.0562 116.736 7.8745 116.736 7.6988C116.748 7.5113 116.754 7.3648 116.754 7.2593ZM134.118 12.9546L131.153 13.0777L130.943 11.3023C130.721 11.607 130.452 11.8648 130.137 12.0757C129.832 12.2866 129.499 12.4566 129.137 12.5855C128.785 12.7144 128.417 12.8081 128.031 12.8667C127.657 12.9136 127.289 12.937 126.927 12.937C126.646 12.937 126.295 12.9136 125.874 12.8667C125.465 12.8199 125.044 12.7554 124.612 12.6734C124.191 12.5796 123.798 12.4624 123.436 12.3218C123.074 12.1812 122.811 12.0171 122.647 11.8296C122.518 11.689 122.418 11.4663 122.349 11.1616C122.29 10.8452 122.249 10.5113 122.226 10.1597C122.202 9.8081 122.191 9.4683 122.191 9.1402C122.191 8.812 122.191 8.5484 122.191 8.3491C122.191 7.4702 122.226 6.6031 122.296 5.7476C122.367 4.8921 122.465 4.0425 122.594 3.1987C122.921 3.1636 123.273 3.146 123.647 3.146C123.95 3.146 124.254 3.1694 124.559 3.2163C124.862 3.2515 125.166 3.2983 125.471 3.3569C125.471 3.4155 125.477 3.5855 125.488 3.8667C125.5 4.148 125.512 4.482 125.524 4.8687C125.547 5.2554 125.57 5.6714 125.593 6.1167C125.616 6.5503 125.64 6.9546 125.663 7.3296C125.698 7.7046 125.734 8.0269 125.769 8.2964C125.816 8.5542 125.862 8.6949 125.909 8.7183C126.084 8.8238 126.277 8.8823 126.488 8.8941C126.698 8.9058 126.903 8.9116 127.102 8.9116C127.242 8.9116 127.458 8.9058 127.751 8.8941C128.055 8.8706 128.364 8.8413 128.681 8.8062C128.996 8.7593 129.288 8.7066 129.558 8.648C129.826 8.5777 130.008 8.4956 130.101 8.4019C130.137 8.3667 130.159 8.2554 130.171 8.0679C130.194 7.8804 130.206 7.6753 130.206 7.4527C130.218 7.23 130.224 7.0249 130.224 6.8374C130.235 6.6382 130.241 6.521 130.241 6.4859C130.241 5.9585 130.229 5.437 130.206 4.9214C130.183 4.4058 130.159 3.8843 130.137 3.3569L133.539 3.1987C133.609 4.0191 133.674 4.8394 133.732 5.6597C133.791 6.4683 133.866 7.2827 133.96 8.1031C133.995 8.3726 134.012 8.648 134.012 8.9292C134.024 9.2105 134.036 9.4917 134.048 9.773C134.071 10.3003 134.083 10.8277 134.083 11.355C134.094 11.8823 134.106 12.4156 134.118 12.9546ZM146.255 8.6304C146.255 8.9468 146.255 9.2691 146.255 9.5972C146.255 9.9136 146.243 10.23 146.22 10.5464L142.309 10.7925C142.356 10.1831 142.391 9.5796 142.414 8.982C142.449 8.3843 142.466 7.7749 142.466 7.1538C142.466 7.0952 142.466 6.9956 142.466 6.855C142.466 6.7144 142.46 6.5679 142.449 6.4156C142.438 6.2515 142.426 6.0991 142.414 5.9585C142.403 5.8179 142.391 5.7183 142.379 5.6597C142.321 5.4956 142.256 5.355 142.186 5.2378C142.127 5.1206 142.051 5.0269 141.958 4.9566C141.876 4.8863 141.771 4.8394 141.642 4.8159C141.514 4.7808 141.356 4.7632 141.168 4.7632C141.029 4.7632 140.847 4.7749 140.625 4.7984C140.414 4.8218 140.198 4.857 139.976 4.9038C139.753 4.9507 139.543 5.0093 139.344 5.0796C139.146 5.1499 139.005 5.232 138.923 5.3257L138.888 10.5113C138.865 10.4644 138.795 10.4409 138.678 10.4409C138.573 10.4409 138.497 10.4409 138.45 10.4409C138.099 10.4409 137.737 10.4585 137.363 10.4937C136.988 10.5171 136.626 10.5523 136.275 10.5991C136.123 9.2163 135.989 7.8394 135.872 6.4683C135.754 5.0972 135.62 3.7202 135.468 2.3374C135.702 2.3257 135.936 2.3198 136.17 2.3198C136.404 2.3081 136.637 2.3022 136.872 2.3022C137.175 2.3022 137.479 2.314 137.784 2.3374C138.099 2.3491 138.409 2.3608 138.713 2.3726L138.835 3.7261C139.164 3.187 139.608 2.7358 140.169 2.3726C140.73 2.0093 141.332 1.8276 141.976 1.8276C142.303 1.8276 142.642 1.8452 142.992 1.8804C143.344 1.9155 143.677 1.9858 143.992 2.0913C144.319 2.1968 144.624 2.3433 144.904 2.5308C145.196 2.7183 145.442 2.9585 145.641 3.2515C145.734 3.3921 145.811 3.603 145.869 3.8843C145.94 4.1538 145.998 4.4644 146.045 4.8159C146.092 5.1558 146.126 5.5191 146.149 5.9058C146.185 6.2925 146.208 6.6616 146.22 7.0132C146.231 7.3648 146.237 7.687 146.237 7.98C146.249 8.2613 146.255 8.4781 146.255 8.6304ZM151.114 2.0913C151.114 2.3257 151.061 2.5483 150.956 2.7593C150.862 2.9585 150.727 3.1343 150.553 3.2866C150.389 3.439 150.202 3.562 149.991 3.6558C149.78 3.7378 149.57 3.7788 149.359 3.7788C149.126 3.7788 148.903 3.7261 148.693 3.6206C148.494 3.5151 148.319 3.3804 148.167 3.2163C148.015 3.0522 147.898 2.8647 147.816 2.6538C147.734 2.4312 147.693 2.2085 147.693 1.9858C147.693 1.7632 147.734 1.5581 147.816 1.3706C147.91 1.1714 148.026 1.0015 148.167 0.860796C148.319 0.720196 148.488 0.608896 148.676 0.526896C148.874 0.444796 149.085 0.403796 149.307 0.403796C149.529 0.403796 149.745 0.450696 149.956 0.544396C150.179 0.626496 150.371 0.749496 150.535 0.913596C150.71 1.0659 150.85 1.2476 150.956 1.4585C151.061 1.6577 151.114 1.8687 151.114 2.0913ZM151.833 5.0796C151.774 5.7007 151.727 6.3159 151.692 6.9253C151.657 7.5347 151.622 8.1441 151.587 8.7534C151.541 9.4683 151.459 10.1773 151.342 10.8804C151.236 11.5835 151.113 12.2866 150.973 12.9898L148.29 13.271C148.29 12.896 148.29 12.5269 148.29 12.1636C148.302 11.8003 148.308 11.4312 148.308 11.0562C148.308 10.0952 148.29 9.1343 148.255 8.1734C148.22 7.2124 148.185 6.2515 148.149 5.2906C148.769 5.2671 149.377 5.232 149.973 5.1851C150.582 5.1382 151.201 5.1031 151.833 5.0796Z" fill="#D0D0D0"/>
</g>
<defs>
<filter id="filter0_d" x="0.832886" y="0.333496" width="155" height="23.8555" filterUnits="userSpaceOnUse" color-interpolation-filters="sRGB">
<feFlood flood-opacity="0" result="BackgroundImageFix"/>
<feColorMatrix in="SourceAlpha" type="matrix" values="0 0 0 0 0 0 0 0 0 0 0 0 0 0 0 0 0 0 127 0"/>
<feOffset dy="4"/>
<feGaussianBlur stdDeviation="2"/>
<feColorMatrix type="matrix" values="0 0 0 0 0 0 0 0 0 0 0 0 0 0 0 0 0 0 0.25 0"/>
<feBlend mode="normal" in2="BackgroundImageFix" result="effect1_dropShadow"/>
<feBlend mode="normal" in="SourceGraphic" in2="effect1_dropShadow" result="shape"/>
</filter>
</defs>
</svg>
