<svg width="174" height="22" viewBox="0 0 174 22" fill="none" xmlns="http://www.w3.org/2000/svg">
<path d="M14.5385 2H6.46154C2.89293 2 0 4.47965 0 7.53846V14.4615C0 17.5203 2.89293 20 6.46154 20H14.5385C18.1071 20 21 17.5203 21 14.4615V7.53846C21 4.47965 18.1071 2 14.5385 2Z" fill="#5B5B5B"/>
<path d="M18.7235 5.5625H2.27455C1.98552 5.5625 1.74902 6.08734 1.74902 6.72876C1.74902 7.37018 1.98552 7.89502 2.27455 7.89502H18.7235C19.0126 7.89502 19.2491 7.37018 19.2491 6.72876C19.2491 6.08734 19.0126 5.5625 18.7235 5.5625Z" fill="#FBF8EF"/>
<path d="M13.8361 9.875H2.27455C1.98552 9.875 1.74902 10.3998 1.74902 11.0413C1.74902 11.6827 1.98552 12.2075 2.27455 12.2075H13.8361C14.1251 12.2075 14.3616 11.6827 14.3616 11.0413C14.3616 10.3998 14.1251 9.875 13.8361 9.875Z" fill="#FBF8EF"/>
<path d="M18.2991 14H2.26142C1.9796 14 1.74902 14.5248 1.74902 15.1663C1.74902 15.8077 1.9796 16.3325 2.26142 16.3325H18.2991C18.5809 16.3325 18.8115 15.8077 18.8115 15.1663C18.8115 14.5248 18.5809 14 18.2991 14Z" fill="#FBF8EF"/>
<path d="M34.123 10.0479L32.9014 6.54102L31.7148 10.8652L34.123 10.0479ZM41.2158 15.0928L33.5518 17.4658L35.5117 14.8379L34.958 12.8955L32.1104 13.1152L31.2842 15.3828L32.5234 16.3496L24.1914 16.9473L26.2217 15.4355L28.9199 4.94141L27.3906 3.94824L37.7266 4.29102L35.3184 5.15234L39.5459 14.5918L41.2158 15.0928ZM50.1191 7.62207L48.4492 10.8037C47.9922 10.3936 47.5557 10.0918 47.1396 9.89844C46.7295 9.69922 46.3252 9.59961 45.9268 9.59961C45.5635 9.59961 45.2793 9.68164 45.0742 9.8457C44.875 10.0098 44.7754 10.2354 44.7754 10.5225C44.7754 11.0439 45.5693 11.3574 47.1572 11.4629C47.3154 11.4746 47.4385 11.4834 47.5264 11.4893C48.8213 11.5771 49.7588 11.8145 50.3389 12.2012C50.9248 12.5879 51.2178 13.168 51.2178 13.9414C51.2178 14.9023 50.7432 15.6875 49.7939 16.2969C48.8506 16.9004 47.6084 17.2021 46.0674 17.2021C45.3701 17.2021 44.6641 17.0938 43.9492 16.877C43.2402 16.6602 42.4961 16.3291 41.7168 15.8838L40.2578 17.1758L41.3916 13.6338C41.9658 14.1436 42.5195 14.5303 43.0527 14.7939C43.5918 15.0518 44.0869 15.1807 44.5381 15.1807C44.9131 15.1807 45.2119 15.084 45.4346 14.8906C45.6572 14.6914 45.7686 14.4219 45.7686 14.082C45.7686 13.7305 45.6514 13.4727 45.417 13.3086C45.1826 13.1387 44.6201 12.9834 43.7295 12.8428C42.7334 12.6787 42.0156 12.4209 41.5762 12.0693C41.1426 11.7178 40.9258 11.2256 40.9258 10.5928C40.9258 9.66699 41.3037 8.93164 42.0596 8.38672C42.8213 7.8418 43.8467 7.56934 45.1357 7.56934C45.8623 7.56934 46.4863 7.65723 47.0078 7.83301C47.5293 8.00879 48.0156 8.29297 48.4668 8.68555L50.1191 7.62207ZM65.6055 16.9297L61.123 17.2725C61.5801 16.7979 61.9199 16.332 62.1426 15.875C62.3652 15.418 62.4766 14.958 62.4766 14.4951C62.4766 14.0439 62.377 13.6807 62.1777 13.4053C61.9785 13.124 61.7178 12.9834 61.3955 12.9834C61.0264 12.9834 60.6982 13.168 60.4111 13.5371C60.1299 13.9062 59.9893 14.3398 59.9893 14.8379C59.9893 15.1133 60.0273 15.3682 60.1035 15.6025C60.1855 15.8311 60.3086 16.0566 60.4727 16.2793L57.0361 16.0859C57.2002 15.875 57.3232 15.667 57.4053 15.4619C57.4873 15.2568 57.5283 15.0488 57.5283 14.8379C57.5283 14.3691 57.4199 13.9824 57.2031 13.6777C56.9863 13.373 56.7168 13.2207 56.3945 13.2207C56.043 13.2207 55.7383 13.3994 55.4805 13.7568C55.2227 14.1084 55.0938 14.5361 55.0938 15.04C55.0938 15.4092 55.1611 15.749 55.2959 16.0596C55.4307 16.3701 55.6387 16.6719 55.9199 16.9648L51.2441 17.2725L52.7207 16.1211L52.5361 8.61523L51.2969 8.08789L55.2607 7.6748L54.7686 9.73145C55.1729 9.0752 55.627 8.57129 56.1309 8.21973C56.6348 7.86816 57.1475 7.69238 57.6689 7.69238C58.167 7.69238 58.6152 7.90625 59.0137 8.33398C59.4121 8.76172 59.6787 9.32129 59.8135 10.0127C60.1475 9.25098 60.5576 8.67383 61.0439 8.28125C61.5361 7.88867 62.0898 7.69238 62.7051 7.69238C63.5195 7.69238 64.1992 8.07324 64.7441 8.83496C65.2949 9.59668 65.5703 10.5547 65.5703 11.709C65.5703 12.4941 65.4414 13.2588 65.1836 14.0029C64.9316 14.7471 64.5391 15.5059 64.0059 16.2793L65.6055 16.9297ZM71.248 9.78418C71.0957 9.95996 70.9844 10.1475 70.9141 10.3467C70.8438 10.5459 70.8086 10.7773 70.8086 11.041C70.8086 11.5566 70.9756 11.9902 71.3096 12.3418C71.6494 12.6875 72.0654 12.8604 72.5576 12.8604C72.7334 12.8604 72.915 12.8252 73.1025 12.7549C73.29 12.6787 73.4805 12.5703 73.6738 12.4297C73.2988 11.7383 72.9062 11.1729 72.4961 10.7334C72.0918 10.2881 71.6758 9.97168 71.248 9.78418ZM77.4004 7.94727L76.1084 8.53613L76.3721 15.9014L77.3828 16.6748L73.5156 17.1582L74.1748 14.4775C73.6357 15.3623 73.0117 16.0303 72.3027 16.4814C71.5996 16.9326 70.832 17.1582 70 17.1582C69.0039 17.1582 68.1631 16.751 67.4775 15.9365C66.7979 15.1162 66.458 14.1025 66.458 12.8955C66.458 11.3545 66.8242 10.0889 67.5566 9.09863C68.2891 8.10254 69.2119 7.60449 70.3252 7.60449C71.1689 7.60449 71.9102 7.82715 72.5488 8.27246C73.1934 8.71191 73.7354 9.37109 74.1748 10.25L73.6211 7.53418L77.4004 7.94727ZM79.9932 10.9355C80.1807 11.0879 80.4004 11.208 80.6523 11.2959C80.9043 11.3779 81.1621 11.4189 81.4258 11.4189C81.8887 11.4189 82.2666 11.2842 82.5596 11.0146C82.8525 10.7451 82.999 10.3994 82.999 9.97754C82.999 9.77246 82.9697 9.58789 82.9111 9.42383C82.8525 9.25977 82.7617 9.10449 82.6387 8.95801C82.0117 9.05176 81.4756 9.26562 81.0303 9.59961C80.5908 9.92773 80.2451 10.373 79.9932 10.9355ZM88.7383 17.2021L87.9473 15.7432C87.168 16.2354 86.3887 16.6016 85.6094 16.8418C84.8301 17.082 84.0244 17.2021 83.1924 17.2021C81.5693 17.2021 80.2686 16.8008 79.29 15.998C78.3174 15.1895 77.8311 14.1201 77.8311 12.79C77.8311 12.0869 77.9629 11.4102 78.2266 10.7598C78.4961 10.1035 78.874 9.53223 79.3604 9.0459C79.8291 8.57715 80.3711 8.22266 80.9863 7.98242C81.6074 7.74219 82.29 7.62207 83.0342 7.62207C84.458 7.62207 85.6328 7.92969 86.5586 8.54492C87.4844 9.16016 87.9473 9.93359 87.9473 10.8652C87.9473 11.8027 87.5195 12.5879 86.6641 13.2207C85.8145 13.8535 84.748 14.1699 83.4648 14.1699C83.1484 14.1699 82.8525 14.1465 82.5771 14.0996C82.3018 14.0469 82.0381 13.9707 81.7861 13.8711C82.3369 14.2461 82.876 14.5244 83.4033 14.7061C83.9365 14.8818 84.4844 14.9697 85.0469 14.9697C85.7324 14.9697 86.3623 14.8174 86.9365 14.5127C87.5107 14.208 88.0029 13.7656 88.4131 13.1855L88.7383 17.2021ZM95.1279 9.44141L94.8906 12.1396L90.0479 13.0801L89.4941 9.33594L95.1279 9.44141ZM115.932 16.8242L105.35 16.4463L107.274 15.3652L108.962 7.55176L105.042 14.0117L101.676 6.7959L103.021 16.1738L105.851 17.4834L95.9541 16.6045L97.4658 15.7432L98.4678 5.87305L96.4902 4.99414L104.787 3.9834L105.903 8.79102L106.967 4.51074L115.009 4.97656L112.583 5.82031L113.594 15.4883L115.932 16.8242ZM120.625 9.78418C120.473 9.95996 120.361 10.1475 120.291 10.3467C120.221 10.5459 120.186 10.7773 120.186 11.041C120.186 11.5566 120.353 11.9902 120.687 12.3418C121.026 12.6875 121.442 12.8604 121.935 12.8604C122.11 12.8604 122.292 12.8252 122.479 12.7549C122.667 12.6787 122.857 12.5703 123.051 12.4297C122.676 11.7383 122.283 11.1729 121.873 10.7334C121.469 10.2881 121.053 9.97168 120.625 9.78418ZM126.777 7.94727L125.485 8.53613L125.749 15.9014L126.76 16.6748L122.893 17.1582L123.552 14.4775C123.013 15.3623 122.389 16.0303 121.68 16.4814C120.977 16.9326 120.209 17.1582 119.377 17.1582C118.381 17.1582 117.54 16.751 116.854 15.9365C116.175 15.1162 115.835 14.1025 115.835 12.8955C115.835 11.3545 116.201 10.0889 116.934 9.09863C117.666 8.10254 118.589 7.60449 119.702 7.60449C120.546 7.60449 121.287 7.82715 121.926 8.27246C122.57 8.71191 123.112 9.37109 123.552 10.25L122.998 7.53418L126.777 7.94727ZM138.344 7.63965L136.498 8.55371C137.131 9.86035 137.605 11.0498 137.922 12.1221C138.244 13.1943 138.405 14.1436 138.405 14.9697C138.405 15.8604 138.271 16.6836 138.001 17.4395C137.731 18.2012 137.342 18.8574 136.832 19.4082C136.346 19.9414 135.786 20.3486 135.153 20.6299C134.521 20.9111 133.847 21.0518 133.132 21.0518C132.458 21.0518 131.802 20.9727 131.163 20.8145C130.524 20.6621 129.9 20.4277 129.291 20.1113L127.727 21.0869L130.029 17.3779C130.568 18.0166 131.113 18.4941 131.664 18.8105C132.215 19.127 132.774 19.2852 133.343 19.2852C134.099 19.2852 134.705 19.0449 135.162 18.5645C135.619 18.084 135.848 17.4424 135.848 16.6396C135.848 16.3408 135.812 16.0479 135.742 15.7607C135.672 15.4678 135.569 15.1777 135.435 14.8906C134.989 15.582 134.438 16.1064 133.782 16.4639C133.132 16.8213 132.396 17 131.576 17C130.369 17 129.376 16.6572 128.597 15.9717C127.823 15.2861 127.437 14.416 127.437 13.3613C127.437 12.5527 127.609 11.7793 127.955 11.041C128.307 10.2969 128.86 9.5293 129.616 8.73828L127.366 8.27246L132.675 7.65723C132.276 8.13184 131.969 8.61816 131.752 9.11621C131.541 9.61426 131.436 10.083 131.436 10.5225C131.436 10.9854 131.547 11.3662 131.77 11.665C131.998 11.958 132.288 12.1045 132.64 12.1045C133.138 12.1045 133.545 11.9111 133.861 11.5244C134.178 11.1377 134.336 10.6338 134.336 10.0127C134.336 9.60254 134.292 9.23047 134.204 8.89648C134.116 8.5625 133.979 8.25781 133.791 7.98242L138.344 7.63965Z" fill="#5B5B5B"/>
</svg>
