<svg width="512" height="512" viewBox="0 0 512 512" fill="none" xmlns="http://www.w3.org/2000/svg">
<path d="M480 8H128C114.768 8 104 18.768 104 32V152H48C25.944 152 8 169.944 8 192V384C8 406.056 25.944 424 48 424H124.896L114.232 456H88C74.768 456 64 466.768 64 480V504H304V480C304 466.768 293.232 456 280 456H253.768L243.104 424H320C342.056 424 360 406.056 360 384V376H480C493.232 376 504 365.232 504 352V32C504 18.768 493.232 8 480 8ZM128 24H480C484.408 24 488 27.592 488 32V72H120V32C120 27.592 123.592 24 128 24ZM48 168H320C333.232 168 344 178.768 344 192V344H24V192C24 178.768 34.768 168 48 168ZM360 216H456V328H360V216ZM288 480V488H80V480C80 475.592 83.592 472 88 472H280C284.408 472 288 475.592 288 480ZM236.896 456H131.104L141.768 424H226.232L236.896 456ZM320 408H48C34.768 408 24 397.232 24 384V360H344V384C344 397.232 333.232 408 320 408ZM480 360H360V344H472V200H360V192C360 169.944 342.056 152 320 152H120V88H488V352C488 356.408 484.408 360 480 360Z" fill="black"/>
<path d="M144 376H160V392H144V376Z" fill="black"/>
<path d="M176 376H192V392H176V376Z" fill="black"/>
<path d="M208 376H224V392H208V376Z" fill="black"/>
<path d="M168 40H184V56H168V40Z" fill="black"/>
<path d="M200 40H216V56H200V40Z" fill="black"/>
<path d="M136 40H152V56H136V40Z" fill="black"/>
<path d="M136 104H152V120H136V104Z" fill="black"/>
<path d="M168 104H472V120H168V104Z" fill="black"/>
<path d="M376 136H472V152H376V136Z" fill="black"/>
<path d="M376 168H472V184H376V168Z" fill="black"/>
<path d="M64 328H224C237.232 328 248 317.232 248 304V208C248 194.768 237.232 184 224 184H64C50.768 184 40 194.768 40 208V304C40 317.232 50.768 328 64 328ZM56 208C56 203.592 59.592 200 64 200H224C228.408 200 232 203.592 232 208V304C232 308.408 228.408 312 224 312H64C59.592 312 56 308.408 56 304V208Z" fill="black"/>
<path d="M120.458 301.339L152.435 205.308L167.619 210.364L135.642 306.395L120.458 301.339Z" fill="black"/>
<path d="M181.656 293.656L219.312 256L181.656 218.344L170.344 229.656L196.688 256L170.344 282.344L181.656 293.656Z" fill="black"/>
<path d="M117.656 282.344L91.3125 256L117.656 229.656L106.344 218.344L68.6885 256L106.344 293.656L117.656 282.344Z" fill="black"/>
<path d="M264 184H328V200H264V184Z" fill="black"/>
<path d="M264 216H328V232H264V216Z" fill="black"/>
<path d="M264 248H328V264H264V248Z" fill="black"/>
<path d="M264 280H328V296H264V280Z" fill="black"/>
<path d="M280 312H296V328H280V312Z" fill="black"/>
<path d="M312 312H328V328H312V312Z" fill="black"/>
</svg>
