<svg width="512" height="512" viewBox="0 0 512 512" fill="none" xmlns="http://www.w3.org/2000/svg">
<path d="M432 216H416C402.768 216 392 226.768 392 240V243.056L388.992 244.56C380.976 248.568 376 256.624 376 265.576C376 271.856 378.448 277.752 382.88 282.192L392 291.312V362.912C392 364.04 391.536 365.144 390.744 365.944C389.776 366.904 388.408 367.352 387.064 367.152L382.536 366.456C379.2 355.456 370.576 348.136 363.384 342.104C356.304 336.168 352 332.248 352 328C352 316.984 353.832 309.672 355.76 301.944C357.84 293.608 360 284.984 360 272C360 250.616 348.96 234.936 344 228.968V228C344 177.272 302.728 136 252 136C201.272 136 160 177.272 160 228V282.968C151.464 287.808 136 300.392 136 328C136 341.576 142.08 353.328 150.584 363.2L124.952 367.144C123.568 367.352 122.224 366.896 121.264 365.936C120.464 365.136 120.008 364.032 120.008 362.904V291.304L129.128 282.184C133.552 277.76 136 271.856 136 265.576C136 256.616 131.024 248.568 123.008 244.56L120 243.056V240C120 226.768 109.232 216 96 216H80C66.768 216 56 226.768 56 240V371.248C56 386.76 62.04 401.352 73.016 412.336C85.784 425.096 103.384 431.16 121.304 428.896L160 424.064V504H352V424.064L390.696 428.896C408.6 431.168 426.208 425.096 438.984 412.328C449.96 401.352 456 386.76 456 371.248V240C456 226.768 445.232 216 432 216V216ZM396.152 258.872L408 252.944V240C408 235.592 411.584 232 416 232H432C436.416 232 440 235.592 440 240V280H403.312L394.192 270.88C392.784 269.464 392 267.584 392 265.576C392 262.72 393.584 260.152 396.152 258.872ZM170.528 295.592L176 293.768V228C176 186.096 210.096 152 252 152C293.904 152 328 186.096 328 228V235.312L330.344 237.656C330.48 237.792 344 251.552 344 272C344 283.016 342.168 290.328 340.24 298.056C338.16 306.392 336 315.016 336 328C336 340.024 345.088 347.64 353.104 354.36C356.672 357.352 360.128 360.256 362.824 363.416L296 353.136V337.88C310.608 326.136 320 308.16 320 288V224H276.84C259.552 224 242.816 218.936 228.432 209.344L224 206.384L192 227.72V288C192 311.544 204.816 332.096 223.792 343.216C223.4 347.944 222.312 352.616 219.344 355.864L214.192 361.52L219.6 366.928C227.296 374.616 231.936 379.288 231.992 391.816L231.48 398.464C229.92 408.616 223.984 424.256 203.624 436.84C198.592 428.36 191.28 421.92 184.64 416.08C181.296 413.136 178.424 410.52 176 408.016V408H175.984C170.936 402.784 168 398.056 168 392C168 387.2 168.864 383.392 169.92 380.488C186.744 392.424 203.792 398.96 205.192 399.488L210.816 384.504C194.456 378.376 152 356.264 152 328C152 302.504 169.84 295.832 170.528 295.592V295.592ZM256 336C229.528 336 208 314.472 208 288V236.28L224.128 225.528C240.08 235.008 258.184 240 276.84 240H304V288C304 314.472 282.472 336 256 336ZM256 352C264.488 352 272.584 350.304 280 347.288V356.688L252.688 384H247.376C245.768 373.16 240.992 366.248 235.544 360.36C237.344 356.904 238.4 353.256 239.048 349.648C244.464 351.136 250.128 352 256 352V352ZM247.424 400H252.688L260.776 408.088L270.92 488H240.64L247.392 400.256C247.4 400.168 247.408 400.088 247.424 400V400ZM267.312 392L290.792 368.52L292.088 368.72L283.352 408.032L267.312 392ZM80 232H96C100.416 232 104 235.592 104 240V252.944L115.848 258.872C118.416 260.152 120 262.72 120 265.576C120 267.576 119.216 269.464 117.808 270.88L108.688 280H72V240C72 235.592 75.584 232 80 232V232ZM119.32 413.024C106.28 414.632 93.584 410.272 84.328 401.024C76.384 393.064 72 382.488 72 371.248V296H104V362.912C104 368.328 106.112 373.424 109.944 377.256C114.488 381.808 121.008 383.928 127.376 382.96L153.68 378.912C152.688 382.656 152 386.984 152 392C152 398.304 153.688 403.688 156.328 408.456L119.32 413.024ZM176 429.816C183.152 436.152 189.688 442.36 192.416 450.528L195.328 459.28L203.576 455.152C214.224 449.832 222.288 443.744 228.48 437.448L224.592 488H176V429.816ZM427.672 401.016C418.416 410.272 405.704 414.64 392.68 413.024L352.992 408.064L336 408V488H287.048L279.248 426.56L292.648 439.96L307.936 371.16L384.632 382.96C390.976 383.928 397.504 381.8 402.056 377.256C405.888 373.424 408 368.328 408 362.912V296H440V371.248C440 382.488 435.616 393.064 427.672 401.016V401.016Z" fill="black"/>
<path d="M256 120C286.872 120 312 94.88 312 64C312 33.12 286.872 8 256 8C225.128 8 200 33.12 200 64C200 94.88 225.128 120 256 120ZM256 24C278.056 24 296 41.944 296 64C296 86.056 278.056 104 256 104C233.944 104 216 86.056 216 64C216 41.944 233.944 24 256 24Z" fill="black"/>
<path d="M285.656 53.656L274.344 42.344L248 68.688L237.656 58.344L226.344 69.656L248 91.312L285.656 53.656Z" fill="black"/>
<path d="M79.9998 200C97.6478 200 112 185.648 112 168V153.664C112 148.312 114.64 143.288 118.896 140.552C139.624 127.224 152 104.592 152 80C152 59.52 143.232 39.944 127.952 26.296C112.688 12.648 92.1758 6.15201 71.6398 8.47201C39.2238 12.144 12.7198 38.256 8.59979 70.576C5.02379 98.64 17.5438 125.496 41.2798 140.664C45.4238 143.32 47.9998 148.424 47.9998 154V168C47.9998 185.648 62.3518 200 79.9998 200ZM79.9998 184C71.1758 184 63.9998 176.824 63.9998 168H95.9998C95.9998 176.824 88.8238 184 79.9998 184ZM71.9998 80C71.9998 75.592 75.5838 72 79.9998 72C84.4158 72 87.9998 75.592 87.9998 80C87.9998 84.408 84.4158 88 79.9998 88C75.5838 88 71.9998 84.408 71.9998 80ZM24.4798 72.6C27.6718 47.504 48.2718 27.216 73.4398 24.368C75.6638 24.12 77.8718 24 80.0638 24C93.8718 24 106.896 28.936 117.296 38.224C129.176 48.84 136 64.072 136 80C136 99.12 126.376 116.728 110.248 127.096C101.784 132.528 96.6158 141.752 96.1038 152H87.9998V102.528C97.2878 99.216 104 90.416 104 80C104 66.768 93.2318 56 79.9998 56C66.7678 56 55.9998 66.768 55.9998 80C55.9998 90.416 62.7118 99.216 71.9998 102.528V152H63.8798C63.2878 141.664 58.1918 132.48 49.8878 127.184C31.4318 115.384 21.6878 94.472 24.4798 72.6V72.6Z" fill="black"/>
<path d="M504 74.232L484.36 67.68L493.616 49.168L462.832 18.384L444.312 27.648L437.768 8H394.24L387.696 27.648L369.176 18.384L338.392 49.168L347.648 67.68L328 74.232V117.76L347.64 124.312L338.384 142.824L369.168 173.608L387.688 164.344L394.232 184H437.76L444.304 164.352L462.824 173.616L493.608 142.832L484.352 124.32L504 117.768V74.232ZM488 106.232L469.648 112.352L468.296 115.88C467.896 116.904 467.496 117.92 467.056 118.912L465.504 122.376L474.152 139.672L459.68 154.144L442.384 145.496L438.92 147.048C437.936 147.488 436.936 147.888 435.92 148.272L432.36 149.616L426.232 168H405.76L399.632 149.616L396.072 148.272C395.056 147.888 394.056 147.488 393.072 147.048L389.608 145.496L372.312 154.144L357.84 139.672L366.488 122.376L364.936 118.912C364.488 117.912 364.096 116.904 363.696 115.88L362.344 112.352L344 106.232V85.76L362.352 79.64L363.704 76.112C364.104 75.088 364.504 74.072 364.944 73.08L366.496 69.616L357.848 52.32L372.32 37.848L389.616 46.496L393.08 44.944C394.064 44.504 395.064 44.104 396.08 43.72L399.64 42.376L405.768 24H426.24L432.368 42.384L435.928 43.728C436.944 44.112 437.944 44.512 438.928 44.952L442.392 46.504L459.688 37.856L474.16 52.328L465.512 69.624L467.064 73.088C467.512 74.088 467.904 75.096 468.304 76.12L469.656 79.648L488 85.768V106.232Z" fill="black"/>
<path d="M416 56C393.944 56 376 73.944 376 96C376 118.056 393.944 136 416 136C438.056 136 456 118.056 456 96C456 73.944 438.056 56 416 56ZM416 120C402.768 120 392 109.232 392 96C392 82.768 402.768 72 416 72C429.232 72 440 82.768 440 96C440 109.232 429.232 120 416 120Z" fill="black"/>
</svg>
