<svg width="343" height="295" viewBox="0 0 343 295" fill="none" xmlns="http://www.w3.org/2000/svg">
<path d="M289.406 124.453H278.688C269.823 124.453 262.609 130.657 262.609 138.281V140.042L260.594 140.909C255.224 143.218 251.891 147.86 251.891 153.017C251.891 156.636 253.531 160.033 256.5 162.591L262.609 167.846V209.1C262.609 209.75 262.299 210.386 261.768 210.847C261.119 211.4 260.203 211.658 259.303 211.543L256.269 211.142C254.034 204.804 248.257 200.586 243.439 197.111C238.696 193.691 235.812 191.432 235.812 188.984C235.812 182.637 237.04 178.424 238.331 173.972C239.725 169.169 241.172 164.2 241.172 156.719C241.172 144.398 233.776 135.364 230.453 131.925V131.367C230.453 102.139 202.804 78.3594 168.82 78.3594C134.837 78.3594 107.188 102.139 107.188 131.367V163.038C101.469 165.827 91.1094 173.077 91.1094 188.984C91.1094 196.806 95.1825 203.578 100.88 209.266L83.7081 211.538C82.7809 211.658 81.8805 211.395 81.2374 210.842C80.7015 210.381 80.396 209.745 80.396 209.095V167.841L86.5057 162.586C89.4694 160.037 91.1094 156.636 91.1094 153.017C91.1094 147.855 87.7758 143.218 82.4058 140.909L80.3906 140.042V138.281C80.3906 130.657 73.1769 124.453 64.3125 124.453H53.5938C44.7293 124.453 37.5156 130.657 37.5156 138.281V213.903C37.5156 222.84 41.562 231.248 48.915 237.576C57.4686 244.928 69.2592 248.422 81.2642 247.118L107.188 244.334V290.391H235.812V244.334L261.736 247.118C273.73 248.427 285.526 244.928 294.085 237.572C301.438 231.248 305.484 222.84 305.484 213.903V138.281C305.484 130.657 298.271 124.453 289.406 124.453ZM265.391 149.155L273.328 145.739V138.281C273.328 135.741 275.729 133.672 278.688 133.672H289.406C292.365 133.672 294.766 135.741 294.766 138.281V161.328H270.188L264.078 156.073C263.135 155.258 262.609 154.174 262.609 153.017C262.609 151.372 263.671 149.892 265.391 149.155ZM114.24 170.312L117.906 169.261V131.367C117.906 107.223 140.748 87.5781 168.82 87.5781C196.893 87.5781 219.734 107.223 219.734 131.367V135.58L221.305 136.931C221.396 137.009 230.453 144.937 230.453 156.719C230.453 163.066 229.226 167.279 227.934 171.731C226.541 176.534 225.094 181.503 225.094 188.984C225.094 195.912 231.182 200.3 236.552 204.172C238.942 205.896 241.258 207.569 243.064 209.39L198.297 203.467V194.677C208.083 187.91 214.375 177.553 214.375 165.938V129.062H185.461C173.88 129.062 162.668 126.145 153.032 120.618L150.062 118.913L128.625 131.206V165.938C128.625 179.503 137.211 191.344 149.923 197.751C149.661 200.476 148.932 203.167 146.943 205.039L143.492 208.298L147.115 211.414C152.271 215.843 155.379 218.535 155.417 225.753L155.074 229.584C154.028 235.433 150.052 244.444 136.412 251.695C133.041 246.809 128.143 243.098 123.694 239.734C121.454 238.037 119.53 236.53 117.906 235.087V235.078H117.896C114.514 232.073 112.547 229.349 112.547 225.859C112.547 223.094 113.126 220.9 113.833 219.226C125.104 226.104 136.525 229.87 137.463 230.174L141.23 221.54C130.27 218.01 101.828 205.269 101.828 188.984C101.828 174.294 113.78 170.45 114.24 170.312ZM171.5 193.594C153.766 193.594 139.344 181.19 139.344 165.938V136.138L150.148 129.943C160.835 135.405 172.963 138.281 185.461 138.281H203.656V165.938C203.656 181.19 189.234 193.594 171.5 193.594ZM171.5 202.812C177.186 202.812 182.61 201.835 187.578 200.098V205.514L169.281 221.25H165.723C164.645 215.004 161.446 211.022 157.796 207.629C159.002 205.638 159.709 203.536 160.143 201.457C163.772 202.315 167.566 202.812 171.5 202.812ZM165.755 230.469H169.281L174.7 235.129L181.495 281.172H161.21L165.733 230.616C165.739 230.566 165.744 230.519 165.755 230.469ZM179.078 225.859L194.808 212.331L195.676 212.446L189.824 235.097L179.078 225.859ZM53.5938 133.672H64.3125C67.2709 133.672 69.6719 135.741 69.6719 138.281V145.739L77.6091 149.155C79.3295 149.892 80.3906 151.372 80.3906 153.017C80.3906 154.17 79.8654 155.258 78.9222 156.073L72.8125 161.328H48.2344V138.281C48.2344 135.741 50.6354 133.672 53.5938 133.672ZM79.9351 237.973C71.1993 238.899 62.694 236.387 56.4932 231.059C51.1713 226.472 48.2344 220.379 48.2344 213.903V170.547H69.6719V209.1C69.6719 212.22 71.0868 215.156 73.6539 217.364C76.698 219.987 81.0659 221.209 85.332 220.651L102.954 218.318C102.289 220.476 101.828 222.969 101.828 225.859C101.828 229.492 102.959 232.594 104.728 235.341L79.9351 237.973ZM117.906 247.648C122.698 251.299 127.076 254.875 128.904 259.582L130.855 264.624L136.38 262.246C143.513 259.181 148.916 255.673 153.064 252.045L150.459 281.172H117.906V247.648ZM286.507 231.054C280.306 236.387 271.79 238.904 263.065 237.973L236.477 235.115L225.094 235.078V281.172H192.3L187.074 245.772L196.051 253.493L206.293 213.852L257.673 220.651C261.923 221.209 266.297 219.982 269.346 217.364C271.913 215.156 273.328 212.22 273.328 209.1V170.547H294.766V213.903C294.766 220.379 291.829 226.472 286.507 231.054Z" fill="#D0D0D0"/>
<path d="M171.5 69.1406C192.182 69.1406 209.016 54.6672 209.016 36.875C209.016 19.0828 192.182 4.60938 171.5 4.60938C150.818 4.60938 133.984 19.0828 133.984 36.875C133.984 54.6672 150.818 69.1406 171.5 69.1406ZM171.5 13.8281C186.276 13.8281 198.297 24.167 198.297 36.875C198.297 49.583 186.276 59.9219 171.5 59.9219C156.724 59.9219 144.703 49.583 144.703 36.875C144.703 24.167 156.724 13.8281 171.5 13.8281Z" fill="#D0D0D0"/>
<path d="M191.367 30.9151L183.789 24.3975L166.141 39.5761L159.211 33.6162L151.633 40.1339L166.141 52.6114L191.367 30.9151Z" fill="#D0D0D0"/>
<path d="M53.5936 115.234C65.4164 115.234 75.0313 106.965 75.0313 96.7968V88.5368C75.0313 85.4532 76.7998 82.5585 79.651 80.9821C93.5372 73.3028 101.828 60.2629 101.828 46.0937C101.828 34.2937 95.9543 23.0146 85.7178 15.151C75.4922 7.28737 61.7506 3.54457 47.9931 4.88129C26.2769 6.99698 8.52128 22.042 5.76119 40.6639C3.36555 56.8335 11.753 72.3072 27.6542 81.0466C30.4304 82.5769 32.1561 85.5177 32.1561 88.7304V96.7968C32.1561 106.965 41.7708 115.234 53.5936 115.234ZM53.5936 106.016C47.6822 106.016 42.8749 101.881 42.8749 96.7968H64.3124C64.3124 101.881 59.505 106.016 53.5936 106.016ZM48.2342 46.0937C48.2342 43.5539 50.6352 41.4843 53.5936 41.4843C56.552 41.4843 58.953 43.5539 58.953 46.0937C58.953 48.6335 56.552 50.7031 53.5936 50.7031C50.6352 50.7031 48.2342 48.6335 48.2342 46.0937ZM16.3996 41.83C18.5379 27.3704 32.3383 15.681 49.1989 14.0401C50.6888 13.8972 52.168 13.8281 53.6365 13.8281C62.8868 13.8281 71.612 16.6721 78.5792 22.0235C86.5378 28.1402 91.1094 36.9164 91.1094 46.0937C91.1094 57.1101 84.6621 67.2553 73.8576 73.2291C68.1873 76.3589 64.725 81.6735 64.382 87.5781H58.953V59.0737C65.1752 57.1654 69.6719 52.0951 69.6719 46.0937C69.6719 38.4698 62.458 32.2656 53.5936 32.2656C44.7292 32.2656 37.5155 38.4698 37.5155 46.0937C37.5155 52.0951 42.012 57.1654 48.2342 59.0737V87.5781H42.7945C42.3979 81.6228 38.984 76.3312 33.4209 73.2798C21.0569 66.481 14.5291 54.4321 16.3996 41.83Z" fill="#D0D0D0"/>
<path d="M337.641 42.7704L324.483 38.9953L330.684 28.3292L310.061 10.5923L297.654 15.93L293.27 4.60938H264.11L259.726 15.93L247.319 10.5923L226.696 28.3292L232.897 38.9953L219.734 42.7704V67.85L232.892 71.6251L226.691 82.2912L247.314 100.028L259.721 94.6904L264.105 106.016H293.265L297.649 94.695L310.056 100.033L330.679 82.2958L324.478 71.6297L337.641 67.8546V42.7704ZM326.922 61.2079L314.627 64.7341L313.722 66.7668C313.454 67.3568 313.186 67.9422 312.891 68.5138L311.851 70.5096L317.645 80.4751L307.95 88.8134L296.363 83.8307L294.042 84.7249C293.383 84.9784 292.713 85.2089 292.032 85.4302L289.647 86.2045L285.542 96.7969H271.828L267.722 86.2045L265.337 85.4302C264.657 85.2089 263.987 84.9784 263.328 84.7249L261.007 83.8307L249.42 88.8134L239.725 80.4751L245.518 70.5096L244.479 68.5138C244.178 67.9376 243.916 67.3568 243.648 66.7668L242.742 64.7341L230.453 61.2079V49.4125L242.748 45.8863L243.653 43.8536C243.921 43.2636 244.189 42.6782 244.484 42.1066L245.524 40.1108L239.73 30.1453L249.425 21.807L261.012 26.7897L263.333 25.8955C263.992 25.642 264.662 25.4115 265.343 25.1902L267.728 24.4159L271.833 13.8281H285.547L289.653 24.4205L292.038 25.1948C292.718 25.4161 293.388 25.6466 294.047 25.9001L296.368 26.7943L307.955 21.8116L317.65 30.1499L311.857 40.1154L312.896 42.1112C313.197 42.6874 313.459 43.2682 313.727 43.8582L314.633 45.8909L326.922 49.4171V61.2079Z" fill="#D0D0D0"/>
<path d="M278.688 32.2656C263.912 32.2656 251.891 42.6045 251.891 55.3125C251.891 68.0205 263.912 78.3594 278.688 78.3594C293.463 78.3594 305.484 68.0205 305.484 55.3125C305.484 42.6045 293.463 32.2656 278.688 32.2656ZM278.688 69.1406C269.823 69.1406 262.609 62.9364 262.609 55.3125C262.609 47.6886 269.823 41.4844 278.688 41.4844C287.552 41.4844 294.766 47.6886 294.766 55.3125C294.766 62.9364 287.552 69.1406 278.688 69.1406Z" fill="#D0D0D0"/>
</svg>
