<svg width="512" height="512" viewBox="0 0 512 512" fill="none" xmlns="http://www.w3.org/2000/svg">
<path d="M42.6671 221.866C47.38 221.866 51.2005 218.046 51.2005 213.333C51.2005 208.62 47.38 204.8 42.6671 204.8C37.9543 204.8 34.1338 208.62 34.1338 213.333C34.1338 218.046 37.9543 221.866 42.6671 221.866Z" fill="black"/>
<path d="M42.6671 290.134C47.38 290.134 51.2005 286.313 51.2005 281.6C51.2005 276.887 47.38 273.067 42.6671 273.067C37.9543 273.067 34.1338 276.887 34.1338 281.6C34.1338 286.313 37.9543 290.134 42.6671 290.134Z" fill="black"/>
<path d="M42.6671 358.4C47.38 358.4 51.2005 354.579 51.2005 349.867C51.2005 345.154 47.38 341.333 42.6671 341.333C37.9543 341.333 34.1338 345.154 34.1338 349.867C34.1338 354.579 37.9543 358.4 42.6671 358.4Z" fill="black"/>
<path d="M486.4 34.1333H418.133C413.421 34.1333 409.6 30.3128 409.6 25.6C409.6 11.4615 398.139 0 384 0H332.8C318.662 0 307.2 11.4615 307.2 25.6V85.3333H281.6C267.462 85.3333 256 96.7948 256 110.933V247.467H221.867V153.6C221.813 153.065 221.708 152.536 221.551 152.021C221.708 151.132 221.814 150.235 221.867 149.333C221.867 118.852 164.693 102.4 110.933 102.4C57.1733 102.4 0 118.852 0 149.333C0.0531596 150.235 0.158581 151.132 0.315733 152.021C0.159072 152.536 0.0533198 153.065 0 153.6V358.4C0 386.415 55.808 401.067 110.933 401.067C166.059 401.067 221.867 386.415 221.867 358.4V264.533H256V401.067C256 415.205 267.462 426.667 281.6 426.667H307.2V486.4C307.2 500.539 318.662 512 332.8 512H486.4C500.539 512 512 500.539 512 486.4V418.133C512 403.995 500.539 392.533 486.4 392.533H418.133C413.421 392.533 409.6 388.713 409.6 384C409.6 369.862 398.139 358.4 384 358.4H332.8C318.662 358.4 307.2 369.862 307.2 384V409.6H281.6C276.887 409.6 273.067 405.78 273.067 401.067V264.533H307.2V307.2C307.2 321.339 318.662 332.8 332.8 332.8H486.4C500.539 332.8 512 321.339 512 307.2V238.933C512 224.795 500.539 213.333 486.4 213.333H418.133C413.421 213.333 409.6 209.513 409.6 204.8C409.6 190.662 398.139 179.2 384 179.2H332.8C318.662 179.2 307.2 190.662 307.2 204.8V247.467H273.067V110.933C273.067 106.221 276.887 102.4 281.6 102.4H307.2V128C307.2 142.138 318.662 153.6 332.8 153.6H486.4C500.539 153.6 512 142.138 512 128V59.7333C512 45.5948 500.539 34.1333 486.4 34.1333ZM204.8 221.867C204.8 230.554 171.665 247.467 110.933 247.467C50.2016 247.467 17.0667 230.554 17.0667 221.867V175.113C38.016 188.954 75.1701 196.267 110.933 196.267C146.697 196.267 183.851 188.954 204.8 175.113V221.867ZM17.0667 245.615C37.7685 258.074 74.4533 264.533 110.933 264.533C147.413 264.533 184.098 258.074 204.8 245.615V290.133C204.8 298.82 171.665 315.733 110.933 315.733C50.2016 315.733 17.0667 298.82 17.0667 290.133V245.615ZM110.933 119.467C168.235 119.467 204.8 137.156 204.8 149.333C204.8 161.51 168.235 179.2 110.933 179.2C53.632 179.2 17.0667 161.51 17.0667 149.333C17.0667 137.156 53.632 119.467 110.933 119.467V119.467ZM110.933 384C50.2016 384 17.0667 367.087 17.0667 358.4V313.882C37.7685 326.34 74.4533 332.8 110.933 332.8C147.413 332.8 184.098 326.34 204.8 313.882V358.4C204.8 367.087 171.665 384 110.933 384ZM324.267 384C324.267 379.287 328.087 375.467 332.8 375.467H384C388.713 375.467 392.533 379.287 392.533 384C392.533 398.139 403.995 409.6 418.133 409.6H486.4C491.113 409.6 494.933 413.421 494.933 418.133V486.4C494.933 491.113 491.113 494.933 486.4 494.933H332.8C328.087 494.933 324.267 491.113 324.267 486.4V384ZM324.267 204.8C324.267 200.087 328.087 196.267 332.8 196.267H384C388.713 196.267 392.533 200.087 392.533 204.8C392.533 218.939 403.995 230.4 418.133 230.4H486.4C491.113 230.4 494.933 234.221 494.933 238.933V307.2C494.933 311.913 491.113 315.733 486.4 315.733H332.8C328.087 315.733 324.267 311.913 324.267 307.2V204.8ZM494.933 128C494.933 132.713 491.113 136.533 486.4 136.533H332.8C328.087 136.533 324.267 132.713 324.267 128V25.6C324.267 20.8872 328.087 17.0667 332.8 17.0667H384C388.713 17.0667 392.533 20.8872 392.533 25.6C392.533 39.7385 403.995 51.2 418.133 51.2H486.4C491.113 51.2 494.933 55.0205 494.933 59.7333V128Z" fill="black"/>
<path d="M349.866 119.467C354.579 119.467 358.4 115.646 358.4 110.933C358.4 106.22 354.579 102.4 349.866 102.4C345.154 102.4 341.333 106.22 341.333 110.933C341.333 115.646 345.154 119.467 349.866 119.467Z" fill="black"/>
<path d="M349.866 85.3333C354.579 85.3333 358.4 81.5128 358.4 76.7999C358.4 72.0871 354.579 68.2666 349.866 68.2666C345.154 68.2666 341.333 72.0871 341.333 76.7999C341.333 81.5128 345.154 85.3333 349.866 85.3333Z" fill="black"/>
<path d="M349.866 298.667C354.579 298.667 358.4 294.846 358.4 290.133C358.4 285.421 354.579 281.6 349.866 281.6C345.154 281.6 341.333 285.421 341.333 290.133C341.333 294.846 345.154 298.667 349.866 298.667Z" fill="black"/>
<path d="M349.866 264.533C354.579 264.533 358.4 260.713 358.4 256C358.4 251.287 354.579 247.467 349.866 247.467C345.154 247.467 341.333 251.287 341.333 256C341.333 260.713 345.154 264.533 349.866 264.533Z" fill="black"/>
<path d="M349.866 477.867C354.579 477.867 358.4 474.046 358.4 469.333C358.4 464.621 354.579 460.8 349.866 460.8C345.154 460.8 341.333 464.621 341.333 469.333C341.333 474.046 345.154 477.867 349.866 477.867Z" fill="black"/>
<path d="M349.866 443.733C354.579 443.733 358.4 439.913 358.4 435.2C358.4 430.487 354.579 426.667 349.866 426.667C345.154 426.667 341.333 430.487 341.333 435.2C341.333 439.913 345.154 443.733 349.866 443.733Z" fill="black"/>
</svg>
