<svg width="512" height="512" viewBox="0 0 512 512" fill="none" xmlns="http://www.w3.org/2000/svg">
<path d="M334.58 299.45L262.58 195.45C261.844 194.386 260.861 193.516 259.715 192.915C258.569 192.314 257.294 192 256 192C254.706 192 253.431 192.314 252.285 192.915C251.139 193.516 250.156 194.386 249.42 195.45L177.42 299.45C176.713 300.47 176.254 301.642 176.079 302.871C175.903 304.1 176.017 305.352 176.41 306.53L196.9 368H192C189.878 368 187.843 368.843 186.343 370.343C184.843 371.843 184 373.878 184 376V400C184 402.122 184.843 404.156 186.343 405.657C187.843 407.157 189.878 408 192 408H200V496C200 498.122 200.843 500.156 202.343 501.657C203.843 503.157 205.878 504 208 504H304C306.122 504 308.157 503.157 309.657 501.657C311.157 500.156 312 498.122 312 496V408H320C322.122 408 324.157 407.157 325.657 405.657C327.157 404.156 328 402.122 328 400V376C328 373.878 327.157 371.843 325.657 370.343C324.157 368.843 322.122 368 320 368H315.1L335.59 306.53C335.983 305.352 336.097 304.1 335.921 302.871C335.746 301.642 335.287 300.47 334.58 299.45V299.45ZM256 288C257.582 288 259.129 288.469 260.445 289.348C261.76 290.227 262.785 291.477 263.391 292.938C263.996 294.4 264.155 296.009 263.846 297.561C263.538 299.112 262.776 300.538 261.657 301.657C260.538 302.776 259.113 303.537 257.561 303.846C256.009 304.155 254.4 303.996 252.939 303.391C251.477 302.785 250.227 301.76 249.348 300.444C248.469 299.129 248 297.582 248 296C248.003 293.879 248.847 291.846 250.346 290.346C251.846 288.847 253.879 288.003 256 288V288ZM296 488H216V408H296V488ZM312 392H200V384H312V392ZM298.23 368H213.77L192.85 305.27L248 225.61V272C248.004 272.449 248.044 272.897 248.12 273.34C242.762 275.202 238.237 278.902 235.347 283.784C232.458 288.665 231.391 294.412 232.335 300.005C233.279 305.598 236.174 310.676 240.506 314.338C244.838 318 250.328 320.009 256 320.009C261.672 320.009 267.161 318 271.494 314.338C275.826 310.676 278.721 305.598 279.665 300.005C280.609 294.412 279.542 288.665 276.653 283.784C273.763 278.902 269.238 275.202 263.88 273.34C263.956 272.897 263.996 272.449 264 272V225.61L319.15 305.27L298.23 368Z" fill="black"/>
<path d="M496 96H464C461.878 96 459.843 96.8429 458.343 98.3431C456.843 99.8434 456 101.878 456 104V112.07C455.668 112.026 455.334 112.003 455 112H280V104C280 101.878 279.157 99.8434 277.657 98.3431C276.157 96.8429 274.122 96 272 96H264V56H272C274.122 56 276.157 55.1571 277.657 53.6569C279.157 52.1566 280 50.1217 280 48V16C280 13.8783 279.157 11.8434 277.657 10.3431C276.157 8.84285 274.122 8 272 8H240C237.878 8 235.843 8.84285 234.343 10.3431C232.843 11.8434 232 13.8783 232 16V48C232 50.1217 232.843 52.1566 234.343 53.6569C235.843 55.1571 237.878 56 240 56H248V96H240C237.878 96 235.843 96.8429 234.343 98.3431C232.843 99.8434 232 101.878 232 104V112H56V104C56 101.878 55.1571 99.8434 53.6569 98.3431C52.1566 96.8429 50.1217 96 48 96H16C13.8783 96 11.8434 96.8429 10.3431 98.3431C8.84285 99.8434 8 101.878 8 104V136C8 138.122 8.84285 140.157 10.3431 141.657C11.8434 143.157 13.8783 144 16 144H48C50.1217 144 52.1566 143.157 53.6569 141.657C55.1571 140.157 56 138.122 56 136V128H188.26C177.701 134.985 168.264 143.533 160.27 153.35C139.76 178.22 128 209.8 128 240H120C117.878 240 115.843 240.843 114.343 242.343C112.843 243.843 112 245.878 112 248V280C112 282.122 112.843 284.157 114.343 285.657C115.843 287.157 117.878 288 120 288H152C154.122 288 156.157 287.157 157.657 285.657C159.157 284.157 160 282.122 160 280V248C160 245.878 159.157 243.843 157.657 242.343C156.157 240.843 154.122 240 152 240H144C144 180.68 189.64 133.89 232 128.52V136C232 138.122 232.843 140.157 234.343 141.657C235.843 143.157 237.878 144 240 144H272C274.122 144 276.157 143.157 277.657 141.657C279.157 140.157 280 138.122 280 136V128.49C301.66 131.06 322.45 144.04 339.23 165.69C355.56 186.74 365.93 214 367.72 240H360C357.878 240 355.843 240.843 354.343 242.343C352.843 243.843 352 245.878 352 248V280C352 282.122 352.843 284.157 354.343 285.657C355.843 287.157 357.878 288 360 288H392C394.122 288 396.157 287.157 397.657 285.657C399.157 284.157 400 282.122 400 280V248C400 245.878 399.157 243.843 397.657 242.343C396.157 240.843 394.122 240 392 240H383.75C382 210.29 370.61 180.03 351.88 155.88C343.643 145.066 333.716 135.652 322.48 128H455C455.334 127.997 455.668 127.974 456 127.93V136C456 138.122 456.843 140.157 458.343 141.657C459.843 143.157 461.878 144 464 144H496C498.122 144 500.157 143.157 501.657 141.657C503.157 140.157 504 138.122 504 136V104C504 101.878 503.157 99.8434 501.657 98.3431C500.157 96.8429 498.122 96 496 96ZM40 128H24V112H40V128ZM144 272H128V256H144V272ZM248 24H264V40H248V24ZM264 128H248V112H264V128ZM368 256H384V272H368V256ZM488 128H472V112H488V128Z" fill="black"/>
</svg>
