<svg width="136" height="106" viewBox="0 0 136 106" fill="none" xmlns="http://www.w3.org/2000/svg">
<path d="M30.3692 29.22C23.4322 29.22 17.8091 24.8367 17.8091 19.4305C17.8091 14.0237 23.4322 9.6416 30.3692 9.6416C37.3055 9.6416 42.9286 14.0237 42.9286 19.4305C42.922 24.8341 37.3022 29.2143 30.3692 29.22ZM30.3692 12.9046C25.7443 12.9046 21.9955 15.8257 21.9955 19.4305C21.9955 23.0346 25.7443 25.9571 30.3692 25.9571C34.9934 25.9571 38.7421 23.0346 38.7421 19.4305C38.7421 15.8257 34.9934 12.9046 30.3692 12.9046Z" fill="black"/>
<path d="M80.6083 74.9034V84.6929H57.5824V62.3062L45.0223 59.0426V42.2725H63.8617C69.6394 42.2668 74.3217 38.6174 74.329 34.1148V30.8518H15.7155C9.93781 30.8563 5.25639 34.5057 5.24902 39.0095V56.9561C5.24902 59.6592 8.06098 61.8509 11.5291 61.8509H15.7155V91.2188H5.24902V102.64H9.43629V94.4818H38.7422V102.64H42.9287V87.9559H80.6083V102.64H84.7955V78.1664H126.662V102.64H130.848V74.9034H80.6083ZM15.7155 40.6407V58.5879H11.5291C10.3731 58.5879 9.43629 57.8572 9.43629 56.9561V39.0095C9.43629 36.3052 12.2474 34.1148 15.7155 34.1148H70.1418C70.1418 36.8179 67.3298 39.0095 63.8617 39.0095H40.8358V61.3956L53.3952 64.6586V84.6929H47.1159V67.2462L26.1821 61.1278V91.2188H19.9028V40.6407H15.7155ZM38.7422 84.6929V91.2188H30.3693V65.837L42.9287 69.5074V84.6929H38.7422Z" fill="black"/>
<path d="M97.3553 70.0087H114.102V29.22H126.223L105.729 3.26489L85.2354 29.22H97.3553V70.0087ZM92.7295 25.9571L105.729 9.49048L118.729 25.9571H109.915V66.7457H101.543V25.9571H92.7295Z" fill="black"/>
</svg>
