<svg width="512" height="512" viewBox="0 0 512 512" fill="none" xmlns="http://www.w3.org/2000/svg">
<path d="M256 230.4C254.754 230.4 253.517 230.127 252.365 229.589L107.298 161.323C104.311 159.915 102.4 156.902 102.4 153.6C102.4 150.298 104.311 147.285 107.298 145.877L252.365 77.6107C254.669 76.5269 257.331 76.5269 259.635 77.6107L404.702 145.877C407.688 147.285 409.6 150.298 409.6 153.6C409.6 156.902 407.688 159.915 404.702 161.323L259.635 229.589C258.483 230.127 257.246 230.4 256 230.4ZM130.978 153.6L256 212.437L381.022 153.6L256 94.7626L130.978 153.6Z" fill="#D0D0D0"/>
<path d="M256 298.667C254.695 298.667 253.38 298.368 252.186 297.771L149.786 246.571C146.893 245.12 145.067 242.167 145.067 238.933V173.679C145.067 170.761 146.56 168.038 149.026 166.477C151.493 164.907 154.59 164.727 157.227 165.956L256 212.437L354.765 165.956C357.41 164.719 360.508 164.907 362.966 166.477C365.44 168.038 366.934 170.761 366.934 173.679V238.933C366.934 242.167 365.107 245.12 362.215 246.571L259.815 297.771C258.62 298.368 257.306 298.667 256 298.667ZM162.134 233.66L256 280.593L349.867 233.66V187.127L259.635 229.589C257.331 230.673 254.669 230.673 252.365 229.589L162.134 187.127V233.66Z" fill="#D0D0D0"/>
<path d="M401.067 162.134H256C251.29 162.134 247.467 158.311 247.467 153.6C247.467 148.89 251.29 145.067 256 145.067H401.067C405.777 145.067 409.6 148.89 409.6 153.6C409.6 158.311 405.777 162.134 401.067 162.134Z" fill="#D0D0D0"/>
<path d="M401.067 238.934C396.356 238.934 392.533 235.111 392.533 230.4V153.6C392.533 148.89 396.356 145.067 401.067 145.067C405.777 145.067 409.6 148.89 409.6 153.6V230.4C409.6 235.111 405.777 238.934 401.067 238.934Z" fill="#D0D0D0"/>
<path d="M256 179.2C251.29 179.2 247.467 175.377 247.467 170.667V136.533C247.467 131.823 251.29 128 256 128C260.711 128 264.533 131.823 264.533 136.533V170.667C264.533 175.377 260.711 179.2 256 179.2Z" fill="#D0D0D0"/>
<path d="M383.991 264.533C382.37 264.533 380.723 264.072 379.264 263.1C375.347 260.488 374.289 255.189 376.9 251.264L393.967 225.664C396.578 221.739 401.869 220.672 405.803 223.3C409.719 225.911 410.778 231.211 408.166 235.136L391.1 260.736C389.453 263.202 386.748 264.533 383.991 264.533Z" fill="#D0D0D0"/>
<path d="M418.142 264.533C415.385 264.533 412.68 263.202 411.033 260.736L393.967 235.136C391.355 231.219 392.414 225.911 396.33 223.3C400.247 220.672 405.546 221.739 408.166 225.664L425.233 251.264C427.844 255.181 426.786 260.488 422.869 263.1C421.41 264.072 419.763 264.533 418.142 264.533Z" fill="#D0D0D0"/>
<path d="M256 256C251.29 256 247.467 252.177 247.467 247.467V221.867C247.467 217.156 251.29 213.333 256 213.333C260.711 213.333 264.533 217.156 264.533 221.867V247.467C264.533 252.177 260.711 256 256 256Z" fill="#D0D0D0"/>
<path d="M503.467 332.8H8.53333C3.82293 332.8 0 328.977 0 324.267V42.6751C0 23.8505 15.3173 8.5332 34.1419 8.5332H477.858C496.683 8.5332 512 23.8505 512 42.6751V324.267C512 328.977 508.177 332.8 503.467 332.8ZM17.0667 315.733H494.933V42.6751C494.933 33.2543 487.279 25.5999 477.858 25.5999H34.1419C24.7211 25.5999 17.0667 33.2543 17.0667 42.6751V315.733Z" fill="#D0D0D0"/>
<path d="M477.858 401.067H34.1419C15.3173 401.067 0 385.749 0 366.925V324.267C0 319.556 3.82293 315.733 8.53333 315.733H503.467C508.177 315.733 512 319.556 512 324.267V366.925C512 385.749 496.683 401.067 477.858 401.067ZM17.0667 332.8V366.925C17.0667 376.346 24.7211 384 34.1419 384H477.858C487.279 384 494.933 376.346 494.933 366.925V332.8H17.0667Z" fill="#D0D0D0"/>
<path d="M281.6 366.933H230.4C225.69 366.933 221.867 363.11 221.867 358.4C221.867 353.69 225.69 349.867 230.4 349.867H281.6C286.31 349.867 290.133 353.69 290.133 358.4C290.133 363.11 286.31 366.933 281.6 366.933Z" fill="#D0D0D0"/>
<path d="M469.333 332.8H42.6666C37.9562 332.8 34.1333 328.977 34.1333 324.267V51.1998C34.1333 46.4894 37.9562 42.6665 42.6666 42.6665H469.333C474.044 42.6665 477.867 46.4894 477.867 51.1998V324.267C477.867 328.977 474.044 332.8 469.333 332.8ZM51.2 315.733H460.8V59.7332H51.2V315.733Z" fill="#D0D0D0"/>
<path d="M366.933 503.467H145.067C130.953 503.467 119.467 491.981 119.467 477.867C119.467 463.752 130.953 452.267 145.067 452.267H366.933C381.048 452.267 392.533 463.752 392.533 477.867C392.533 491.981 381.048 503.467 366.933 503.467ZM145.067 469.333C140.365 469.333 136.533 473.165 136.533 477.867C136.533 482.568 140.365 486.4 145.067 486.4H366.933C371.635 486.4 375.467 482.568 375.467 477.867C375.467 473.165 371.635 469.333 366.933 469.333H145.067Z" fill="#D0D0D0"/>
<path d="M349.867 469.333H162.133C157.423 469.333 153.6 465.51 153.6 460.8C153.6 456.09 157.423 452.267 162.133 452.267C190.447 452.267 204.8 432.171 204.8 392.533C204.8 387.823 208.623 384 213.333 384H298.667C303.377 384 307.2 387.823 307.2 392.533C307.2 432.171 321.553 452.267 349.867 452.267C354.577 452.267 358.4 456.09 358.4 460.8C358.4 465.51 354.577 469.333 349.867 469.333ZM203.699 452.267H308.309C297.796 440.627 291.61 423.296 290.372 401.067H221.636C220.39 423.296 214.212 440.627 203.699 452.267Z" fill="#D0D0D0"/>
</svg>
