<svg width="512" height="512" viewBox="0 0 512 512" fill="none" xmlns="http://www.w3.org/2000/svg">
<path d="M467 17H45C20.1875 17 0 37.1875 0 62V365.996C0 390.809 20.1875 410.996 45 410.996H192.727V464.43H151.285C143 464.43 136.285 471.145 136.285 479.43C136.285 487.715 143 494.43 151.285 494.43H360.719C369.004 494.43 375.719 487.715 375.719 479.43C375.719 471.145 369.004 464.43 360.719 464.43H319.277V410.996H467C491.812 410.996 512 390.809 512 365.996V62C512 37.1875 491.812 17 467 17V17ZM467 380.996H45C36.7305 380.996 30 374.266 30 365.996V325.719H482V365.996C482 374.27 475.27 380.996 467 380.996V380.996ZM222.727 464.43V410.996H289.273V464.43H222.727ZM45 47H467C475.27 47 482 53.7305 482 62V295.719H30V62C30 53.7305 36.7305 47 45 47Z" fill="black"/>
<path d="M262.48 339.73H249.523C241.238 339.73 234.523 346.445 234.523 354.73C234.523 363.012 241.238 369.73 249.523 369.73H262.48C270.762 369.73 277.48 363.012 277.48 354.73C277.48 346.445 270.762 339.73 262.48 339.73Z" fill="black"/>
<path d="M115.621 280.621H335.512C343.797 280.621 350.512 273.906 350.512 265.621V214.91H396.379C404.66 214.91 411.379 208.195 411.379 199.91V78.7891C411.379 70.5078 404.66 63.7891 396.379 63.7891H176.488C168.203 63.7891 161.488 70.5078 161.488 78.7891V129.504H115.621C107.34 129.504 100.621 136.219 100.621 144.504V265.621C100.621 273.906 107.34 280.621 115.621 280.621V280.621ZM130.621 159.504H320.512V250.621H130.621V159.504ZM381.379 93.7891V184.91H350.512V144.504C350.512 136.219 343.797 129.504 335.512 129.504H191.488V93.7891H381.379Z" fill="black"/>
<path d="M174.5 208.684H169.02C160.734 208.684 154.02 215.398 154.02 223.684C154.02 231.965 160.734 238.684 169.02 238.684H174.5C182.781 238.684 189.5 231.965 189.5 223.684C189.5 215.398 182.781 208.684 174.5 208.684Z" fill="black"/>
<path d="M284.07 216.441H278.59C270.305 216.441 263.59 223.156 263.59 231.441C263.59 239.727 270.305 246.441 278.59 246.441H284.07C292.352 246.441 299.07 239.727 299.07 231.441C299.07 223.156 292.355 216.441 284.07 216.441Z" fill="black"/>
<path d="M252.609 179.695C252.609 187.98 259.324 194.695 267.609 194.695H273.09C281.371 194.695 288.09 187.98 288.09 179.695C288.09 171.41 281.371 164.695 273.09 164.695H267.609C259.324 164.695 252.609 171.41 252.609 179.695Z" fill="black"/>
<path d="M249.195 209.277C249.195 200.992 242.477 194.277 234.195 194.277H228.715C220.43 194.277 213.715 200.992 213.715 209.277C213.715 217.562 220.43 224.277 228.715 224.277H234.195C242.48 224.277 249.195 217.562 249.195 209.277Z" fill="black"/>
<path d="M176.355 198.234H181.836C190.121 198.234 196.836 191.52 196.836 183.234C196.836 174.953 190.121 168.234 181.836 168.234H176.355C168.074 168.234 161.355 174.953 161.355 183.234C161.355 191.52 168.074 198.234 176.355 198.234Z" fill="black"/>
</svg>
