<svg width="184" height="39" viewBox="0 0 184 39" fill="none" xmlns="http://www.w3.org/2000/svg">
<path d="M54.591 9.034L54.446 13.819C54.446 16.4483 54.5233 18.807 54.678 20.895C54.8327 22.9637 55.1807 25.216 55.722 27.652C55.2967 28 54.62 28.174 53.692 28.174C51.894 28.174 50.995 27.391 50.995 25.825C50.995 24.5297 51.053 22.548 51.169 19.88C51.3043 17.212 51.372 15.124 51.372 13.616C50.328 15.124 49.226 16.9897 48.066 19.213C46.9253 21.417 46.355 22.7703 46.355 23.273C46.355 23.7757 46.4033 24.1623 46.5 24.433C46.0747 24.7037 45.5043 24.839 44.789 24.839C44.093 24.839 43.5033 24.6457 43.02 24.259C42.556 23.8723 42.1597 23.3407 41.831 22.664C41.5217 21.9873 40.961 20.663 40.149 18.691C39.3563 16.6997 38.6313 14.9887 37.974 13.558C37.4713 16.6707 37.22 19.4257 37.22 21.823C37.22 24.2203 37.2973 26.1633 37.452 27.652C36.8333 27.884 36.2147 28 35.596 28C34.3587 28 33.74 27.3813 33.74 26.144C33.74 25.1967 33.9527 23.3117 34.378 20.489C34.8227 17.647 35.045 15.2497 35.045 13.297C35.045 11.3443 34.9387 9.51733 34.726 7.816C35.77 7.54533 36.582 7.41 37.162 7.41C38.2253 7.41 38.9407 7.787 39.308 8.541C39.888 9.759 40.7387 11.702 41.86 14.37C43.0007 17.0187 43.9287 19.0583 44.644 20.489C44.8373 20.083 45.282 19.213 45.978 17.879C46.6933 16.5257 47.283 15.3753 47.747 14.428C48.2303 13.4613 48.7137 12.3207 49.197 11.006C49.6997 9.672 50.0187 8.512 50.154 7.526C50.85 7.33267 51.5267 7.236 52.184 7.236C52.8607 7.236 53.431 7.381 53.895 7.671C54.359 7.961 54.591 8.41533 54.591 9.034ZM71.7678 14.341C71.2458 16.5643 70.9848 18.7973 70.9848 21.04C70.9848 23.2633 71.2362 25.4673 71.7388 27.652C71.0428 27.884 70.3275 28 69.5928 28C68.8582 28 68.3458 27.7873 68.0558 27.362C67.7658 26.9173 67.6208 26.289 67.6208 25.477C67.6208 24.6457 67.7465 23.5147 67.9978 22.084C66.6252 25.0227 65.3008 26.8787 64.0248 27.652C63.4448 28 62.8455 28.174 62.2268 28.174C60.7575 28.174 59.6168 27.6327 58.8048 26.55C57.9928 25.448 57.5868 24.085 57.5868 22.461C57.5868 19.9863 58.2732 17.821 59.6458 15.965C61.0185 14.0897 62.7972 13.152 64.9818 13.152C67.1858 13.152 69.4478 13.5483 71.7678 14.341ZM67.9688 16.081C66.9442 15.7717 66.0742 15.617 65.3588 15.617C63.9088 15.617 62.8262 15.936 62.1108 16.574C61.4535 18.198 61.1248 19.851 61.1248 21.533C61.1248 22.4223 61.2602 23.3213 61.5308 24.23C61.8208 25.1387 62.2558 25.593 62.8358 25.593C63.5125 25.593 64.3825 24.5973 65.4458 22.606C66.5092 20.6147 67.3502 18.4397 67.9688 16.081ZM74.6366 23.186L74.9266 19.01C74.9266 17.1347 74.6559 15.356 74.1146 13.674C74.6559 13.442 75.3229 13.326 76.1156 13.326C77.6622 13.326 78.4356 14.1863 78.4356 15.907C78.4356 16.6803 78.3292 17.7727 78.1166 19.184C77.9039 20.5953 77.7976 21.5717 77.7976 22.113C77.7976 22.635 77.8072 23.0217 77.8266 23.273C77.8459 23.505 77.8942 23.7853 77.9716 24.114C78.0876 24.7713 78.4646 25.1 79.1026 25.1C79.7599 25.1 80.4559 24.5877 81.1906 23.563C81.9446 22.519 82.5439 21.3687 82.9886 20.112C83.4526 18.8553 83.6846 17.8597 83.6846 17.125C83.5879 15.5977 83.4236 14.4473 83.1916 13.674C83.8102 13.442 84.4386 13.326 85.0766 13.326C85.7339 13.326 86.2752 13.529 86.7006 13.935C87.1452 14.341 87.3676 14.8823 87.3676 15.559C87.3676 26.115 85.4342 32.4467 81.5676 34.554C80.6976 35.018 79.7116 35.25 78.6096 35.25C77.5076 35.25 76.5409 34.96 75.7096 34.38C74.8976 33.8 74.4916 32.988 74.4916 31.944C74.4916 31.248 74.7526 30.6583 75.2746 30.175C75.7966 29.711 76.4152 29.479 77.1306 29.479C77.2852 29.479 77.4786 29.4983 77.7106 29.537C77.6526 29.7883 77.6236 30.0107 77.6236 30.204C77.6236 31.9053 78.2132 32.756 79.3926 32.756C80.1079 32.756 80.7556 32.3693 81.3356 31.596C81.9156 30.8227 82.3796 29.8753 82.7276 28.754C83.4042 26.4727 83.7426 24.404 83.7426 22.548C83.1626 24.114 82.3699 25.3803 81.3646 26.347C80.3786 27.2943 79.3056 27.768 78.1456 27.768C75.8062 27.768 74.6366 26.2407 74.6366 23.186ZM103.491 7.642C104.303 7.37133 105.038 7.236 105.695 7.236C106.7 7.236 107.483 7.59367 108.044 8.309C108.605 9.005 109.04 10.0007 109.349 11.296C109.446 11.6827 109.639 12.5333 109.929 13.848C110.238 15.1627 110.49 16.226 110.683 17.038C111.282 19.5707 111.824 21.533 112.307 22.925C112.81 24.317 113.602 25.4287 114.685 26.26C114.453 26.84 114.066 27.304 113.525 27.652C113.003 28 112.433 28.174 111.814 28.174C110.403 28.174 109.368 27.1107 108.711 24.984C108.402 23.998 108.121 23.0313 107.87 22.084C107.193 22.316 106.352 22.432 105.347 22.432C104.361 22.432 103.143 22.3257 101.693 22.113C101.094 24.4523 100.794 26.2117 100.794 27.391C100.794 27.6423 100.804 27.826 100.823 27.942C100.572 27.9807 100.146 28 99.5471 28C98.9478 28 98.4161 27.8163 97.9521 27.449C97.5075 27.0623 97.2851 26.521 97.2851 25.825C97.2851 24.8583 98.2131 22.026 100.069 17.328C101.925 12.63 103.066 9.40133 103.491 7.642ZM102.36 19.677C103.133 19.7737 103.916 19.822 104.709 19.822C105.521 19.822 106.381 19.735 107.29 19.561C107.116 18.7683 106.526 15.733 105.521 10.455C104.322 13.5677 103.269 16.6417 102.36 19.677ZM118.926 22.722C118.868 22.9927 118.839 23.215 118.839 23.389C118.839 24.1817 119.071 24.7907 119.535 25.216C120.018 25.6413 120.656 25.854 121.449 25.854C122.261 25.854 122.928 25.709 123.45 25.419C123.991 25.1097 124.262 24.6553 124.262 24.056C124.262 23.4567 123.972 22.983 123.392 22.635C122.831 22.2677 122.145 21.9777 121.333 21.765C120.54 21.5523 119.738 21.3203 118.926 21.069C118.114 20.7983 117.418 20.3827 116.838 19.822C116.277 19.2613 115.997 18.5557 115.997 17.705C115.997 16.371 116.703 15.2497 118.114 14.341C119.525 13.4323 121.004 12.978 122.551 12.978C124.252 12.978 125.548 13.326 126.437 14.022C126.959 14.428 127.22 14.9693 127.22 15.646C127.22 16.3033 126.959 16.8447 126.437 17.27C125.934 17.676 125.316 17.879 124.581 17.879C124.426 17.879 124.233 17.8597 124.001 17.821C124.059 17.5697 124.088 17.3473 124.088 17.154C124.088 16.5933 123.875 16.168 123.45 15.878C123.025 15.588 122.445 15.443 121.71 15.443C120.995 15.443 120.337 15.588 119.738 15.878C119.506 16.1873 119.39 16.5837 119.39 17.067C119.39 17.5503 119.67 17.9467 120.231 18.256C120.792 18.546 121.468 18.807 122.261 19.039C123.073 19.2517 123.885 19.503 124.697 19.793C125.509 20.0637 126.195 20.4987 126.756 21.098C127.317 21.678 127.597 22.4127 127.597 23.302C127.597 24.752 126.872 25.9603 125.422 26.927C123.991 27.8743 122.512 28.348 120.985 28.348C119.458 28.348 118.191 28.0773 117.186 27.536C116.2 26.9753 115.707 26.1343 115.707 25.013C115.707 24.317 115.958 23.7563 116.461 23.331C116.983 22.8863 117.611 22.664 118.346 22.664C118.501 22.664 118.694 22.6833 118.926 22.722ZM151.698 16.284L151.408 22.49C151.408 24.3653 151.679 26.144 152.22 27.826C151.679 28.058 151.06 28.174 150.364 28.174C148.721 28.174 147.899 27.2557 147.899 25.419C147.899 24.5877 148.006 23.1957 148.218 21.243C148.431 19.271 148.537 18.0337 148.537 17.531C148.537 16.5643 148.141 16.081 147.348 16.081C146.478 16.081 145.434 16.9703 144.216 18.749C143.018 20.5277 142.418 21.9197 142.418 22.925C142.515 24.4523 142.786 25.97 143.23 27.478C142.496 27.71 141.877 27.826 141.374 27.826C139.731 27.826 138.909 26.9077 138.909 25.071C138.909 24.2977 139.016 23.0023 139.228 21.185C139.441 19.3677 139.547 18.227 139.547 17.763C139.547 16.7963 139.112 16.313 138.242 16.313C137.643 16.313 136.957 16.7577 136.183 17.647C135.41 18.5363 134.753 19.5223 134.211 20.605C133.689 21.6683 133.409 22.519 133.37 23.157C133.467 24.8197 133.66 26.318 133.95 27.652C133.332 27.884 132.684 28 132.007 28C131.35 28 130.809 27.8453 130.383 27.536C129.977 27.2073 129.774 26.7627 129.774 26.202C129.774 25.622 129.861 24.5973 130.035 23.128C130.209 21.6393 130.296 20.17 130.296 18.72C130.296 17.2507 130.074 15.5687 129.629 13.674C130.248 13.442 130.905 13.326 131.601 13.326C132.297 13.326 132.858 13.529 133.283 13.935C133.728 14.341 133.95 14.8823 133.95 15.559C133.95 15.907 133.883 16.7577 133.747 18.111C134.463 16.835 135.371 15.733 136.473 14.805C137.575 13.8577 138.677 13.384 139.779 13.384C141.732 13.384 142.708 14.428 142.708 16.516C142.708 17.038 142.679 17.618 142.621 18.256C143.337 16.9027 144.255 15.7137 145.376 14.689C146.517 13.6643 147.648 13.152 148.769 13.152C150.722 13.152 151.698 14.196 151.698 16.284ZM168.425 14.341C167.903 16.5643 167.642 18.7973 167.642 21.04C167.642 23.2633 167.893 25.4673 168.396 27.652C167.7 27.884 166.985 28 166.25 28C165.515 28 165.003 27.7873 164.713 27.362C164.423 26.9173 164.278 26.289 164.278 25.477C164.278 24.6457 164.404 23.5147 164.655 22.084C163.282 25.0227 161.958 26.8787 160.682 27.652C160.102 28 159.503 28.174 158.884 28.174C157.415 28.174 156.274 27.6327 155.462 26.55C154.65 25.448 154.244 24.085 154.244 22.461C154.244 19.9863 154.93 17.821 156.303 15.965C157.676 14.0897 159.454 13.152 161.639 13.152C163.843 13.152 166.105 13.5483 168.425 14.341ZM164.626 16.081C163.601 15.7717 162.731 15.617 162.016 15.617C160.566 15.617 159.483 15.936 158.768 16.574C158.111 18.198 157.782 19.851 157.782 21.533C157.782 22.4223 157.917 23.3213 158.188 24.23C158.478 25.1387 158.913 25.593 159.493 25.593C160.17 25.593 161.04 24.5973 162.103 22.606C163.166 20.6147 164.007 18.4397 164.626 16.081ZM173.585 21.417C173.585 22.809 173.807 23.911 174.252 24.723C174.696 25.5157 175.441 25.912 176.485 25.912C177.529 25.912 178.341 25.564 178.921 24.868C179.52 24.1527 179.82 23.2923 179.82 22.287C180.477 22.287 181.047 22.4513 181.531 22.78C182.014 23.1087 182.256 23.563 182.256 24.143C182.256 25.3417 181.618 26.347 180.342 27.159C179.066 27.9517 177.722 28.348 176.311 28.348C174.107 28.348 172.512 27.7583 171.526 26.579C170.54 25.3803 170.047 23.6113 170.047 21.272C170.047 18.9327 170.704 16.9703 172.019 15.385C173.353 13.7803 175.122 12.978 177.326 12.978C178.834 12.978 180.042 13.326 180.951 14.022C181.879 14.6987 182.343 15.762 182.343 17.212C182.343 18.6427 181.685 19.7253 180.371 20.46C179.075 21.1753 177.49 21.533 175.615 21.533C174.957 21.533 174.281 21.4943 173.585 21.417ZM173.614 19.126C174.194 19.242 174.803 19.3 175.441 19.3C176.833 19.3 178.002 19.039 178.95 18.517C179.066 18.053 179.124 17.6857 179.124 17.415C179.124 16.7383 178.882 16.226 178.399 15.878C177.915 15.53 177.248 15.356 176.398 15.356C175.566 15.356 174.812 15.6267 174.136 16.168C173.788 17.1733 173.614 18.1593 173.614 19.126Z" fill="#8F8F8F"/>
<rect y="6" width="26" height="26" rx="8" fill="#8F8F8F"/>
<g clip-path="url(#clip0)">
<path d="M23.1825 11.146H2.81715C2.4593 11.146 2.1665 11.9041 2.1665 12.8306C2.1665 13.7571 2.4593 14.5152 2.81715 14.5152H23.1825C23.5404 14.5152 23.8332 13.7571 23.8332 12.8306C23.8332 11.9041 23.5404 11.146 23.1825 11.146Z" fill="#FBF8EF"/>
<path d="M17.1315 17.375H2.81715C2.4593 17.375 2.1665 18.1331 2.1665 19.0596C2.1665 19.9861 2.4593 20.7442 2.81715 20.7442H17.1315C17.4893 20.7442 17.7821 19.9861 17.7821 19.0596C17.7821 18.1331 17.4893 17.375 17.1315 17.375Z" fill="#FBF8EF"/>
<path d="M22.6571 23.3335H2.80089C2.45198 23.3335 2.1665 24.0916 2.1665 25.0181C2.1665 25.9446 2.45198 26.7027 2.80089 26.7027H22.6571C23.006 26.7027 23.2915 25.9446 23.2915 25.0181C23.2915 24.0916 23.006 23.3335 22.6571 23.3335Z" fill="#FBF8EF"/>
</g>
<defs>
<clipPath id="clip0">
<rect x="2.1665" y="9.25" width="21.6667" height="20.0417" rx="8" fill="white"/>
</clipPath>
</defs>
</svg>
