<svg width="512" height="512" viewBox="0 0 512 512" fill="none" xmlns="http://www.w3.org/2000/svg">
<path d="M71.0081 183.859L99.0001 206.25C100.177 207.192 101.596 207.783 103.094 207.954C104.592 208.124 106.108 207.868 107.466 207.215C108.825 206.562 109.972 205.538 110.774 204.261C111.576 202.985 112.001 201.508 112 200V176H146C145.9 176.146 145.774 176.283 145.671 176.43C133.696 193.053 125.629 212.165 122.07 232.341C118.511 252.517 119.553 273.235 125.117 292.952C130.681 312.67 140.625 330.876 154.206 346.215C167.787 361.553 184.656 373.628 203.554 381.539C203.765 381.625 203.983 381.703 204.202 381.773C220.631 388.543 238.231 392.017 256 392C264.047 391.992 272.078 391.28 280 389.871V440C280.009 448.484 283.383 456.619 289.382 462.618C295.381 468.617 303.516 471.992 312 472H424C432.484 471.992 440.619 468.617 446.618 462.618C452.617 456.619 455.992 448.484 456 440V367.383C456.012 361.381 454.669 355.455 452.07 350.045C449.472 344.635 445.685 339.882 440.992 336.141L413 313.75C411.823 312.808 410.404 312.217 408.906 312.046C407.408 311.876 405.892 312.132 404.534 312.785C403.175 313.438 402.028 314.462 401.226 315.739C400.424 317.015 399.999 318.492 400 320V344H359.5C361.725 341.387 363.972 338.789 365.991 336.024C366.022 335.984 366.055 335.948 366.091 335.907C366.127 335.866 366.148 335.84 366.174 335.807C380.875 315.503 389.68 291.531 391.617 266.539C393.553 241.546 388.546 216.504 377.148 194.178C365.75 171.852 348.404 153.109 327.026 140.019C305.647 126.929 281.068 120.001 256 120C247.953 120.008 239.923 120.72 232 122.129V80C231.992 71.5157 228.617 63.3813 222.618 57.3819C216.619 51.3826 208.484 48.0085 200 48H88.0001C79.5158 48.0085 71.3814 51.3826 65.382 57.3819C59.3827 63.3813 56.0086 71.5157 56.0001 80V152.617C55.9878 158.619 57.3311 164.545 59.9298 169.955C62.5285 175.365 66.3155 180.118 71.0081 183.859V183.859ZM408 360C410.122 360 412.157 359.157 413.657 357.657C415.157 356.157 416 354.122 416 352V336.641L430.992 348.633C433.809 350.878 436.083 353.73 437.642 356.977C439.202 360.224 440.008 363.781 440 367.383V440C439.995 444.242 438.307 448.308 435.308 451.308C432.308 454.307 428.242 455.994 424 456H312C307.758 455.994 303.692 454.307 300.692 451.308C297.693 448.308 296.006 444.242 296 440V376C296.006 371.758 297.693 367.692 300.692 364.692C303.692 361.693 307.758 360.006 312 360H408ZM322.275 344C323.576 339.303 324.764 334.599 325.838 329.888C332.546 331.429 339.267 333.224 346 335.273C343.308 338.328 340.44 341.221 337.45 344H322.275ZM356.338 321.718C347.233 318.785 338.14 316.285 329.061 314.218C332.074 297.637 333.792 280.847 334.2 264H375.7C374.357 284.592 367.685 304.482 356.338 321.718V321.718ZM356.483 190.504C367.75 207.686 374.369 227.496 375.691 248H334.2C333.793 231.214 332.08 214.484 329.075 197.964C338.317 195.869 347.453 193.381 356.483 190.5V190.504ZM346.206 176.921C339.495 178.936 332.722 180.724 325.889 182.283C323.674 172.523 320.964 162.811 317.761 153.146C328.424 159.54 338.021 167.562 346.206 176.921V176.921ZM264 136.314C275.367 137.08 286.567 139.467 297.258 143.404C302.61 157.102 306.942 171.177 310.219 185.514C294.951 188.217 279.501 189.773 264 190.167V136.314ZM264 206.195C280.57 205.786 297.084 204.114 313.4 201.195C316.195 216.649 317.799 232.295 318.2 247.995H264V206.195ZM264 264H318.2C317.801 279.747 316.196 295.439 313.4 310.941C297.087 307.984 280.573 306.275 264 305.829V264ZM264 321.831C279.49 322.272 294.925 323.871 310.176 326.614C308.783 332.672 307.208 338.696 305.45 344.685C298.705 346.124 292.606 349.706 288.065 354.897C283.524 360.088 280.784 366.608 280.255 373.485C274.893 374.578 269.462 375.298 264 375.64V321.831ZM155.512 190.512C164.14 193.279 172.751 195.649 181.345 197.623C178.323 214.256 176.603 231.099 176.2 248H136.309C137.635 227.5 144.252 207.694 155.512 190.512V190.512ZM165.769 176.935C166.046 176.623 166.325 176.311 166.607 176H185.924C185.424 178 184.973 179.96 184.518 181.941C178.282 180.49 172.032 178.822 165.769 176.935ZM155.384 321.26C144.204 304.133 137.634 284.41 136.308 264H176.208C176.615 280.841 178.333 297.625 181.346 314.2C172.739 316.17 164.085 318.523 155.384 321.26ZM165.643 334.869C171.972 332.99 178.269 331.329 184.534 329.887C186.672 339.246 189.229 348.485 192.204 357.606C182.291 351.36 173.343 343.7 165.643 334.869ZM248 375.671C235.95 374.836 224.092 372.209 212.817 367.877C207.619 354.448 203.4 340.661 200.194 326.623C215.975 323.738 231.961 322.114 248 321.765V375.671ZM248 305.811C230.897 306.21 213.85 307.929 197.011 310.953C194.209 295.448 192.6 279.751 192.2 264H248V305.811ZM248 248H192.2C192.593 232.206 194.198 216.465 197 200.916C213.835 204.012 230.888 205.776 248 206.191V248ZM232 144V138.46C237.28 137.397 242.625 136.693 248 136.354V190.168C231.955 189.766 215.966 188.118 200.176 185.238C200.909 182.083 201.699 178.916 202.545 175.738C210.544 175.116 218.016 171.505 223.474 165.624C228.932 159.743 231.976 152.023 232 144V144ZM72.0001 80C72.0056 75.7582 73.6931 71.6918 76.6925 68.6924C79.6919 65.6931 83.7583 64.0056 88.0001 64H200C204.242 64.0056 208.308 65.6931 211.308 68.6924C214.307 71.6918 215.995 75.7582 216 80V144C215.995 148.242 214.307 152.308 211.308 155.308C208.308 158.307 204.242 159.994 200 160H104C101.878 160 99.8435 160.843 98.3432 162.343C96.8429 163.843 96.0001 165.878 96.0001 168V183.359L81.0081 171.367C78.191 169.122 75.9176 166.27 74.3578 163.023C72.798 159.776 71.992 156.219 72.0001 152.617V80Z" fill="black"/>
<path d="M144 120C150.627 120 156 114.627 156 108C156 101.373 150.627 96 144 96C137.373 96 132 101.373 132 108C132 114.627 137.373 120 144 120Z" fill="black"/>
<path d="M188 120C194.627 120 200 114.627 200 108C200 101.373 194.627 96 188 96C181.373 96 176 101.373 176 108C176 114.627 181.373 120 188 120Z" fill="black"/>
<path d="M100 120C106.627 120 112 114.627 112 108C112 101.373 106.627 96 100 96C93.3726 96 88 101.373 88 108C88 114.627 93.3726 120 100 120Z" fill="black"/>
<path d="M368 424C374.627 424 380 418.627 380 412C380 405.373 374.627 400 368 400C361.373 400 356 405.373 356 412C356 418.627 361.373 424 368 424Z" fill="black"/>
<path d="M412 424C418.627 424 424 418.627 424 412C424 405.373 418.627 400 412 400C405.373 400 400 405.373 400 412C400 418.627 405.373 424 412 424Z" fill="black"/>
<path d="M324 424C330.627 424 336 418.627 336 412C336 405.373 330.627 400 324 400C317.373 400 312 405.373 312 412C312 418.627 317.373 424 324 424Z" fill="black"/>
</svg>
