<svg width="231" height="271" viewBox="0 0 231 271" fill="none" xmlns="http://www.w3.org/2000/svg">
<path d="M31.185 0.291748C22.7152 0.291748 15.015 3.95861 9.24 10.8336C3.08015 18.1668 0 27.3331 0 36.9581C0 47.0412 3.465 56.2081 9.24 63.0831C15.015 69.9581 23.1 74.0831 30.8001 73.6249C30.8001 73.6249 31.185 73.6249 31.5703 73.6249C39.2705 73.6249 46.5853 69.9581 52.3603 63.0831C58.1353 56.2081 61.6003 47.0412 61.6003 36.9581C61.9851 27.3331 58.5201 18.1662 52.7451 11.2912C46.9701 3.95807 39.27 0.291748 31.185 0.291748ZM46.9702 56.6668C42.735 61.7086 36.96 64.9168 30.8001 64.4586C25.0251 64.4586 18.8653 61.7086 14.6301 56.6668C10.0101 51.6249 7.70015 44.2918 7.70015 36.9586C7.70015 29.6255 10.0101 22.7505 14.6301 17.2505C18.8653 12.2086 24.6403 9.45861 31.185 9.45861C36.96 9.45861 42.735 12.2086 46.9702 17.2505C51.5902 22.7505 53.9002 29.6255 53.9002 36.9586C53.9002 44.2918 51.5902 51.6249 46.9702 56.6668Z" fill="#D0D0D0"/>
<path d="M46.2 82.7917H15.015C8.85516 82.7917 3.84984 88.7499 3.84984 96.5417V256.959C3.84984 264.292 9.24001 270.709 15.3999 270.709H46.2C52.3599 270.709 57.75 264.292 57.75 257.417V96.5417C57.75 89.2081 52.3599 82.7917 46.2 82.7917ZM50.0499 257.417C50.0499 259.709 48.1247 261.542 46.2 261.542H15.3999C13.4747 261.542 11.55 259.25 11.55 256.959V96.5417C11.55 94.2499 13.0899 91.9586 15.015 91.9586H46.2C48.1252 91.9586 50.0499 94.2504 50.0499 96.5417V257.417Z" fill="#D0D0D0"/>
<path d="M177.1 78.208H169.015C154 78.208 139.755 85.9999 130.515 98.3749V91.958C130.515 87.3749 126.665 82.7912 122.815 82.7912H84.315C80.85 82.7912 76.6149 86.458 76.6149 91.4993V262.457C76.6149 267.499 80.85 270.707 84.315 270.707H126.665C130.13 270.707 134.365 267.499 134.365 262.457V163.457C134.365 148.332 143.605 136.416 155.54 136.416C161.7 136.416 167.475 139.166 171.71 144.207C175.56 148.332 177.1 154.749 177.1 162.999V261.541C177.1 266.124 180.95 270.708 184.8 270.708H223.3C227.15 270.708 231 266.125 231 261.541V143.291C231 106.625 207.515 78.208 177.1 78.208ZM223.3 261.083L222.915 261.541H185.185L184.8 163C184.8 152 182.49 143.75 177.485 137.792C171.71 130.917 164.01 127.25 155.925 127.25C139.755 127.708 127.05 143.292 127.05 163.458V261.541H84.6999V91.958H122.815L123.2 92.4162V121.291L133.595 108.916L133.98 108.458C141.68 95.6249 155.154 87.3749 169.4 87.3749H177.485C203.28 87.3749 223.3 112.125 223.3 143.292V261.083Z" fill="#D0D0D0"/>
</svg>
