<svg width="512" height="512" viewBox="0 0 512 512" fill="none" xmlns="http://www.w3.org/2000/svg">
<g clip-path="url(#clip0)">
<path d="M69.12 4.26697C50.347 4.26697 33.28 11.094 20.48 23.894C6.827 37.547 0 54.613 0 72.533C0 91.306 7.68 108.373 20.48 121.173C33.28 133.973 51.2 141.653 68.267 140.8C68.267 140.8 69.12 140.8 69.974 140.8C87.041 140.8 103.254 133.973 116.054 121.173C128.854 108.373 136.534 91.306 136.534 72.533C137.387 54.613 129.707 37.546 116.907 24.746C104.107 11.093 87.04 4.26697 69.12 4.26697ZM104.107 109.227C94.72 118.614 81.92 124.587 68.267 123.734C55.467 123.734 41.814 118.614 32.427 109.227C22.187 99.84 17.067 86.187 17.067 72.534C17.067 58.881 22.187 46.081 32.427 35.841C41.814 26.454 54.614 21.334 69.12 21.334C81.92 21.334 94.72 26.454 104.107 35.841C114.347 46.081 119.467 58.881 119.467 72.534C119.467 86.187 114.347 99.84 104.107 109.227Z" fill="black"/>
<path d="M102.4 157.867H33.28C19.627 157.867 8.53296 168.96 8.53296 183.467V482.134C8.53296 495.787 20.48 507.734 34.133 507.734H102.4C116.053 507.734 128 495.787 128 482.987V183.467C128 169.813 116.053 157.867 102.4 157.867ZM110.933 482.987C110.933 487.254 106.666 490.667 102.4 490.667H34.133C29.866 490.667 25.6 486.4 25.6 482.134V183.467C25.6 179.2 29.013 174.934 33.28 174.934H102.4C106.667 174.934 110.933 179.201 110.933 183.467V482.987Z" fill="black"/>
<path d="M392.533 149.333H374.613C341.333 149.333 309.76 163.84 289.28 186.88V174.933C289.28 166.4 280.747 157.866 272.213 157.866H186.88C179.2 157.866 169.813 164.693 169.813 174.079V492.372C169.813 501.759 179.2 507.732 186.88 507.732H280.747C288.427 507.732 297.814 501.759 297.814 492.372V308.052C297.814 279.892 318.294 257.705 344.747 257.705C358.4 257.705 371.2 262.825 380.587 272.212C389.12 279.892 392.534 291.839 392.534 307.199V490.666C392.534 499.199 401.067 507.733 409.601 507.733H494.934C503.467 507.733 512.001 499.2 512.001 490.666V270.506C512 202.24 459.947 149.333 392.533 149.333ZM494.933 489.813L494.08 490.666H410.453L409.6 307.2C409.6 286.72 404.48 271.36 393.387 260.267C380.587 247.467 363.52 240.64 345.6 240.64C309.76 241.493 281.6 270.507 281.6 308.053V490.666H187.733V174.933H272.213L273.066 175.786V229.546L296.106 206.506L296.959 205.653C314.026 181.76 343.892 166.4 375.466 166.4H393.386C450.559 166.4 494.933 212.48 494.933 270.507V489.813V489.813Z" fill="black"/>
</g>
<defs>
<clipPath id="clip0">
<rect width="512" height="512" fill="white"/>
</clipPath>
</defs>
</svg>
