<svg width="18" height="17" viewBox="0 0 18 17" fill="none" xmlns="http://www.w3.org/2000/svg">
<path d="M8.68227 0C6.40462 0 4.34113 1.72522 4.34113 3.85319C4.34113 7.01711 7.80174 7.35161 8.68227 12.1637C9.56279 7.35161 13.0234 7.01711 13.0234 3.85319C13.0234 1.72522 10.9606 0 8.68227 0ZM8.68227 5.40609C7.88277 5.40609 7.23522 4.80129 7.23522 4.05457C7.23522 3.30785 7.88277 2.70305 8.68227 2.70305C9.48176 2.70305 10.1293 3.30785 10.1293 4.05457C10.1293 4.80129 9.48176 5.40609 8.68227 5.40609ZM17.3645 16.2183L12.5119 14.5782L8.68227 16.2183L4.64429 14.5782L0 16.2183L2.89409 10.1364L5.75924 9.06602C6.03417 9.41471 6.29537 9.79584 6.52689 10.2344L3.97793 11.1872L2.72985 13.8092L4.6631 13.1267L5.75273 11.3109L5.29329 13.3679L8.32412 14.5768L8.68227 13.2111L9.0187 14.5789L12.0213 13.3017L11.5742 11.2521L12.7116 13.2091L14.6882 13.8774L13.43 11.1893L10.8391 10.2331C11.0699 9.79381 11.3318 9.41201 11.6075 9.06331L14.5167 10.1364L17.3645 16.2183Z" fill="#D0D0D0"/>
</svg>
