<svg width="443" height="443" viewBox="0 0 443 443" fill="none" xmlns="http://www.w3.org/2000/svg">
<g clip-path="url(#clip0)">
<path d="M351.809 322.694C318.65 322.694 291.673 349.671 291.673 382.829C291.673 415.987 318.65 442.964 351.809 442.964C384.968 442.964 411.945 415.987 411.945 382.829C411.945 349.671 384.968 322.694 351.809 322.694ZM351.809 422.964C329.678 422.964 311.673 404.96 311.673 382.829C311.673 360.698 329.678 342.694 351.809 342.694C373.94 342.694 391.945 360.698 391.945 382.829C391.945 404.96 373.94 422.964 351.809 422.964ZM180.796 261.82H339.976C345.498 261.82 349.482 266.333 349.482 271.856V294.591C349.482 300.114 345.004 304.591 339.482 304.591C333.96 304.591 329.482 300.114 329.482 294.591V281.82H190.482V367.82H254.627C260.149 367.82 264.627 372.297 264.627 377.82C264.627 383.343 260.149 387.82 254.627 387.82H180.797C175.274 387.82 170.483 383.519 170.483 377.996V271.856C170.482 266.333 175.273 261.82 180.796 261.82ZM278.025 416.82C278.025 422.343 273.547 426.82 268.025 426.82H167.807C162.284 426.82 157.807 422.343 157.807 416.82C157.807 411.297 162.284 406.82 167.807 406.82H268.025C273.547 406.82 278.025 411.297 278.025 416.82ZM361.809 382.824C361.809 388.347 357.333 392.82 351.811 392.82H351.807C346.285 392.82 341.807 388.347 341.807 382.824C341.807 377.301 346.285 372.828 351.807 372.828C357.329 372.828 361.809 377.301 361.809 382.824ZM74.4188 248.294L53.0418 363.82H126.988C132.511 363.82 136.988 368.297 136.988 373.82C136.988 379.343 132.511 383.82 126.988 383.82H41.0198C38.0488 383.82 35.2318 382.385 33.3318 380.101C31.4318 377.817 30.6458 374.692 31.1868 371.77L54.7538 244.538C60.5258 213.374 84.6998 190.173 119.419 182.475C137.502 178.465 157.096 179.148 174.593 184.398C193.706 190.132 209.247 200.789 219.536 215.216C222.743 219.713 221.697 225.957 217.201 229.164C212.706 232.371 206.461 231.326 203.253 226.829C187.86 205.245 155.169 195.036 123.748 202.001C110.964 204.835 80.5638 215.124 74.4188 248.294ZM143.098 159.171C161.795 159.171 179.352 151.634 192.535 137.948C203.906 126.144 217.17 104.322 215.789 67.3949C214.303 27.7099 185.212 6.13694 155.226 0.853938C149.794 -0.368062 136.972 -0.0360622 134.072 0.365938C103.021 4.67194 71.9428 26.3429 70.4068 67.3959C69.0258 104.322 82.2908 126.145 93.6608 137.948C106.844 151.634 124.401 159.171 143.098 159.171ZM143.098 19.6129C159.047 20.2549 175.249 26.5429 185.409 39.0719C173.085 44.0099 158.447 46.8939 143.098 47.3069C127.75 46.8939 113.111 44.0099 100.786 39.0719C110.946 26.5429 127.148 20.2549 143.098 19.6129ZM90.3928 68.1449C90.5408 64.1949 91.0678 60.4999 91.9198 57.0529C106.847 63.2529 124.511 66.8479 142.847 67.3089C142.931 67.3109 143.266 67.3109 143.35 67.3089C161.686 66.8479 179.35 63.2519 194.276 57.0529C195.128 60.5009 195.655 64.1949 195.803 68.1449C196.689 91.8129 190.578 111.153 178.131 124.074C168.753 133.81 156.311 139.172 143.098 139.172C129.885 139.172 117.444 133.81 108.065 124.074C95.6178 111.153 89.5068 91.8129 90.3928 68.1449Z" fill="black"/>
</g>
<defs>
<clipPath id="clip0">
<rect width="442.964" height="442.964" fill="white"/>
</clipPath>
</defs>
</svg>
