<svg width="144" height="222" viewBox="0 0 144 222" fill="none" xmlns="http://www.w3.org/2000/svg">
<path d="M120.829 161.711C108.404 161.711 98.2951 175.23 98.2951 191.847C98.2951 208.463 108.404 221.982 120.829 221.982C133.254 221.982 143.363 208.463 143.363 191.847C143.363 175.23 133.254 161.711 120.829 161.711ZM120.829 211.959C112.536 211.959 105.789 202.937 105.789 191.847C105.789 180.756 112.536 171.734 120.829 171.734C129.122 171.734 135.869 180.756 135.869 191.847C135.869 202.937 129.122 211.959 120.829 211.959ZM56.7475 131.206H116.395C118.464 131.206 119.957 133.467 119.957 136.235V147.628C119.957 150.396 118.279 152.639 116.21 152.639C114.141 152.639 112.463 150.396 112.463 147.628V141.228H60.377V184.325H84.4133C86.4825 184.325 88.1605 186.569 88.1605 189.336C88.1605 192.104 86.4825 194.348 84.4133 194.348H56.7479C54.6783 194.348 52.883 192.192 52.883 189.425V136.235C52.8826 133.467 54.6779 131.206 56.7475 131.206ZM93.1809 208.88C93.1809 211.648 91.5029 213.892 89.4338 213.892H51.8803C49.8107 213.892 48.1331 211.648 48.1331 208.88C48.1331 206.113 49.8107 203.869 51.8803 203.869H89.4338C91.5029 203.869 93.1809 206.113 93.1809 208.88ZM124.576 191.844C124.576 194.612 122.899 196.853 120.83 196.853H120.828C118.759 196.853 117.081 194.612 117.081 191.844C117.081 189.076 118.759 186.835 120.828 186.835C122.898 186.835 124.576 189.076 124.576 191.844ZM16.8861 124.427L8.87571 182.321H36.5847C38.6542 182.321 40.3319 184.564 40.3319 187.332C40.3319 190.1 38.6542 192.343 36.5847 192.343H4.37085C3.25756 192.343 2.20198 191.624 1.49002 190.48C0.778054 189.335 0.483527 187.769 0.686249 186.305L9.51722 122.545C11.6801 106.928 20.7385 95.3011 33.7484 91.4435C40.5245 89.4339 47.8667 89.7762 54.4231 92.4071C61.5851 95.2806 67.4086 100.621 71.2641 107.851C72.4658 110.104 72.0738 113.234 70.3891 114.841C68.7047 116.448 66.3646 115.924 65.1625 113.671C59.3945 102.854 47.1446 97.7381 35.3706 101.228C30.5802 102.649 19.1887 107.805 16.8861 124.427ZM42.6214 79.7652C49.6275 79.7652 56.2064 75.9881 61.1463 69.1297C65.4072 63.2144 70.3775 52.2787 69.86 33.7735C69.3032 13.8862 58.4022 3.0754 47.166 0.427933C45.1305 -0.184446 40.3259 -0.0180713 39.2392 0.183383C27.6038 2.34124 15.9582 13.2012 15.3827 33.774C14.8652 52.2787 19.8358 63.2149 24.0964 69.1297C29.0364 75.9881 35.6153 79.7652 42.6214 79.7652ZM42.6214 9.82859C48.5978 10.1503 54.6689 13.3014 58.4761 19.58C53.858 22.0546 48.3729 23.4999 42.6214 23.7068C36.8702 23.4999 31.3847 22.0546 26.7663 19.58C30.5734 13.3014 36.6446 10.1503 42.6214 9.82859ZM22.8718 34.1494C22.9273 32.1699 23.1247 30.3182 23.444 28.5908C29.0375 31.6978 35.6565 33.4994 42.5273 33.7304C42.5588 33.7314 42.6843 33.7314 42.7158 33.7304C49.5866 33.4994 56.2056 31.6973 61.7987 28.5908C62.1179 30.3187 62.3154 32.1699 62.3709 34.1494C62.7029 46.0101 60.413 55.702 55.7489 62.177C52.2348 67.056 47.5725 69.7431 42.6214 69.7431C37.6702 69.7431 33.0084 67.056 29.4939 62.177C24.8297 55.702 22.5398 46.0101 22.8718 34.1494Z" fill="#D0D0D0"/>
</svg>
