<svg width="512" height="512" viewBox="0 0 512 512" fill="none" xmlns="http://www.w3.org/2000/svg">
<path d="M140.064 468H78.651C60.793 468 46.264 453.421 46.264 435.5V250.626C46.264 246.483 42.906 243.126 38.764 243.126C34.622 243.126 31.264 246.483 31.264 250.626V435.5C31.264 461.691 52.522 483 78.651 483H140.064C144.206 483 147.564 479.643 147.564 475.5C147.564 471.357 144.206 468 140.064 468Z" fill="black"/>
<path d="M95.7581 157.481H219.369C223.511 157.481 226.869 154.124 226.869 149.981C226.869 145.838 223.511 142.481 219.369 142.481H95.7581C91.6161 142.481 88.2581 145.838 88.2581 149.981C88.2581 154.124 91.6161 157.481 95.7581 157.481Z" fill="black"/>
<path d="M95.7581 322.522C91.6161 322.522 88.2581 325.879 88.2581 330.022C88.2581 334.165 91.6161 337.522 95.7581 337.522H269.369C273.511 337.522 276.869 334.165 276.869 330.022C276.869 325.879 273.511 322.522 269.369 322.522H95.7581Z" fill="black"/>
<path d="M93.76 217.495H317.597C321.739 217.495 325.097 214.138 325.097 209.995C325.097 205.852 321.739 202.495 317.597 202.495H93.76C89.618 202.495 86.26 205.852 86.26 209.995C86.26 214.138 89.618 217.495 93.76 217.495V217.495Z" fill="black"/>
<path d="M93.76 277.509H317.634C321.776 277.509 325.134 274.152 325.134 270.009C325.134 265.866 321.776 262.509 317.634 262.509H93.76C89.618 262.509 86.26 265.866 86.26 270.009C86.26 274.152 89.618 277.509 93.76 277.509V277.509Z" fill="black"/>
<path d="M480.685 403.749C480.278 395.25 476.566 386.952 470.529 381.011L400.264 311.154V151.549C400.264 141.552 396.385 132.148 389.341 125.068L275.858 11.02C268.889 4.017 259.233 0 249.365 0H78.651C52.522 0 31.264 21.309 31.264 47.501V215.626C31.264 219.769 34.622 223.126 38.764 223.126C42.906 223.126 46.264 219.769 46.264 215.626V47.501C46.264 29.58 60.793 15 78.651 15H249.365C251.073 15 252.746 15.211 254.371 15.582V57.784C254.371 61.927 257.729 65.284 261.871 65.284C266.013 65.284 269.371 61.927 269.371 57.784V25.767L374.698 131.619H288.894C278.129 131.619 269.371 122.822 269.371 112.01V92.784C269.371 88.641 266.013 85.284 261.871 85.284C257.729 85.284 254.371 88.641 254.371 92.784V112.01C254.371 131.094 269.858 146.619 288.894 146.619H384.707C385.062 148.221 385.264 149.868 385.264 151.549V301.002C373.03 296.713 358.847 299.422 349.078 309.133C335.566 322.023 335.566 345.231 349.078 358.122L361.912 370.882H317.633C313.491 370.882 310.133 374.239 310.133 378.382C310.133 382.525 313.491 385.882 317.633 385.882H380.093C383.131 385.882 385.868 384.05 387.026 381.242C388.185 378.433 387.535 375.205 385.381 373.063L359.654 347.485C352.001 340.182 352.002 327.072 359.654 319.769C367.375 312.094 379.936 312.094 387.655 319.769L459.979 391.673C467.571 398.89 467.605 412.112 459.952 419.362L387.65 491.245C379.932 498.932 367.375 498.933 359.654 491.24C352.001 483.937 352.002 470.826 359.654 463.523L385.381 437.946C387.535 435.805 388.185 432.576 387.027 429.767C385.869 426.959 383.131 425.127 380.094 425.127H234.517C223.609 425.127 214.735 416.323 214.735 405.503C214.735 394.683 223.61 385.88 234.517 385.88H282.634C286.776 385.88 290.134 382.523 290.134 378.38C290.134 374.237 286.776 370.88 282.634 370.88H234.517C215.338 370.88 199.735 386.412 199.735 405.503C199.735 424.595 215.338 440.127 234.517 440.127H361.912L349.079 452.886C344.788 457.152 341.764 462.34 340.173 467.998H175.064C170.922 467.998 167.564 471.355 167.564 475.498C167.564 479.641 170.922 482.998 175.064 482.998H339.338C340.498 490.116 343.85 496.678 349.074 501.871C362.625 515.372 384.681 515.375 398.232 501.876L470.495 430.032C477.423 423.234 481.231 413.384 480.685 403.749V403.749Z" fill="black"/>
</svg>
