<svg width="93" height="84" viewBox="0 0 93 84" fill="none" xmlns="http://www.w3.org/2000/svg">
<g clip-path="url(#clip0)">
<path d="M45.8374 40.4632C51.9917 40.4632 57.3203 38.4694 61.6755 34.5358C66.0293 30.6027 68.2373 25.7905 68.2373 20.2309C68.2373 14.6733 66.03 9.86042 61.6748 5.92612C57.3196 1.99374 51.991 0 45.8374 0C39.6821 0 34.3542 1.99374 29.9998 5.92676C25.6455 9.85978 23.4373 14.6727 23.4373 20.2309C23.4373 25.7905 25.6455 30.6034 29.9998 34.5365C34.3557 38.4689 39.6843 40.4632 45.8374 40.4632ZM33.854 9.40731C37.1951 6.38946 41.1147 4.92251 45.8374 4.92251C50.5593 4.92251 54.4795 6.38946 57.8213 9.40731C61.1626 12.4258 62.7874 15.9666 62.7874 20.2309C62.7874 24.4965 61.1626 28.0368 57.8213 31.0552C54.4795 34.0738 50.5593 35.5407 45.8374 35.5407C41.116 35.5407 37.1965 34.0732 33.854 31.0552C30.512 28.0375 28.8872 24.4965 28.8872 20.2309C28.8872 15.9666 30.512 12.4258 33.854 9.40731Z" fill="#D0D0D0"/>
<path d="M85.0312 64.5918C84.9057 62.9551 84.6516 61.1696 84.2776 59.2842C83.9002 57.3846 83.4143 55.5889 82.8323 53.9476C82.2307 52.2512 81.414 50.576 80.4029 48.9706C79.355 47.3044 78.1233 45.8534 76.741 44.6595C75.2957 43.4105 73.5261 42.4063 71.4798 41.6738C69.4407 40.945 67.1807 40.5759 64.7634 40.5759C63.814 40.5759 62.896 40.9278 61.1228 41.9704C60.0315 42.6132 58.7551 43.3567 57.3303 44.1788C56.1121 44.88 54.4617 45.5369 52.4231 46.1317C50.4343 46.7129 48.415 47.0076 46.4212 47.0076C44.4289 47.0076 42.4094 46.7129 40.4192 46.1317C38.3828 45.5374 36.7319 44.8807 35.5156 44.1795C34.1045 43.3649 32.8274 42.6215 31.7197 41.9697C29.948 40.9271 29.0298 40.5752 28.0805 40.5752C25.6624 40.5752 23.4033 40.945 21.3648 41.6744C19.3198 42.4056 17.5496 43.4099 16.1029 44.6602C14.7207 45.8547 13.4889 47.305 12.4417 48.9706C11.432 50.576 10.6146 52.2505 10.0129 53.9483C9.43183 55.5895 8.9458 57.3846 8.56833 59.2842C8.1937 61.167 7.94038 62.9532 7.8148 64.5938C7.69135 66.1978 7.62891 67.8673 7.62891 69.5541C7.62891 73.939 9.17214 77.4886 12.2153 80.1067C15.2209 82.6901 19.1972 83.9999 24.034 83.9999H68.8142C73.6496 83.9999 77.6258 82.6901 80.6321 80.1067C83.676 77.4906 85.2192 73.9396 85.2192 69.5534C85.2185 67.8609 85.1555 66.1914 85.0312 64.5918ZM76.8745 76.5402C74.8884 78.2476 72.2517 79.0774 68.8135 79.0774H24.034C20.595 79.0774 17.9583 78.2476 15.973 76.5408C14.0253 74.8662 13.0788 72.5804 13.0788 69.5541C13.0788 67.98 13.1363 66.426 13.2512 64.9341C13.3634 63.4703 13.5925 61.8623 13.9324 60.1538C14.268 58.4664 14.6951 56.8828 15.2032 55.4493C15.6906 54.0746 16.3555 52.7134 17.1799 51.4022C17.9668 50.1523 18.8721 49.0802 19.8711 48.2164C20.8057 47.4082 21.9834 46.7469 23.3713 46.2508C24.6548 45.7919 26.0974 45.5407 27.6633 45.503C27.8542 45.5945 28.1941 45.7696 28.7446 46.0938C29.865 46.7533 31.1563 47.5057 32.584 48.3291C34.1931 49.2559 36.2664 50.0928 38.7434 50.815C41.2756 51.5546 43.8584 51.9301 46.4219 51.9301C48.9856 51.9301 51.5689 51.5546 54.0998 50.8157C56.5789 50.0921 58.6514 49.2559 60.2629 48.3278C61.7237 47.4845 62.979 46.754 64.0993 46.0938C64.6499 45.7701 64.9897 45.5945 65.1806 45.503C66.7473 45.5407 68.1897 45.7919 69.4739 46.2508C70.8611 46.7469 72.039 47.4089 72.9734 48.2164C73.9724 49.0795 74.8777 50.1519 75.6646 51.4027C76.4898 52.7134 77.1555 54.0752 77.6421 55.4486C78.1509 56.8842 78.5786 58.467 78.9136 60.1531C79.2527 61.8649 79.4827 63.4736 79.5947 64.9347V64.936C79.7104 66.4221 79.7686 67.9756 79.7693 69.5541C79.7686 72.5808 78.822 74.8662 76.8745 76.5402Z" fill="#D0D0D0"/>
</g>
<defs>
<clipPath id="clip0">
<rect width="93" height="84" fill="white"/>
</clipPath>
</defs>
</svg>
